999
dxfrw 0.6.3
  0
SECTION
  2
HEADER
  9
$ACADVER
  1
AC1021
  9
$DWGCODEPAGE
  3
ANSI_1252
  9
$INSBASE
 10
0
 20
0
 30
0
  9
$EXTMIN
 10
3.090473161399182
 20
-104.2015558803861
 30
0
  9
$EXTMAX
 10
256.3383459644864
 20
-3.059118227638717
 30
0
  9
$LIMMIN
 10
0
 20
0
  9
$LIMMAX
 10
420
 20
297
  9
$ORTHOMODE
 70
    0
  9
$REGENMODE
 70
    1
  9
$FILLMODE
 70
    1
  9
$QTEXTMODE
 70
    0
  9
$MIRRTEXT
 70
    0
  9
$LTSCALE
 40
1
  9
$ATTMODE
 70
    0
  9
$TEXTSIZE
 40
2.5
  9
$TRACEWID
 40
15.68
  9
$TEXTSTYLE
  7
STANDARD
  9
$CLAYER
  8
0
  9
$CELTYPE
  6
BYLAYER
  9
$CECOLOR
 62
  256
  9
$CELTSCALE
 40
1
  9
$DISPSILH
 70
    0
  9
$DIMSCALE
 40
2.5
  9
$DIMASZ
 40
2.5
  9
$DIMEXO
 40
0.625
  9
$DIMDLI
 40
3.75
  9
$DIMRND
 40
0
  9
$DIMDLE
 40
0
  9
$DIMEXE
 40
1.25
  9
$DIMTP
 40
0
  9
$DIMTM
 40
0
  9
$DIMTXT
 40
2.5
  9
$DIMCEN
 40
2.5
  9
$DIMTSZ
 40
0
  9
$DIMTOL
 70
    0
  9
$DIMLIM
 70
    0
  9
$DIMTIH
 70
    0
  9
$DIMTOH
 70
    0
  9
$DIMSE1
 70
    0
  9
$DIMSE2
 70
    0
  9
$DIMTAD
 70
    1
  9
$DIMZIN
 70
    8
  9
$DIMBLK
  1

  9
$DIMASO
 70
    1
  9
$DIMSHO
 70
    1
  9
$DIMPOST
  1

  9
$DIMAPOST
  1

  9
$DIMALT
 70
    0
  9
$DIMALTD
 70
    3
  9
$DIMALTF
 40
0.03937
  9
$DIMLFAC
 40
1
  9
$DIMTOFL
 70
    1
  9
$DIMTVP
 40
0
  9
$DIMTIX
 70
    0
  9
$DIMSOXD
 70
    0
  9
$DIMSAH
 70
    0
  9
$DIMBLK1
  1

  9
$DIMBLK2
  1

  9
$DIMSTYLE
  2
Standard
  9
$DIMCLRD
 70
    0
  9
$DIMCLRE
 70
    0
  9
$DIMCLRT
 70
    0
  9
$DIMTFAC
 40
1
  9
$DIMGAP
 40
0.625
  9
$DIMJUST
 70
    0
  9
$DIMSD1
 70
    0
  9
$DIMSD2
 70
    0
  9
$DIMTOLJ
 70
    0
  9
$DIMTZIN
 70
    8
  9
$DIMALTZ
 70
    0
  9
$DIMALTTZ
 70
    0
  9
$DIMUPT
 70
    0
  9
$DIMDEC
 70
    2
  9
$DIMTDEC
 70
    2
  9
$DIMALTU
 70
    2
  9
$DIMALTTD
 70
    3
  9
$DIMTXSTY
  7
STANDARD
  9
$DIMAUNIT
 70
    0
  9
$DIMADEC
 70
    0
  9
$DIMALTRND
 40
0
  9
$DIMAZIN
 70
    0
  9
$DIMDSEP
 70
   44
  9
$DIMATFIT
 70
    3
  9
$DIMFRAC
 70
    0
  9
$DIMLDRBLK
  1
STANDARD
  9
$DIMLUNIT
 70
    2
  9
$DIMLWD
 70
   -2
  9
$DIMLWE
 70
   -2
  9
$DIMTMOVE
 70
    0
  9
$DIMFXL
 40
1
  9
$DIMFXLON
 70
    0
  9
$DIMJOGANG
 40
0.7854
  9
$DIMTFILL
 70
    0
  9
$DIMTFILLCLR
 70
    0
  9
$DIMARCSYM
 70
    0
  9
$DIMLTYPE
  6

  9
$DIMLTEX1
  6

  9
$DIMLTEX2
  6

  9
$LUNITS
 70
    2
  9
$LUPREC
 70
    4
  9
$SKETCHINC
 40
1
  9
$FILLETRAD
 40
0
  9
$AUNITS
 70
    0
  9
$AUPREC
 70
    2
  9
$MENU
  1
.
  9
$ELEVATION
 40
0
  9
$PELEVATION
 40
0
  9
$THICKNESS
 40
0
  9
$LIMCHECK
 70
    0
  9
$CHAMFERA
 40
0
  9
$CHAMFERB
 40
0
  9
$CHAMFERC
 40
0
  9
$CHAMFERD
 40
0
  9
$SKPOLY
 70
    0
  9
$USRTIMER
 70
    1
  9
$ANGBASE
 50
0
  9
$ANGDIR
 70
    0
  9
$PDMODE
 70
   34
  9
$PDSIZE
 40
0
  9
$PLINEWID
 40
0
  9
$SPLFRAME
 70
    0
  9
$SPLINETYPE
 70
    2
  9
$SPLINESEGS
 70
    8
  9
$HANDSEED
  5
20000
  9
$SURFTAB1
 70
    6
  9
$SURFTAB2
 70
    6
  9
$SURFTYPE
 70
    6
  9
$SURFU
 70
    6
  9
$SURFV
 70
    6
  9
$UCSBASE
  2

  9
$UCSNAME
  2

  9
$UCSORG
 10
0
 20
0
 30
0
  9
$UCSXDIR
 10
1
 20
0
 30
0
  9
$UCSYDIR
 10
0
 20
1
 30
0
  9
$UCSORTHOREF
  2

  9
$UCSORTHOVIEW
 70
    0
  9
$UCSORGTOP
 10
0
 20
0
 30
0
  9
$UCSORGBOTTOM
 10
0
 20
0
 30
0
  9
$UCSORGLEFT
 10
0
 20
0
 30
0
  9
$UCSORGRIGHT
 10
0
 20
0
 30
0
  9
$UCSORGFRONT
 10
0
 20
0
 30
0
  9
$UCSORGBACK
 10
0
 20
0
 30
0
  9
$PUCSBASE
  2

  9
$PUCSNAME
  2

  9
$PUCSORG
 10
0
 20
0
 30
0
  9
$PUCSXDIR
 10
1
 20
0
 30
0
  9
$PUCSYDIR
 10
0
 20
1
 30
0
  9
$PUCSORTHOREF
  2

  9
$PUCSORTHOVIEW
 70
    0
  9
$PUCSORGTOP
 10
0
 20
0
 30
0
  9
$PUCSORGBOTTOM
 10
0
 20
0
 30
0
  9
$PUCSORGLEFT
 10
0
 20
0
 30
0
  9
$PUCSORGRIGHT
 10
0
 20
0
 30
0
  9
$PUCSORGFRONT
 10
0
 20
0
 30
0
  9
$PUCSORGBACK
 10
0
 20
0
 30
0
  9
$USERI1
 70
    0
  9
$USERI2
 70
    0
  9
$USERI3
 70
    0
  9
$USERI4
 70
    0
  9
$USERI5
 70
    0
  9
$USERR1
 40
0
  9
$USERR2
 40
0
  9
$USERR3
 40
0
  9
$USERR4
 40
0
  9
$USERR5
 40
0
  9
$WORLDVIEW
 70
    1
  9
$SHADEDGE
 70
    3
  9
$SHADEDIF
 70
   70
  9
$TILEMODE
 70
    1
  9
$MAXACTVP
 70
   64
  9
$PINSBASE
 10
0
 20
0
 30
0
  9
$PLIMCHECK
 70
    0
  9
$PEXTMIN
 10
0
 20
0
 30
0
  9
$PEXTMAX
 10
0
 20
0
 30
0
  9
$GRIDMODE
 70
    1
  9
$SNAPSTYLE
 70
    0
  9
$PLIMMIN
 10
0
 20
0
  9
$PLIMMAX
 10
210
 20
297
  9
$UNITMODE
 70
    0
  9
$VISRETAIN
 70
    1
  9
$PLINEGEN
 70
    0
  9
$PSLTSCALE
 70
    1
  9
$TREEDEPTH
 70
 3020
  9
$CMLSTYLE
  2
Standard
  9
$CMLJUST
 70
    0
  9
$CMLSCALE
 40
20
  9
$PROXYGRAPHICS
 70
    1
  9
$MEASUREMENT
 70
    1
  9
$CELWEIGHT
370
   -1
  9
$ENDCAPS
280
    0
  9
$JOINSTYLE
280
    0
  9
$LWDISPLAY
290
    0
  9
$INSUNITS
 70
    4
  9
$HYPERLINKBASE
  1

  9
$STYLESHEET
  1

  9
$XEDIT
290
    1
  9
$CEPSNTYPE
380
    0
  9
$PSTYLEMODE
290
    1
  9
$EXTNAMES
290
    1
  9
$PSVPSCALE
 40
1
  9
$OLESTARTUP
290
    0
  9
$SORTENTS
280
  127
  9
$INDEXCTL
280
    0
  9
$HIDETEXT
280
    1
  9
$XCLIPFRAME
290
    0
  9
$HALOGAP
280
    0
  9
$OBSCOLOR
 70
  257
  9
$OBSLTYPE
280
    0
  9
$INTERSECTIONDISPLAY
280
    0
  9
$INTERSECTIONCOLOR
 70
  257
  9
$DIMASSOC
280
    1
  9
$PROJECTNAME
  1

  9
$CAMERADISPLAY
290
    0
  9
$LENSLENGTH
 40
50
  9
$CAMERAHEIGHT
 40
0
  9
$STEPSPERSEC
 40
2
  9
$STEPSIZE
 40
50
  9
$3DDWFPREC
 40
2
  9
$PSOLWIDTH
 40
5
  9
$PSOLHEIGHT
 40
80
  9
$LOFTANG1
 40
1.570796326794897
  9
$LOFTANG2
 40
1.570796326794897
  9
$LOFTMAG1
 40
0
  9
$LOFTMAG2
 40
0
  9
$LOFTPARAM
 70
    7
  9
$LOFTNORMALS
280
    1
  9
$LATITUDE
 40
1
  9
$LONGITUDE
 40
1
  9
$NORTHDIRECTION
 40
0
  9
$TIMEZONE
 70
-8000
  9
$LIGHTGLYPHDISPLAY
280
    1
  9
$TILEMODELIGHTSYNCH
280
    1
  9
$SOLIDHIST
280
    1
  9
$SHOWHIST
280
    1
  9
$DWFFRAME
280
    2
  9
$DGNFRAME
280
    0
  9
$REALWORLDSCALE
290
    1
  9
$INTERFERECOLOR
 62
    1
  9
$CSHADOW
280
    0
  9
$SHADOWPLANELOCATION
 40
0
  0
ENDSEC
  0
SECTION
  2
CLASSES
  0
ENDSEC
  0
SECTION
  2
TABLES
  0
TABLE
  2
VPORT
  5
8
330
0
100
AcDbSymbolTable
 70
    1
  0
VPORT
  5
31
330
2
100
AcDbSymbolTableRecord
100
AcDbViewportTableRecord
  2
*ACTIVE
 70
    0
 10
0
 20
0
 11
1
 21
1
 12
162.3203201349482
 22
15.25017164717017
 13
0
 23
0
 14
10
 24
10
 15
10
 25
10
 16
0
 26
0
 36
1
 17
0
 27
0
 37
0
 40
228.1258553247921
 41
2.402930402930403
 42
50
 43
0
 44
0
 50
0
 51
0
 71
    0
 72
  100
 73
    1
 74
    3
 75
    0
 76
    1
 77
    0
 78
    0
281
    0
 65
    1
110
0
120
0
130
0
111
1
121
0
131
0
112
0
122
1
132
0
 79
    0
146
0
348
10020
 60
    7
 61
    5
292
1
282
    1
141
0
142
0
 63
  250
421
3358443
  0
ENDTAB
  0
TABLE
  2
LTYPE
  5
5
330
0
100
AcDbSymbolTable
 70
    4
  0
LTYPE
  5
14
330
5
100
AcDbSymbolTableRecord
100
AcDbLinetypeTableRecord
  2
ByBlock
 70
    0
  3

 72
   65
 73
    0
 40
0
  0
LTYPE
  5
15
330
5
100
AcDbSymbolTableRecord
100
AcDbLinetypeTableRecord
  2
ByLayer
 70
    0
  3

 72
   65
 73
    0
 40
0
  0
LTYPE
  5
16
330
5
100
AcDbSymbolTableRecord
100
AcDbLinetypeTableRecord
  2
Continuous
 70
    0
  3
Solid line
 72
   65
 73
    0
 40
0
  0
LTYPE
  5
32
330
5
100
AcDbSymbolTableRecord
100
AcDbLinetypeTableRecord
  2
DOT
 70
    0
  3
Dot . . . . . . . . . . . . . . . . . . . . . .
 72
   65
 73
    2
 40
6.35
 49
0
 74
    0
 49
-6.35
 74
    0
  0
LTYPE
  5
33
330
5
100
AcDbSymbolTableRecord
100
AcDbLinetypeTableRecord
  2
DOTTINY
 70
    0
  3
Dot (.15x) .....................................
 72
   65
 73
    2
 40
0.9525
 49
0
 74
    0
 49
-0.9525
 74
    0
  0
LTYPE
  5
34
330
5
100
AcDbSymbolTableRecord
100
AcDbLinetypeTableRecord
  2
DOT2
 70
    0
  3
Dot (.5x) .....................................
 72
   65
 73
    2
 40
3.175
 49
0
 74
    0
 49
-3.175
 74
    0
  0
LTYPE
  5
35
330
5
100
AcDbSymbolTableRecord
100
AcDbLinetypeTableRecord
  2
DOTX2
 70
    0
  3
Dot (2x) .  .  .  .  .  .  .  .  .  .  .  .  .
 72
   65
 73
    2
 40
12.7
 49
0
 74
    0
 49
-12.7
 74
    0
  0
LTYPE
  5
36
330
5
100
AcDbSymbolTableRecord
100
AcDbLinetypeTableRecord
  2
DASHED
 70
    0
  3
Dashed _ _ _ _ _ _ _ _ _ _ _ _ _ _ _ _ _
 72
   65
 73
    2
 40
19.05
 49
12.7
 74
    0
 49
-6.35
 74
    0
  0
LTYPE
  5
37
330
5
100
AcDbSymbolTableRecord
100
AcDbLinetypeTableRecord
  2
DASHEDTINY
 70
    0
  3
Dashed (.15x) _ _ _ _ _ _ _ _ _ _ _ _ _ _ _ _ _
 72
   65
 73
    2
 40
2.8575
 49
1.905
 74
    0
 49
-0.9525
 74
    0
  0
LTYPE
  5
38
330
5
100
AcDbSymbolTableRecord
100
AcDbLinetypeTableRecord
  2
DASHED2
 70
    0
  3
Dashed (.5x) _ _ _ _ _ _ _ _ _ _ _ _ _ _ _ _ _
 72
   65
 73
    2
 40
9.524999999999999
 49
6.35
 74
    0
 49
-3.175
 74
    0
  0
LTYPE
  5
39
330
5
100
AcDbSymbolTableRecord
100
AcDbLinetypeTableRecord
  2
DASHEDX2
 70
    0
  3
Dashed (2x) ____  ____  ____  ____  ____  ___
 72
   65
 73
    2
 40
38.09999999999999
 49
25.4
 74
    0
 49
-12.7
 74
    0
  0
LTYPE
  5
3A
330
5
100
AcDbSymbolTableRecord
100
AcDbLinetypeTableRecord
  2
DASHDOT
 70
    0
  3
Dash dot __ . __ . __ . __ . __ . __ . __ . __
 72
   65
 73
    4
 40
25.4
 49
12.7
 74
    0
 49
-6.35
 74
    0
 49
0
 74
    0
 49
-6.35
 74
    0
  0
LTYPE
  5
3B
330
5
100
AcDbSymbolTableRecord
100
AcDbLinetypeTableRecord
  2
DASHDOTTINY
 70
    0
  3
Dash dot (.15x) _._._._._._._._._._._._._._._.
 72
   65
 73
    4
 40
3.81
 49
1.905
 74
    0
 49
-0.9525
 74
    0
 49
0
 74
    0
 49
-0.9525
 74
    0
  0
LTYPE
  5
3C
330
5
100
AcDbSymbolTableRecord
100
AcDbLinetypeTableRecord
  2
DASHDOT2
 70
    0
  3
Dash dot (.5x) _._._._._._._._._._._._._._._.
 72
   65
 73
    4
 40
12.7
 49
6.35
 74
    0
 49
-3.175
 74
    0
 49
0
 74
    0
 49
-3.175
 74
    0
  0
LTYPE
  5
3D
330
5
100
AcDbSymbolTableRecord
100
AcDbLinetypeTableRecord
  2
DASHDOTX2
 70
    0
  3
Dash dot (2x) ____  .  ____  .  ____  .  ___
 72
   65
 73
    4
 40
50.8
 49
25.4
 74
    0
 49
-12.7
 74
    0
 49
0
 74
    0
 49
-12.7
 74
    0
  0
LTYPE
  5
3E
330
5
100
AcDbSymbolTableRecord
100
AcDbLinetypeTableRecord
  2
DIVIDE
 70
    0
  3
Divide ____ . . ____ . . ____ . . ____ . . ____
 72
   65
 73
    6
 40
31.75
 49
12.7
 74
    0
 49
-6.35
 74
    0
 49
0
 74
    0
 49
-6.35
 74
    0
 49
0
 74
    0
 49
-6.35
 74
    0
  0
LTYPE
  5
3F
330
5
100
AcDbSymbolTableRecord
100
AcDbLinetypeTableRecord
  2
DIVIDETINY
 70
    0
  3
Divide (.15x) __..__..__..__..__..__..__..__.._
 72
   65
 73
    6
 40
4.7625
 49
1.905
 74
    0
 49
-0.9525
 74
    0
 49
0
 74
    0
 49
-0.9525
 74
    0
 49
0
 74
    0
 49
-0.9525
 74
    0
  0
LTYPE
  5
40
330
5
100
AcDbSymbolTableRecord
100
AcDbLinetypeTableRecord
  2
DIVIDE2
 70
    0
  3
Divide (.5x) __..__..__..__..__..__..__..__.._
 72
   65
 73
    6
 40
15.875
 49
6.35
 74
    0
 49
-3.175
 74
    0
 49
0
 74
    0
 49
-3.175
 74
    0
 49
0
 74
    0
 49
-3.175
 74
    0
  0
LTYPE
  5
41
330
5
100
AcDbSymbolTableRecord
100
AcDbLinetypeTableRecord
  2
DIVIDEX2
 70
    0
  3
Divide (2x) ________  .  .  ________  .  .  _
 72
   65
 73
    6
 40
63.5
 49
25.4
 74
    0
 49
-12.7
 74
    0
 49
0
 74
    0
 49
-12.7
 74
    0
 49
0
 74
    0
 49
-12.7
 74
    0
  0
LTYPE
  5
42
330
5
100
AcDbSymbolTableRecord
100
AcDbLinetypeTableRecord
  2
BORDER
 70
    0
  3
Border __ __ . __ __ . __ __ . __ __ . __ __ .
 72
   65
 73
    6
 40
44.45
 49
12.7
 74
    0
 49
-6.35
 74
    0
 49
12.7
 74
    0
 49
-6.35
 74
    0
 49
0
 74
    0
 49
-6.35
 74
    0
  0
LTYPE
  5
43
330
5
100
AcDbSymbolTableRecord
100
AcDbLinetypeTableRecord
  2
BORDERTINY
 70
    0
  3
Border (.15x) __.__.__.__.__.__.__.__.__.__.__.
 72
   65
 73
    6
 40
6.6675
 49
1.905
 74
    0
 49
-0.9525
 74
    0
 49
1.905
 74
    0
 49
-0.9525
 74
    0
 49
0
 74
    0
 49
-0.9525
 74
    0
  0
LTYPE
  5
44
330
5
100
AcDbSymbolTableRecord
100
AcDbLinetypeTableRecord
  2
BORDER2
 70
    0
  3
Border (.5x) __.__.__.__.__.__.__.__.__.__.__.
 72
   65
 73
    6
 40
22.225
 49
6.35
 74
    0
 49
-3.175
 74
    0
 49
6.35
 74
    0
 49
-3.175
 74
    0
 49
0
 74
    0
 49
-3.175
 74
    0
  0
LTYPE
  5
45
330
5
100
AcDbSymbolTableRecord
100
AcDbLinetypeTableRecord
  2
BORDERX2
 70
    0
  3
Border (2x) ____  ____  .  ____  ____  .  ___
 72
   65
 73
    6
 40
88.89999999999999
 49
25.4
 74
    0
 49
-12.7
 74
    0
 49
25.4
 74
    0
 49
-12.7
 74
    0
 49
0
 74
    0
 49
-12.7
 74
    0
  0
LTYPE
  5
46
330
5
100
AcDbSymbolTableRecord
100
AcDbLinetypeTableRecord
  2
CENTER
 70
    0
  3
Center ____ _ ____ _ ____ _ ____ _ ____ _ ____
 72
   65
 73
    4
 40
50.8
 49
31.75
 74
    0
 49
-6.35
 74
    0
 49
6.35
 74
    0
 49
-6.35
 74
    0
  0
LTYPE
  5
47
330
5
100
AcDbSymbolTableRecord
100
AcDbLinetypeTableRecord
  2
CENTERTINY
 70
    0
  3
Center (.15x) ___ _ ___ _ ___ _ ___ _ ___ _ ___
 72
   65
 73
    4
 40
7.62
 49
4.7625
 74
    0
 49
-0.9525
 74
    0
 49
0.9525
 74
    0
 49
-0.9525
 74
    0
  0
LTYPE
  5
48
330
5
100
AcDbSymbolTableRecord
100
AcDbLinetypeTableRecord
  2
CENTER2
 70
    0
  3
Center (.5x) ___ _ ___ _ ___ _ ___ _ ___ _ ___
 72
   65
 73
    4
 40
28.575
 49
19.05
 74
    0
 49
-3.175
 74
    0
 49
3.175
 74
    0
 49
-3.175
 74
    0
  0
LTYPE
  5
49
330
5
100
AcDbSymbolTableRecord
100
AcDbLinetypeTableRecord
  2
CENTERX2
 70
    0
  3
Center (2x) ________  __  ________  __  _____
 72
   65
 73
    4
 40
101.6
 49
63.5
 74
    0
 49
-12.7
 74
    0
 49
12.7
 74
    0
 49
-12.7
 74
    0
  0
ENDTAB
  0
TABLE
  2
LAYER
  5
2
330
0
100
AcDbSymbolTable
 70
    1
  0
LAYER
  5
10
330
2
100
AcDbSymbolTableRecord
100
AcDbLayerTableRecord
  2
0
 70
    0
 62
    7
  6
CONTINUOUS
370
   -3
390
F
  0
ENDTAB
  0
TABLE
  2
STYLE
  5
3
330
0
100
AcDbSymbolTable
 70
    3
  0
STYLE
  5
4A
330
2
100
AcDbSymbolTableRecord
100
AcDbTextStyleTableRecord
  2
Standard
 70
    0
 40
0
 41
1
 50
0
 71
    0
 42
1
  3
txt
  4

  0
ENDTAB
  0
TABLE
  2
VIEW
  5
6
330
0
100
AcDbSymbolTable
 70
    0
  0
ENDTAB
  0
TABLE
  2
UCS
  5
7
330
0
100
AcDbSymbolTable
 70
    0
  0
ENDTAB
  0
TABLE
  2
APPID
  5
9
330
0
100
AcDbSymbolTable
 70
    1
  0
APPID
  5
12
330
9
100
AcDbSymbolTableRecord
100
AcDbRegAppTableRecord
  2
ACAD
 70
    0
  0
APPID
  5
4B
330
9
100
AcDbSymbolTableRecord
100
AcDbRegAppTableRecord
  2
LibreCad
 70
    0
  0
ENDTAB
  0
TABLE
  2
DIMSTYLE
  5
A
330
0
100
AcDbSymbolTable
 70
    1
100
AcDbDimStyleTable
 71
    1
  0
DIMSTYLE
105
4C
330
A
100
AcDbSymbolTableRecord
100
AcDbDimStyleTableRecord
  2
Standard
 70
    0
 40
2.5
 41
2.5
 42
0.625
 43
0.38
 44
1.25
 45
0
 46
0
 47
0
 48
0
 49
1
140
2.5
141
0.09
142
0
143
25.4
144
1
145
0
146
1
147
0.625
148
0
 71
    0
 72
    0
 73
    0
 74
    1
 75
    0
 76
    0
 77
    0
 78
    8
 79
    0
170
    0
171
    2
172
    0
173
    0
174
    0
175
    0
176
    0
177
    0
178
    0
179
    0
271
    2
272
    4
273
    2
274
    2
275
    0
276
    0
277
    2
278
   44
279
    0
280
    0
281
    0
282
    0
283
    1
284
    0
285
    0
286
    0
288
    0
289
    3
340
STANDARD
341

371
   -2
372
   -2
  0
ENDTAB
  0
TABLE
  2
BLOCK_RECORD
  5
1
330
0
100
AcDbSymbolTable
 70
    2
  0
BLOCK_RECORD
  5
1F
330
1
100
AcDbSymbolTableRecord
100
AcDbBlockTableRecord
  2
*Model_Space
 70
    0
280
    1
281
    0
  0
BLOCK_RECORD
  5
1E
330
1
100
AcDbSymbolTableRecord
100
AcDbBlockTableRecord
  2
*Paper_Space
 70
    0
280
    1
281
    0
  0
ENDTAB
  0
ENDSEC
  0
SECTION
  2
BLOCKS
  0
BLOCK
  5
20
330
1F
100
AcDbEntity
  8
0
100
AcDbBlockBegin
  2
*Model_Space
 70
    0
 10
0
 20
0
 30
0
  3
*Model_Space
  1

  0
ENDBLK
  5
21
330
1F
100
AcDbEntity
  8
0
100
AcDbBlockEnd
  0
BLOCK
  5
1C
330
1B
100
AcDbEntity
  8
0
100
AcDbBlockBegin
  2
*Paper_Space
 70
    0
 10
0
 20
0
 30
0
  3
*Paper_Space
  1

  0
ENDBLK
  5
1D
330
1F
100
AcDbEntity
  8
0
100
AcDbBlockEnd
  0
ENDSEC
  0
SECTION
  2
ENTITIES
  0
LWPOLYLINE
  5
4D
100
AcDbEntity
  8
0
  6
ByLayer
 62
  256
370
   -1
100
AcDbPolyline
 90
    4
 70
    1
 43
0
 10
237.1465296268922
 20
-64.69962101503594
 10
234.7328241289878
 20
-51.01078475091327
 10
248.4216607295456
 20
-48.59707958944397
 10
250.8357184749972
 20
-62.28591585356664
  0
SPLINE
  5
4E
100
AcDbEntity
  8
0
  6
ByLayer
 62
  256
370
   -1
100
AcDbSpline
210
0
220
0
230
0
 70
    8
 71
    3
 72
    8
 73
    4
 74
    0
 42
1e-007
 43
1e-007
 40
0
 40
0
 40
0
 40
0
 40
1
 40
1
 40
1
 40
1
 10
234.3112548027418
 20
-63.39257940796013
 30
0
 10
233.7037714415319
 20
-63.39257940796013
 30
0
 10
233.2112937083639
 20
-62.89974892259217
 30
0
 10
233.2112937083639
 20
-62.29261831358212
 30
0
  0
SPLINE
  5
4F
100
AcDbEntity
  8
0
  6
ByLayer
 62
  256
370
   -1
100
AcDbSpline
210
0
220
0
230
0
 70
    8
 71
    3
 72
    8
 73
    4
 74
    0
 42
1e-007
 43
1e-007
 40
0
 40
0
 40
0
 40
0
 40
1
 40
1
 40
1
 40
1
 10
233.2112937083639
 20
-62.29261831358212
 30
0
 10
233.2112937083639
 20
-61.68478236838985
 30
0
 10
233.7037714415319
 20
-61.19265721920412
 30
0
 10
234.3112548027418
 20
-61.19265721920412
 30
0
  0
SPLINE
  5
50
100
AcDbEntity
  8
0
  6
ByLayer
 62
  256
370
   -1
100
AcDbSpline
210
0
220
0
230
0
 70
    8
 71
    3
 72
    8
 73
    4
 74
    0
 42
1e-007
 43
1e-007
 40
0
 40
0
 40
0
 40
0
 40
1
 40
1
 40
1
 40
1
 10
234.3112548027418
 20
-61.19265721920412
 30
0
 10
234.9187381639518
 20
-61.19265721920412
 30
0
 10
235.4112158971199
 20
-61.68478236838985
 30
0
 10
235.4112158971199
 20
-62.29261831358212
 30
0
  0
SPLINE
  5
51
100
AcDbEntity
  8
0
  6
ByLayer
 62
  256
370
   -1
100
AcDbSpline
210
0
220
0
230
0
 70
    8
 71
    3
 72
    8
 73
    4
 74
    0
 42
1e-007
 43
1e-007
 40
0
 40
0
 40
0
 40
0
 40
1
 40
1
 40
1
 40
1
 10
235.4112158971199
 20
-62.29261831358212
 30
0
 10
235.4112158971199
 20
-62.89974875437462
 30
0
 10
234.9187381639518
 20
-63.39257940796013
 30
0
 10
234.3112548027418
 20
-63.39257940796013
 30
0
  0
LWPOLYLINE
  5
52
100
AcDbEntity
  8
0
  6
ByLayer
 62
  256
370
   -1
100
AcDbPolyline
 90
    4
 70
    1
 43
0
 10
217.7783244048189
 20
-64.56062663933479
 10
215.3646192433496
 20
-50.87214388439095
 10
229.0534555074723
 20
-48.45843872292166
 10
231.4671606689415
 20
-62.14727498704434
  0
LWPOLYLINE
  5
53
100
AcDbEntity
  8
0
  6
ByLayer
 62
  256
370
   -1
100
AcDbPolyline
 90
    4
 70
    1
 43
0
 10
212.0566211456601
 20
-32.11142202352755
 10
225.7454574097828
 20
-29.69771551631787
 10
228.1591625712521
 20
-43.38655178044056
 10
214.470324961389
 20
-45.80025694190984
  0
LWPOLYLINE
  5
54
100
AcDbEntity
  8
0
  6
ByLayer
 62
  256
370
   -1
100
AcDbPolyline
 90
    4
 70
    1
 43
0
 10
198.4097665987632
 20
-64.42198400652819
 10
195.9964126755358
 20
-50.73314774240552
 10
209.6848936641954
 20
-48.31944258093622
 10
212.0986001714051
 20
-62.0082788450589
  0
LWPOLYLINE
  5
55
100
AcDbEntity
  8
0
  6
ByLayer
 62
  256
370
   -1
100
AcDbPolyline
 90
    4
 70
    1
 43
0
 10
196.809565540644
 20
-84.53490312040444
 10
182.9097683214072
 20
-84.53490312040444
 10
182.9097683214072
 20
-70.63475331718526
 10
196.809565540644
 20
-70.63475331718526
  0
LWPOLYLINE
  5
56
100
AcDbEntity
  8
0
  6
ByLayer
 62
  256
370
   -1
100
AcDbPolyline
 90
    4
 70
    1
 43
0
 10
179.0419112691914
 20
-64.2844008919529
 10
176.6282074534624
 20
-50.59556462783023
 10
190.317046409066
 20
-48.18185946636093
 10
192.7307529162756
 20
-61.87034180076088
  0
SPLINE
  5
57
100
AcDbEntity
  8
0
  6
ByLayer
 62
  256
370
   -1
100
AcDbSpline
210
0
220
0
230
0
 70
    8
 71
    3
 72
    8
 73
    4
 74
    0
 42
1e-007
 43
1e-007
 40
0
 40
0
 40
0
 40
0
 40
1
 40
1
 40
1
 40
1
 10
175.6072641976004
 20
-74.66523973125634
 30
0
 10
174.9997808363905
 20
-74.66523973125634
 30
0
 10
174.5069491734997
 20
-74.17311458207061
 30
0
 10
174.5069491734997
 20
-73.56527863687832
 30
0
  0
SPLINE
  5
58
100
AcDbEntity
  8
0
  6
ByLayer
 62
  256
370
   -1
100
AcDbSpline
210
0
220
0
230
0
 70
    8
 71
    3
 72
    8
 73
    4
 74
    0
 42
1e-007
 43
1e-007
 40
0
 40
0
 40
0
 40
0
 40
1
 40
1
 40
1
 40
1
 10
174.5069491734997
 20
-73.56527863687832
 30
0
 10
174.5069491734997
 20
-72.95779527566837
 30
0
 10
174.9997808363905
 20
-72.46531754250032
 30
0
 10
175.6072641976004
 20
-72.46531754250032
 30
0
  0
SPLINE
  5
59
100
AcDbEntity
  8
0
  6
ByLayer
 62
  256
370
   -1
100
AcDbSpline
210
0
220
0
230
0
 70
    8
 71
    3
 72
    8
 73
    4
 74
    0
 42
1e-007
 43
1e-007
 40
0
 40
0
 40
0
 40
0
 40
1
 40
1
 40
1
 40
1
 10
175.6072641976004
 20
-72.46531754250032
 30
0
 10
176.2147475588104
 20
-72.46531754250032
 30
0
 10
176.7072239462381
 20
-72.95779527566837
 30
0
 10
176.7072239462381
 20
-73.56527863687832
 30
0
  0
SPLINE
  5
5A
100
AcDbEntity
  8
0
  6
ByLayer
 62
  256
370
   -1
100
AcDbSpline
210
0
220
0
230
0
 70
    8
 71
    3
 72
    8
 73
    4
 74
    0
 42
1e-007
 43
1e-007
 40
0
 40
0
 40
0
 40
0
 40
1
 40
1
 40
1
 40
1
 10
176.7072239462381
 20
-73.56527863687832
 30
0
 10
176.7072239462381
 20
-74.17311458207061
 30
0
 10
176.2147475588104
 20
-74.66523973125634
 30
0
 10
175.6072641976004
 20
-74.66523973125634
 30
0
  0
LWPOLYLINE
  5
5B
100
AcDbEntity
  8
0
  6
ByLayer
 62
  256
370
   -1
100
AcDbPolyline
 90
    4
 70
    1
 43
0
 10
160.1697109658499
 20
-97.25360051989168
 10
156.5720839670319
 20
-83.82758466257604
 10
169.9984550998107
 20
-80.22960373403532
 10
173.5957322061271
 20
-93.65632610505601
  0
LWPOLYLINE
  5
5C
100
AcDbEntity
  8
0
  6
ByLayer
 62
  256
370
   -1
100
AcDbPolyline
 90
    4
 70
    1
 43
0
 10
142.7361448208108
 20
-77.79296715630987
 10
140.3220911125803
 20
-64.1041308921872
 10
154.0112799606853
 20
-61.6904253942828
 10
156.4249837764142
 20
-75.37890806511784
  0
LINE
  5
5D
100
AcDbEntity
  8
0
  6
ByLayer
 62
  256
370
   -1
100
AcDbLine
 10
146.3471753939193
 20
-94.65433256170037
 11
145.512148864502
 21
-94.65433256170037
  0
LINE
  5
5E
100
AcDbEntity
  8
0
  6
ByLayer
 62
  256
370
   -1
100
AcDbLine
 10
145.512148864502
 20
-94.65433256170037
 11
145.512148864502
 21
-98.52395253382787
  0
SPLINE
  5
5F
100
AcDbEntity
  8
0
  6
ByLayer
 62
  256
370
   -1
100
AcDbSpline
210
0
220
0
230
0
 70
    8
 71
    3
 72
    8
 73
    4
 74
    0
 42
1e-007
 43
1e-007
 40
0
 40
0
 40
0
 40
0
 40
1
 40
1
 40
1
 40
1
 10
145.512148864502
 20
-98.52395253382787
 30
0
 10
145.512148864502
 20
-98.66188823238551
 30
0
 10
145.4003232210031
 20
-98.77407184282825
 30
0
 10
145.26202417254
 20
-98.77407184282825
 30
0
  0
LINE
  5
60
100
AcDbEntity
  8
0
  6
ByLayer
 62
  256
370
   -1
100
AcDbLine
 10
145.26202417254
 20
-98.77407184282825
 11
138.4467103679066
 21
-98.77407184282825
  0
SPLINE
  5
61
100
AcDbEntity
  8
0
  6
ByLayer
 62
  256
370
   -1
100
AcDbSpline
210
0
220
0
230
0
 70
    8
 71
    3
 72
    8
 73
    4
 74
    0
 42
1e-007
 43
1e-007
 40
0
 40
0
 40
0
 40
0
 40
1
 40
1
 40
1
 40
1
 10
138.4467103679066
 20
-98.77407184282825
 30
0
 10
138.3084220853666
 20
-98.77407184282825
 30
0
 10
138.1965856759447
 20
-98.66188823238551
 30
0
 10
138.1965856759447
 20
-98.52395253382787
 30
0
  0
LINE
  5
62
100
AcDbEntity
  8
0
  6
ByLayer
 62
  256
370
   -1
100
AcDbLine
 10
138.1965856759447
 20
-98.52395253382787
 11
138.1965856759447
 21
-97.06486312158819
  0
LINE
  5
63
100
AcDbEntity
  8
0
  6
ByLayer
 62
  256
370
   -1
100
AcDbLine
 10
138.1965856759447
 20
-97.06486312158819
 11
136.6817556967256
 21
-97.06486312158822
  0
LINE
  5
64
100
AcDbEntity
  8
0
  6
ByLayer
 62
  256
370
   -1
100
AcDbLine
 10
136.6817556967256
 20
-97.06486312158822
 11
136.6817556967256
 21
-99.0012597355725
  0
LINE
  5
65
100
AcDbEntity
  8
0
  6
ByLayer
 62
  256
370
   -1
100
AcDbLine
 10
136.6817556967256
 20
-99.0012597355725
 11
122.775262073305
 21
-99.0012597355725
  0
LINE
  5
66
100
AcDbEntity
  8
0
  6
ByLayer
 62
  256
370
   -1
100
AcDbLine
 10
122.775262073305
 20
-99.0012597355725
 11
122.775262073305
 21
-97.06486312158822
  0
LINE
  5
67
100
AcDbEntity
  8
0
  6
ByLayer
 62
  256
370
   -1
100
AcDbLine
 10
122.775262073305
 20
-97.06486312158822
 11
121.2604320940859
 21
-97.06486312158822
  0
LINE
  5
68
100
AcDbEntity
  8
0
  6
ByLayer
 62
  256
370
   -1
100
AcDbLine
 10
121.2604320940859
 20
-97.06486312158822
 11
121.2604320940859
 21
-98.52395253382788
  0
SPLINE
  5
69
100
AcDbEntity
  8
0
  6
ByLayer
 62
  256
370
   -1
100
AcDbSpline
210
0
220
0
230
0
 70
    8
 71
    3
 72
    8
 73
    4
 74
    0
 42
1e-007
 43
1e-007
 40
0
 40
0
 40
0
 40
0
 40
1
 40
1
 40
1
 40
1
 10
121.2604320940859
 20
-98.52395253382787
 30
0
 10
121.2604320940859
 20
-98.66188823238551
 30
0
 10
121.1486064505871
 20
-98.77407184282825
 30
0
 10
121.010307402124
 20
-98.77407184282825
 30
0
  0
LINE
  5
6A
100
AcDbEntity
  8
0
  6
ByLayer
 62
  256
370
   -1
100
AcDbLine
 10
121.010307402124
 20
-98.77407184282825
 11
114.185465755525
 21
-98.77407184282825
  0
SPLINE
  5
6B
100
AcDbEntity
  8
0
  6
ByLayer
 62
  256
370
   -1
100
AcDbSpline
210
0
220
0
230
0
 70
    8
 71
    3
 72
    8
 73
    4
 74
    0
 42
1e-007
 43
1e-007
 40
0
 40
0
 40
0
 40
0
 40
1
 40
1
 40
1
 40
1
 10
114.185465755525
 20
-98.77407184282825
 30
0
 10
114.0475327484481
 20
-98.77407184282825
 30
0
 10
113.935341063563
 20
-98.66188823238551
 30
0
 10
113.935341063563
 20
-98.52395253382787
 30
0
  0
LINE
  5
6C
100
AcDbEntity
  8
0
  6
ByLayer
 62
  256
370
   -1
100
AcDbLine
 10
113.935341063563
 20
-98.52395253382787
 11
113.935341063563
 21
-94.65433256170037
  0
LINE
  5
6D
100
AcDbEntity
  8
0
  6
ByLayer
 62
  256
370
   -1
100
AcDbLine
 10
113.935341063563
 20
-94.65433256170037
 11
113.1003145341457
 21
-94.65433256170037
  0
LINE
  5
6E
100
AcDbEntity
  8
0
  6
ByLayer
 62
  256
370
   -1
100
AcDbLine
 10
113.1003145341457
 20
-94.65433256170037
 11
113.1003145341457
 21
-89.76447988463707
  0
LINE
  5
6F
100
AcDbEntity
  8
0
  6
ByLayer
 62
  256
370
   -1
100
AcDbLine
 10
113.1003145341457
 20
-89.76447988463707
 11
113.935341063563
 21
-89.76447988463707
  0
LINE
  5
70
100
AcDbEntity
  8
0
  6
ByLayer
 62
  256
370
   -1
100
AcDbLine
 10
113.935341063563
 20
-89.76447988463707
 11
113.935341063563
 21
-84.00890972280803
  0
SPLINE
  5
71
100
AcDbEntity
  8
0
  6
ByLayer
 62
  256
370
   -1
100
AcDbSpline
210
0
220
0
230
0
 70
    8
 71
    3
 72
    8
 73
    4
 74
    0
 42
1e-007
 43
1e-007
 40
0
 40
0
 40
0
 40
0
 40
1
 40
1
 40
1
 40
1
 10
113.935341063563
 20
-84.00890972280803
 30
0
 10
113.935341063563
 20
-83.73303697995235
 30
0
 10
114.159358391947
 20
-83.5090236887896
 30
0
 10
114.4355796815638
 20
-83.5090236887896
 30
0
  0
LINE
  5
72
100
AcDbEntity
  8
0
  6
ByLayer
 62
  256
370
   -1
100
AcDbLine
 10
114.4355796815638
 20
-83.5090236887896
 11
120.760527219702
 21
-83.5090236887896
  0
SPLINE
  5
73
100
AcDbEntity
  8
0
  6
ByLayer
 62
  256
370
   -1
100
AcDbSpline
210
0
220
0
230
0
 70
    8
 71
    3
 72
    8
 73
    4
 74
    0
 42
1e-007
 43
1e-007
 40
0
 40
0
 40
0
 40
0
 40
1
 40
1
 40
1
 40
1
 10
120.760527219702
 20
-83.5090236887896
 30
0
 10
121.0364039997789
 20
-83.5090236887896
 30
0
 10
121.2604105622397
 20
-83.73303697995235
 30
0
 10
121.2604105622397
 20
-84.00890972280803
 30
0
  0
LINE
  5
74
100
AcDbEntity
  8
0
  6
ByLayer
 62
  256
370
   -1
100
AcDbLine
 10
121.2604105622397
 20
-84.00890972280803
 11
121.2604105622397
 21
-85.79396571820371
  0
LINE
  5
75
100
AcDbEntity
  8
0
  6
ByLayer
 62
  256
370
   -1
100
AcDbLine
 10
121.2604105622397
 20
-85.79396571820371
 11
122.7738302055294
 21
-85.79396571820371
  0
LINE
  5
76
100
AcDbEntity
  8
0
  6
ByLayer
 62
  256
370
   -1
100
AcDbLine
 10
122.7738302055294
 20
-85.79396571820371
 11
122.7738302055294
 21
-85.0958184811374
  0
LINE
  5
77
100
AcDbEntity
  8
0
  6
ByLayer
 62
  256
370
   -1
100
AcDbLine
 10
122.7738302055294
 20
-85.0958184811374
 11
136.6831552667318
 21
-85.0958184811374
  0
LINE
  5
78
100
AcDbEntity
  8
0
  6
ByLayer
 62
  256
370
   -1
100
AcDbLine
 10
136.6831552667318
 20
-85.0958184811374
 11
136.6831552667318
 21
-85.79396571820371
  0
LINE
  5
79
100
AcDbEntity
  8
0
  6
ByLayer
 62
  256
370
   -1
100
AcDbLine
 10
136.6831552667318
 20
-85.79396571820371
 11
138.1965749100216
 21
-85.79396571820371
  0
LINE
  5
7A
100
AcDbEntity
  8
0
  6
ByLayer
 62
  256
370
   -1
100
AcDbLine
 10
138.1965749100216
 20
-85.79396571820371
 11
138.1965749100216
 21
-84.00890972280803
  0
SPLINE
  5
7B
100
AcDbEntity
  8
0
  6
ByLayer
 62
  256
370
   -1
100
AcDbSpline
210
0
220
0
230
0
 70
    8
 71
    3
 72
    8
 73
    4
 74
    0
 42
1e-007
 43
1e-007
 40
0
 40
0
 40
0
 40
0
 40
1
 40
1
 40
1
 40
1
 10
138.1965749100216
 20
-84.00890972280803
 30
0
 10
138.1965749100216
 20
-83.73303697995235
 30
0
 10
138.4205922384055
 20
-83.5090236887896
 30
0
 10
138.6968135280223
 20
-83.5090236887896
 30
0
  0
LINE
  5
7C
100
AcDbEntity
  8
0
  6
ByLayer
 62
  256
370
   -1
100
AcDbLine
 10
138.6968135280223
 20
-83.5090236887896
 11
145.011888714655
 21
-83.5090236887896
  0
SPLINE
  5
7D
100
AcDbEntity
  8
0
  6
ByLayer
 62
  256
370
   -1
100
AcDbSpline
210
0
220
0
230
0
 70
    8
 71
    3
 72
    8
 73
    4
 74
    0
 42
1e-007
 43
1e-007
 40
0
 40
0
 40
0
 40
0
 40
1
 40
1
 40
1
 40
1
 10
145.011888714655
 20
-83.5090236887896
 30
0
 10
145.2881100042718
 20
-83.5090236887896
 30
0
 10
145.5121273326557
 20
-83.73303697995235
 30
0
 10
145.5121273326557
 20
-84.00890972280803
 30
0
  0
LINE
  5
7E
100
AcDbEntity
  8
0
  6
ByLayer
 62
  256
370
   -1
100
AcDbLine
 10
145.5121273326557
 20
-84.00890972280803
 11
145.5121273326557
 21
-89.76448257611786
  0
LINE
  5
7F
100
AcDbEntity
  8
0
  6
ByLayer
 62
  256
370
   -1
100
AcDbLine
 10
145.5121273326557
 20
-89.76448257611786
 11
146.347153862073
 21
-89.76448257611786
  0
LINE
  5
80
100
AcDbEntity
  8
0
  6
ByLayer
 62
  256
370
   -1
100
AcDbLine
 10
146.347153862073
 20
-89.76448257611786
 11
146.3471753939193
 21
-94.65433256170037
  0
LWPOLYLINE
  5
81
100
AcDbEntity
  8
0
  6
ByLayer
 62
  256
370
   -1
100
AcDbPolyline
 90
    4
 70
    1
 43
0
 10
103.0218386644171
 20
-75.37890806511786
 10
105.4355478631076
 20
-61.69042573071791
 10
119.124386818711
 20
-64.10413122862229
 10
116.7103331104805
 20
-77.79296715630989
  0
LWPOLYLINE
  5
82
100
AcDbEntity
  8
0
  6
ByLayer
 62
  256
370
   -1
100
AcDbPolyline
 90
    4
 70
    1
 43
0
 10
99.27321959377167
 20
-97.25218749248155
 10
85.84685384395445
 20
-93.65491307764587
 10
89.44412556730933
 20
-80.22854463634789
 10
102.8708465925897
 20
-83.82617163516591
  0
SPLINE
  5
83
100
AcDbEntity
  8
0
  6
ByLayer
 62
  256
370
   -1
100
AcDbSpline
210
0
220
0
230
0
 70
    8
 71
    3
 72
    8
 73
    4
 74
    0
 42
1e-007
 43
1e-007
 40
0
 40
0
 40
0
 40
0
 40
1
 40
1
 40
1
 40
1
 10
83.82507807662778
 20
-74.66523771264575
 30
0
 10
83.21760009837939
 20
-74.66523771264575
 30
0
 10
82.7251129450286
 20
-74.17311256346002
 30
0
 10
82.7251129450286
 20
-73.56527661826775
 30
0
  0
SPLINE
  5
84
100
AcDbEntity
  8
0
  6
ByLayer
 62
  256
370
   -1
100
AcDbSpline
210
0
220
0
230
0
 70
    8
 71
    3
 72
    8
 73
    4
 74
    0
 42
1e-007
 43
1e-007
 40
0
 40
0
 40
0
 40
0
 40
1
 40
1
 40
1
 40
1
 10
82.7251129450286
 20
-73.56527661826775
 30
0
 10
82.7251129450286
 20
-72.9577932570578
 30
0
 10
83.21758933245627
 20
-72.46531552388973
 30
0
 10
83.82507807662778
 20
-72.46531552388973
 30
0
  0
SPLINE
  5
85
100
AcDbEntity
  8
0
  6
ByLayer
 62
  256
370
   -1
100
AcDbSpline
210
0
220
0
230
0
 70
    8
 71
    3
 72
    8
 73
    4
 74
    0
 42
1e-007
 43
1e-007
 40
0
 40
0
 40
0
 40
0
 40
1
 40
1
 40
1
 40
1
 10
83.82507807662778
 20
-72.46531552388973
 30
0
 10
84.43255605487616
 20
-72.46531552388973
 30
0
 10
84.92504320822695
 20
-72.9577932570578
 30
0
 10
84.92504320822695
 20
-73.56527661826775
 30
0
  0
SPLINE
  5
86
100
AcDbEntity
  8
0
  6
ByLayer
 62
  256
370
   -1
100
AcDbSpline
210
0
220
0
230
0
 70
    8
 71
    3
 72
    8
 73
    4
 74
    0
 42
1e-007
 43
1e-007
 40
0
 40
0
 40
0
 40
0
 40
1
 40
1
 40
1
 40
1
 10
84.92504320822695
 20
-73.56527661826775
 30
0
 10
84.92504320822695
 20
-74.17311256346002
 30
0
 10
84.43256682079927
 20
-74.66523771264575
 30
0
 10
83.82507807662778
 20
-74.66523771264575
 30
0
  0
LWPOLYLINE
  5
87
100
AcDbEntity
  8
0
  6
ByLayer
 62
  256
370
   -1
100
AcDbPolyline
 90
    4
 70
    1
 43
0
 10
66.7135906707561
 20
-61.86857753510878
 10
69.12764437898657
 20
-48.1797412709861
 10
82.8161280591269
 20
-50.59344643245539
 10
80.40277413589959
 20
-64.28192876685534
  0
LWPOLYLINE
  5
88
100
AcDbEntity
  8
0
  6
ByLayer
 62
  256
370
   -1
100
AcDbPolyline
 90
    4
 70
    1
 43
0
 10
76.53351213071599
 20
-84.5373725540212
 10
62.63371491147913
 20
-84.5373725540212
 10
62.63371491147913
 20
-70.63757533478437
 10
76.53351213071599
 20
-70.63757533478439
  0
LWPOLYLINE
  5
89
100
AcDbEntity
  8
0
  6
ByLayer
 62
  256
370
   -1
100
AcDbPolyline
 90
    4
 70
    1
 43
0
 10
47.34784815359759
 20
-62.0082788450589
 10
49.76154658636494
 20
-48.31944258093621
 10
63.4503855419684
 20
-50.73314774240552
 10
61.03667634327793
 20
-64.42233659051054
  0
LWPOLYLINE
  5
8A
100
AcDbEntity
  8
0
  6
ByLayer
 62
  256
370
   -1
100
AcDbPolyline
 90
    4
 70
    1
 43
0
 10
31.28728709949099
 20
-43.38655178044054
 10
33.70098553225834
 20
-29.69771551631787
 10
47.38981372193866
 20
-32.1117746075099
 10
44.9761152891713
 20
-45.80025694190984
  0
LWPOLYLINE
  5
8B
100
AcDbEntity
  8
0
  6
ByLayer
 62
  256
370
   -1
100
AcDbPolyline
 90
    4
 70
    1
 43
0
 10
41.66813468610692
 20
-64.56097880277325
 10
27.9793064964266
 20
-62.14727330486885
 10
30.39300492919395
 20
-48.45843737718127
 10
44.08183311887427
 20
-50.87214253865056
  0
SPLINE
  5
8C
100
AcDbEntity
  8
0
  6
ByLayer
 62
  256
370
   -1
100
AcDbSpline
210
0
220
0
230
0
 70
    8
 71
    3
 72
    8
 73
    4
 74
    0
 42
1e-007
 43
1e-007
 40
0
 40
0
 40
0
 40
0
 40
1
 40
1
 40
1
 40
1
 10
25.11791791643137
 20
-63.3925788191987
 30
0
 10
24.510439938183
 20
-63.3925788191987
 30
0
 10
24.01759750936907
 20
-62.89974824972198
 30
0
 10
24.01759750936907
 20
-62.29261764071193
 30
0
  0
SPLINE
  5
8D
100
AcDbEntity
  8
0
  6
ByLayer
 62
  256
370
   -1
100
AcDbSpline
210
0
220
0
230
0
 70
    8
 71
    3
 72
    8
 73
    4
 74
    0
 42
1e-007
 43
1e-007
 40
0
 40
0
 40
0
 40
0
 40
1
 40
1
 40
1
 40
1
 10
24.01759750936907
 20
-62.29261764071193
 30
0
 10
24.01759750936907
 20
-61.68478169551964
 30
0
 10
24.51041840633674
 20
-61.19265654633392
 30
0
 10
25.11791791643137
 20
-61.19265654633392
 30
0
  0
SPLINE
  5
8E
100
AcDbEntity
  8
0
  6
ByLayer
 62
  256
370
   -1
100
AcDbSpline
210
0
220
0
230
0
 70
    8
 71
    3
 72
    8
 73
    4
 74
    0
 42
1e-007
 43
1e-007
 40
0
 40
0
 40
0
 40
0
 40
1
 40
1
 40
1
 40
1
 10
25.11791791643137
 20
-61.19265654633392
 30
0
 10
25.72539589467976
 20
-61.19265654633392
 30
0
 10
26.21787228210742
 20
-61.68478169551964
 30
0
 10
26.21787228210742
 20
-62.29261764071193
 30
0
  0
SPLINE
  5
8F
100
AcDbEntity
  8
0
  6
ByLayer
 62
  256
370
   -1
100
AcDbSpline
210
0
220
0
230
0
 70
    8
 71
    3
 72
    8
 73
    4
 74
    0
 42
1e-007
 43
1e-007
 40
0
 40
0
 40
0
 40
0
 40
1
 40
1
 40
1
 40
1
 10
26.21787228210742
 20
-62.29261764071193
 30
0
 10
26.21787228210742
 20
-62.89974808150443
 30
0
 10
25.72539589467976
 20
-63.39257873508993
 30
0
 10
25.11791791643137
 20
-63.3925788191987
 30
0
  0
LWPOLYLINE
  5
90
100
AcDbEntity
  8
0
  6
ByLayer
 62
  256
370
   -1
100
AcDbPolyline
 90
    4
 70
    1
 43
0
 10
8.611087816949345
 20
-62.28591484426136
 10
11.02478624971669
 20
-48.59707824370358
 10
24.71361443939704
 20
-51.01078340517289
 10
22.2999160066297
 20
-64.69997225327789
  0
LWPOLYLINE
  5
91
100
AcDbEntity
  8
0
  6
ByLayer
 62
  256
370
   -1
100
AcDbPolyline
 90
    4
 70
    1
 43
0
 10
14.33278838462734
 20
-29.83670896682252
 10
28.02161657430766
 20
-32.25041547403222
 10
25.6079181415403
 20
-45.93925173815489
 10
11.91908995185998
 20
-43.52554657668558
  0
LWPOLYLINE
  5
92
100
AcDbEntity
  8
0
  6
ByLayer
 62
  256
370
   -1
100
AcDbPolyline
 90
    4
 70
    1
 43
0
 10
17.64079051953794
 20
-11.07598979743991
 10
31.32961870921827
 20
-13.48969361316881
 10
28.91592027645092
 20
-27.17852987729149
 10
15.2270920867706
 20
-24.76482337008179
  0
SPLINE
  5
93
100
AcDbEntity
  8
0
  6
ByLayer
 62
  256
370
   -1
100
AcDbSpline
210
0
220
0
230
0
 70
    8
 71
    3
 72
    8
 73
    4
 74
    0
 42
1e-007
 43
1e-007
 40
0
 40
0
 40
0
 40
0
 40
1
 40
1
 40
1
 40
1
 10
33.07552846239127
 20
-24.62336183170074
 30
0
 10
33.07552846239127
 20
-25.23119777689303
 30
0
 10
32.58305207496361
 20
-25.72367685580149
 30
0
 10
31.97557409671524
 20
-25.72367685580149
 30
0
  0
SPLINE
  5
94
100
AcDbEntity
  8
0
  6
ByLayer
 62
  256
370
   -1
100
AcDbSpline
210
0
220
0
230
0
 70
    8
 71
    3
 72
    8
 73
    4
 74
    0
 42
1e-007
 43
1e-007
 40
0
 40
0
 40
0
 40
0
 40
1
 40
1
 40
1
 40
1
 10
31.97557409671524
 20
-25.72367685580149
 30
0
 10
31.3677300770806
 20
-25.72367685580149
 30
0
 10
30.87525368965291
 20
-25.23119777689303
 30
0
 10
30.87525368965291
 20
-24.62336183170074
 30
0
  0
SPLINE
  5
95
100
AcDbEntity
  8
0
  6
ByLayer
 62
  256
370
   -1
100
AcDbSpline
210
0
220
0
230
0
 70
    8
 71
    3
 72
    8
 73
    4
 74
    0
 42
1e-007
 43
1e-007
 40
0
 40
0
 40
0
 40
0
 40
1
 40
1
 40
1
 40
1
 10
30.87525368965291
 20
-24.62336183170074
 30
0
 10
30.87525368965291
 20
-24.0158784704908
 30
0
 10
31.3677300770806
 20
-23.52339939158235
 30
0
 10
31.97557409671524
 20
-23.52339939158235
 30
0
  0
SPLINE
  5
96
100
AcDbEntity
  8
0
  6
ByLayer
 62
  256
370
   -1
100
AcDbSpline
210
0
220
0
230
0
 70
    8
 71
    3
 72
    8
 73
    4
 74
    0
 42
1e-007
 43
1e-007
 40
0
 40
0
 40
0
 40
0
 40
1
 40
1
 40
1
 40
1
 10
31.97557409671524
 20
-23.52339939158235
 30
0
 10
32.58305207496361
 20
-23.52339939158235
 30
0
 10
33.07552846239127
 20
-24.0158784704908
 30
0
 10
33.07552846239127
 20
-24.62336183170074
 30
0
  0
LWPOLYLINE
  5
97
100
AcDbEntity
  8
0
  6
ByLayer
 62
  256
370
   -1
100
AcDbPolyline
 90
    4
 70
    1
 43
0
 10
37.0090091990152
 20
-10.93734623943681
 10
50.69783738869553
 20
-13.35105005516572
 10
48.28413895592817
 20
-27.0398863192884
 10
34.59531076624785
 20
-24.6261798120787
  0
LWPOLYLINE
  5
98
100
AcDbEntity
  8
0
  6
ByLayer
 62
  256
370
   -1
100
AcDbPolyline
 90
    4
 70
    1
 43
0
 10
66.75840920872527
 20
-31.97277846552446
 10
64.3447000100348
 20
-45.66161472964714
 10
50.65587182035449
 20
-43.24790956817783
 10
53.0695702531218
 20
-29.55907195831477
  0
SPLINE
  5
99
100
AcDbEntity
  8
0
  6
ByLayer
 62
  256
370
   -1
100
AcDbSpline
210
0
220
0
230
0
 70
    8
 71
    3
 72
    8
 73
    4
 74
    0
 42
1e-007
 43
1e-007
 40
0
 40
0
 40
0
 40
0
 40
1
 40
1
 40
1
 40
1
 10
68.49090462168459
 20
-43.13890055931655
 30
0
 10
68.49090462168459
 20
-43.7463839205265
 30
0
 10
67.99842823425691
 20
-44.23886165369456
 30
0
 10
67.39093949008543
 20
-44.23886165369456
 30
0
  0
SPLINE
  5
9A
100
AcDbEntity
  8
0
  6
ByLayer
 62
  256
370
   -1
100
AcDbSpline
210
0
220
0
230
0
 70
    8
 71
    3
 72
    8
 73
    4
 74
    0
 42
1e-007
 43
1e-007
 40
0
 40
0
 40
0
 40
0
 40
1
 40
1
 40
1
 40
1
 10
67.39093949008543
 20
-44.23886165369456
 30
0
 10
66.78346151183702
 20
-44.23886165369456
 30
0
 10
66.29097435848622
 20
-43.7463839205265
 30
0
 10
66.29097435848622
 20
-43.13890055931655
 30
0
  0
SPLINE
  5
9B
100
AcDbEntity
  8
0
  6
ByLayer
 62
  256
370
   -1
100
AcDbSpline
210
0
220
0
230
0
 70
    8
 71
    3
 72
    8
 73
    4
 74
    0
 42
1e-007
 43
1e-007
 40
0
 40
0
 40
0
 40
0
 40
1
 40
1
 40
1
 40
1
 10
66.29097435848622
 20
-43.13890055931655
 30
0
 10
66.29097435848622
 20
-42.53141719810661
 30
0
 10
66.78345074591391
 20
-42.03894081067894
 30
0
 10
67.39093949008543
 20
-42.03894081067894
 30
0
  0
SPLINE
  5
9C
100
AcDbEntity
  8
0
  6
ByLayer
 62
  256
370
   -1
100
AcDbSpline
210
0
220
0
230
0
 70
    8
 71
    3
 72
    8
 73
    4
 74
    0
 42
1e-007
 43
1e-007
 40
0
 40
0
 40
0
 40
0
 40
1
 40
1
 40
1
 40
1
 10
67.39093949008543
 20
-42.03894081067894
 30
0
 10
67.9984174683338
 20
-42.03894081067894
 30
0
 10
68.49090462168459
 20
-42.531418543847
 30
0
 10
68.49090462168459
 20
-43.13890055931655
 30
0
  0
LWPOLYLINE
  5
9D
100
AcDbEntity
  8
0
  6
ByLayer
 62
  256
370
   -1
100
AcDbPolyline
 90
    4
 70
    1
 43
0
 10
56.37722787849246
 20
-10.79834740597059
 10
70.06642210955903
 20
-13.2120512216995
 10
67.65271291086856
 20
-26.90088748582218
 10
53.9638739552651
 20
-24.48718097861249
  0
LWPOLYLINE
  5
9E
100
AcDbEntity
  8
0
  6
ByLayer
 62
  256
370
   -1
100
AcDbPolyline
 90
    4
 70
    1
 43
0
 10
86.12415172588378
 20
-31.83272188011122
 10
83.71079780265644
 20
-45.5215581442339
 10
70.02161433751299
 20
-43.10785298276458
 10
72.43566804574345
 20
-29.41901806438231
  0
LWPOLYLINE
  5
9F
100
AcDbEntity
  8
0
  6
ByLayer
 62
  256
370
   -1
100
AcDbPolyline
 90
    4
 70
    1
 43
0
 10
75.74367018065409
 20
-10.65864878750125
 10
89.43215386079443
 20
-13.07235260323016
 10
87.01844466210392
 20
-26.76118886735284
 10
73.32960570650049
 20
-24.34748236014315
  0
LWPOLYLINE
  5
A0
100
AcDbEntity
  8
0
  6
ByLayer
 62
  256
370
   -1
100
AcDbPolyline
 90
    4
 70
    1
 43
0
 10
100.971511668963
 20
-57.34913855482286
 10
98.55780247027255
 20
-71.03832740292789
 10
84.86896351466909
 20
-68.62426898460605
 10
87.28267271335955
 20
-54.93543272048336
  0
LWPOLYLINE
  5
A1
100
AcDbEntity
  8
0
  6
ByLayer
 62
  256
370
   -1
100
AcDbPolyline
 90
    4
 70
    1
 43
0
 10
104.2795138038736
 20
-38.58876927794181
 10
101.8658046051832
 20
-52.27760554206448
 10
88.1769656495797
 20
-49.86390038059518
 10
90.5906748482702
 20
-36.17506546221288
  0
LWPOLYLINE
  5
A2
100
AcDbEntity
  8
0
  6
ByLayer
 62
  256
370
   -1
100
AcDbPolyline
 90
    4
 70
    1
 43
0
 10
93.89867698318082
 20
-17.41434090986871
 10
107.5875159387843
 20
-19.8280474170784
 10
105.1738067400938
 20
-33.51688368120107
 10
91.48496778449035
 20
-31.10317717399138
  0
SPLINE
  5
A3
100
AcDbEntity
  8
0
  6
ByLayer
 62
  256
370
   -1
100
AcDbSpline
210
0
220
0
230
0
 70
    8
 71
    3
 72
    8
 73
    4
 74
    0
 42
1e-007
 43
1e-007
 40
0
 40
0
 40
0
 40
0
 40
1
 40
1
 40
1
 40
1
 10
108.7029947656065
 20
-34.53111976695628
 30
0
 10
108.7029947656065
 20
-35.13860312816622
 30
0
 10
108.2105183781788
 20
-35.63143479105702
 30
0
 10
107.6030296340073
 20
-35.63143479105702
 30
0
  0
SPLINE
  5
A4
100
AcDbEntity
  8
0
  6
ByLayer
 62
  256
370
   -1
100
AcDbSpline
210
0
220
0
230
0
 70
    8
 71
    3
 72
    8
 73
    4
 74
    0
 42
1e-007
 43
1e-007
 40
0
 40
0
 40
0
 40
0
 40
1
 40
1
 40
1
 40
1
 10
107.6030296340073
 20
-35.63143479105702
 30
0
 10
106.9955516557589
 20
-35.63143479105702
 30
0
 10
106.5030645024081
 20
-35.13860312816622
 30
0
 10
106.5030645024081
 20
-34.53111976695628
 30
0
  0
SPLINE
  5
A5
100
AcDbEntity
  8
0
  6
ByLayer
 62
  256
370
   -1
100
AcDbSpline
210
0
220
0
230
0
 70
    8
 71
    3
 72
    8
 73
    4
 74
    0
 42
1e-007
 43
1e-007
 40
0
 40
0
 40
0
 40
0
 40
1
 40
1
 40
1
 40
1
 10
106.5030645024081
 20
-34.53111976695628
 30
0
 10
106.5030645024081
 20
-33.92363640574634
 30
0
 10
106.9955408898358
 20
-33.43116001831867
 30
0
 10
107.6030296340073
 20
-33.43116001831867
 30
0
  0
SPLINE
  5
A6
100
AcDbEntity
  8
0
  6
ByLayer
 62
  256
370
   -1
100
AcDbSpline
210
0
220
0
230
0
 70
    8
 71
    3
 72
    8
 73
    4
 74
    0
 42
1e-007
 43
1e-007
 40
0
 40
0
 40
0
 40
0
 40
1
 40
1
 40
1
 40
1
 10
107.6030296340073
 20
-33.43116001831867
 30
0
 10
108.2105076122557
 20
-33.43116001831867
 30
0
 10
108.7029947656065
 20
-33.92363909722712
 30
0
 10
108.7029947656065
 20
-34.53111976695628
 30
0
  0
LWPOLYLINE
  5
A7
100
AcDbEntity
  8
0
  6
ByLayer
 62
  256
370
   -1
100
AcDbPolyline
 90
    4
 70
    1
 43
0
 10
122.4323997195448
 20
-45.34340633984301
 10
120.0186905208543
 20
-59.03259518794804
 10
106.3298515652508
 20
-56.61889002647874
 10
108.7432054884782
 20
-42.93005376235605
  0
LWPOLYLINE
  5
A8
100
AcDbEntity
  8
0
  6
ByLayer
 62
  256
370
   -1
100
AcDbPolyline
 90
    4
 70
    1
 43
0
 10
112.0515628988519
 20
-24.16933324723304
 10
125.7404018544554
 20
-26.58303975444274
 10
123.3266926557649
 20
-40.27187601856541
 10
109.6378537001615
 20
-37.85816951135572
  0
SPLINE
  5
A9
100
AcDbEntity
  8
0
  6
ByLayer
 62
  256
370
   -1
100
AcDbSpline
210
0
220
0
230
0
 70
    8
 71
    3
 72
    8
 73
    4
 74
    0
 42
1e-007
 43
1e-007
 40
0
 40
0
 40
0
 40
0
 40
1
 40
1
 40
1
 40
1
 10
114.3714255456622
 20
-17.90682268025794
 30
0
 10
114.923878890819
 20
-17.90682268025794
 30
0
 10
115.3715475062006
 20
-18.35449667860114
 30
0
 10
115.3715475062006
 20
-18.90695002375791
 30
0
  0
SPLINE
  5
AA
100
AcDbEntity
  8
0
  6
ByLayer
 62
  256
370
   -1
100
AcDbSpline
210
0
220
0
230
0
 70
    8
 71
    3
 72
    8
 73
    4
 74
    0
 42
1e-007
 43
1e-007
 40
0
 40
0
 40
0
 40
0
 40
1
 40
1
 40
1
 40
1
 10
115.3715475062006
 20
-18.90695002375791
 30
0
 10
115.3715475062006
 20
-19.45904809345155
 30
0
 10
114.9238681248959
 20
-19.90672209179475
 30
0
 10
114.3714255456622
 20
-19.90672209179475
 30
0
  0
SPLINE
  5
AB
100
AcDbEntity
  8
0
  6
ByLayer
 62
  256
370
   -1
100
AcDbSpline
210
0
220
0
230
0
 70
    8
 71
    3
 72
    8
 73
    4
 74
    0
 42
1e-007
 43
1e-007
 40
0
 40
0
 40
0
 40
0
 40
1
 40
1
 40
1
 40
1
 10
114.3714255456622
 20
-19.90672209179475
 30
0
 10
113.8189722005055
 20
-19.90672209179475
 30
0
 10
113.3713035851238
 20
-19.45904809345155
 30
0
 10
113.3713035851238
 20
-18.90695002375791
 30
0
  0
SPLINE
  5
AC
100
AcDbEntity
  8
0
  6
ByLayer
 62
  256
370
   -1
100
AcDbSpline
210
0
220
0
230
0
 70
    8
 71
    3
 72
    8
 73
    4
 74
    0
 42
1e-007
 43
1e-007
 40
0
 40
0
 40
0
 40
0
 40
1
 40
1
 40
1
 40
1
 10
113.3713035851238
 20
-18.90695002375791
 30
0
 10
113.3713035851238
 20
-18.35450206156271
 30
0
 10
113.8189829664286
 20
-17.90682268025794
 30
0
 10
114.3714255456622
 20
-17.90682268025794
 30
0
  0
SPLINE
  5
AD
100
AcDbEntity
  8
0
  6
ByLayer
 62
  256
370
   -1
100
AcDbSpline
210
0
220
0
230
0
 70
    8
 71
    3
 72
    8
 73
    4
 74
    0
 42
1e-007
 43
1e-007
 40
0
 40
0
 40
0
 40
0
 40
1
 40
1
 40
1
 40
1
 10
125.6172719916753
 20
-19.90671940031397
 30
0
 10
126.169370061369
 20
-19.90671940031397
 30
0
 10
126.6173939522137
 20
-20.35474598263951
 30
0
 10
126.6173939522137
 20
-20.90684405233315
 30
0
  0
SPLINE
  5
AE
100
AcDbEntity
  8
0
  6
ByLayer
 62
  256
370
   -1
100
AcDbSpline
210
0
220
0
230
0
 70
    8
 71
    3
 72
    8
 73
    4
 74
    0
 42
1e-007
 43
1e-007
 40
0
 40
0
 40
0
 40
0
 40
1
 40
1
 40
1
 40
1
 10
126.6173939522137
 20
-20.90684405233315
 30
0
 10
126.6173939522137
 20
-21.45929470600914
 30
0
 10
126.169370061369
 20
-21.90696870435233
 30
0
 10
125.6172719916753
 20
-21.90696870435233
 30
0
  0
SPLINE
  5
AF
100
AcDbEntity
  8
0
  6
ByLayer
 62
  256
370
   -1
100
AcDbSpline
210
0
220
0
230
0
 70
    8
 71
    3
 72
    8
 73
    4
 74
    0
 42
1e-007
 43
1e-007
 40
0
 40
0
 40
0
 40
0
 40
1
 40
1
 40
1
 40
1
 10
125.6172719916753
 20
-21.90696870435233
 30
0
 10
125.0651739219817
 20
-21.90696870435233
 30
0
 10
124.6174945406769
 20
-21.45929470600914
 30
0
 10
124.6174945406769
 20
-20.90684405233315
 30
0
  0
SPLINE
  5
B0
100
AcDbEntity
  8
0
  6
ByLayer
 62
  256
370
   -1
100
AcDbSpline
210
0
220
0
230
0
 70
    8
 71
    3
 72
    8
 73
    4
 74
    0
 42
1e-007
 43
1e-007
 40
0
 40
0
 40
0
 40
0
 40
1
 40
1
 40
1
 40
1
 10
124.6174945406769
 20
-20.90684405233315
 30
0
 10
124.6174945406769
 20
-20.35474598263951
 30
0
 10
125.0651739219817
 20
-19.90671940031397
 30
0
 10
125.6172719916753
 20
-19.90671940031397
 30
0
  0
LWPOLYLINE
  5
B1
100
AcDbEntity
  8
0
  6
ByLayer
 62
  256
370
   -1
100
AcDbPolyline
 90
    4
 70
    1
 43
0
 10
147.3952972227103
 20
-24.16897528028914
 10
149.8090010384392
 20
-37.85816412839417
 10
136.1201620828357
 20
-40.27151805162151
 10
133.7061083746053
 20
-26.58303706296196
  0
LWPOLYLINE
  5
B2
100
AcDbEntity
  8
0
  6
ByLayer
 62
  256
370
   -1
100
AcDbPolyline
 90
    4
 70
    1
 43
0
 10
150.7032885916978
 20
-42.92969714115254
 10
153.1169924074267
 20
-56.61853340527522
 10
139.4281534518232
 20
-59.03259182359706
 10
137.0140997435928
 20
-45.34340364836224
  0
SPLINE
  5
B3
100
AcDbEntity
  8
0
  6
ByLayer
 62
  256
370
   -1
100
AcDbSpline
210
0
220
0
230
0
 70
    8
 71
    3
 72
    8
 73
    4
 74
    0
 42
1e-007
 43
1e-007
 40
0
 40
0
 40
0
 40
0
 40
1
 40
1
 40
1
 40
1
 10
151.827945367984
 20
-33.43362541471428
 30
0
 10
152.4354287291939
 20
-33.43362541471428
 30
0
 10
152.9282603920848
 20
-33.92610449362274
 30
0
 10
152.9282603920848
 20
-34.5335851633519
 30
0
  0
SPLINE
  5
B4
100
AcDbEntity
  8
0
  6
ByLayer
 62
  256
370
   -1
100
AcDbSpline
210
0
220
0
230
0
 70
    8
 71
    3
 72
    8
 73
    4
 74
    0
 42
1e-007
 43
1e-007
 40
0
 40
0
 40
0
 40
0
 40
1
 40
1
 40
1
 40
1
 10
152.9282603920848
 20
-34.5335851633519
 30
0
 10
152.9282603920848
 20
-35.14106852456184
 30
0
 10
152.4354287291939
 20
-35.63354491198951
 30
0
 10
151.827945367984
 20
-35.63354491198951
 30
0
  0
SPLINE
  5
B5
100
AcDbEntity
  8
0
  6
ByLayer
 62
  256
370
   -1
100
AcDbSpline
210
0
220
0
230
0
 70
    8
 71
    3
 72
    8
 73
    4
 74
    0
 42
1e-007
 43
1e-007
 40
0
 40
0
 40
0
 40
0
 40
1
 40
1
 40
1
 40
1
 10
151.827945367984
 20
-35.63354491198951
 30
0
 10
151.2208172822372
 20
-35.63354491198951
 30
0
 10
150.7279856193464
 20
-35.14106583308106
 30
0
 10
150.7279856193464
 20
-34.5335851633519
 30
0
  0
SPLINE
  5
B6
100
AcDbEntity
  8
0
  6
ByLayer
 62
  256
370
   -1
100
AcDbSpline
210
0
220
0
230
0
 70
    8
 71
    3
 72
    8
 73
    4
 74
    0
 42
1e-007
 43
1e-007
 40
0
 40
0
 40
0
 40
0
 40
1
 40
1
 40
1
 40
1
 10
150.7279856193464
 20
-34.5335851633519
 30
0
 10
150.7279856193464
 20
-33.92610180214196
 30
0
 10
151.2208172822372
 20
-33.43362541471428
 30
0
 10
151.827945367984
 20
-33.43362541471428
 30
0
  0
SPLINE
  5
B7
100
AcDbEntity
  8
0
  6
ByLayer
 62
  256
370
   -1
100
AcDbSpline
210
0
220
0
230
0
 70
    8
 71
    3
 72
    8
 73
    4
 74
    0
 42
1e-007
 43
1e-007
 40
0
 40
0
 40
0
 40
0
 40
1
 40
1
 40
1
 40
1
 10
151.9161398102236
 20
-5.462228375012675
 30
0
 10
152.4685877724188
 20
-5.462228375012675
 30
0
 10
152.9159118782604
 20
-5.909902373355874
 30
0
 10
152.9159118782604
 20
-6.462000443049511
 30
0
  0
SPLINE
  5
B8
100
AcDbEntity
  8
0
  6
ByLayer
 62
  256
370
   -1
100
AcDbSpline
210
0
220
0
230
0
 70
    8
 71
    3
 72
    8
 73
    4
 74
    0
 42
1e-007
 43
1e-007
 40
0
 40
0
 40
0
 40
0
 40
1
 40
1
 40
1
 40
1
 10
152.9159118782604
 20
-6.462000443049511
 30
0
 10
152.9159118782604
 20
-7.014448405244714
 30
0
 10
152.4685877724188
 20
-7.462127786549479
 30
0
 10
151.9161398102236
 20
-7.462127786549479
 30
0
  0
SPLINE
  5
B9
100
AcDbEntity
  8
0
  6
ByLayer
 62
  256
370
   -1
100
AcDbSpline
210
0
220
0
230
0
 70
    8
 71
    3
 72
    8
 73
    4
 74
    0
 42
1e-007
 43
1e-007
 40
0
 40
0
 40
0
 40
0
 40
1
 40
1
 40
1
 40
1
 10
151.9161398102236
 20
-7.462127786549479
 30
0
 10
151.36404174053
 20
-7.462127786549479
 30
0
 10
150.9160124667237
 20
-7.014453788206279
 30
0
 10
150.9160124667237
 20
-6.462000443049511
 30
0
  0
SPLINE
  5
BA
100
AcDbEntity
  8
0
  6
ByLayer
 62
  256
370
   -1
100
AcDbSpline
210
0
220
0
230
0
 70
    8
 71
    3
 72
    8
 73
    4
 74
    0
 42
1e-007
 43
1e-007
 40
0
 40
0
 40
0
 40
0
 40
1
 40
1
 40
1
 40
1
 10
150.9160124667237
 20
-6.462000443049511
 30
0
 10
150.9160124667237
 20
-5.909902373355874
 30
0
 10
151.36404174053
 20
-5.462228375012675
 30
0
 10
151.9161398102236
 20
-5.462228375012675
 30
0
  0
LWPOLYLINE
  5
BB
100
AcDbEntity
  8
0
  6
ByLayer
 62
  256
370
   -1
100
AcDbPolyline
 90
    4
 70
    1
 43
0
 10
165.5478224799567
 20
-17.41434090986871
 10
167.9618815711487
 20
-31.10317717399138
 10
154.2726927230437
 20
-33.51688368120107
 10
151.8589889073148
 20
-19.8280474170784
  0
LWPOLYLINE
  5
BC
100
AcDbEntity
  8
0
  6
ByLayer
 62
  256
370
   -1
100
AcDbPolyline
 90
    4
 70
    1
 43
0
 10
171.2698783230978
 20
-49.86354645087245
 10
157.5806894749928
 20
-52.27760419632409
 10
155.1669856592639
 20
-38.58876927794181
 10
168.8558246148673
 20
-36.17506277073211
  0
LWPOLYLINE
  5
BD
100
AcDbEntity
  8
0
  6
ByLayer
 62
  256
370
   -1
100
AcDbPolyline
 90
    4
 70
    1
 43
0
 10
183.7010636710909
 20
-10.66041439889374
 10
186.1147674868199
 20
-24.34960324699875
 10
172.4259339141779
 20
-26.76295717022611
 10
170.012230098449
 20
-13.07447349008578
  0
LWPOLYLINE
  5
BE
100
AcDbEntity
  8
0
  6
ByLayer
 62
  256
370
   -1
100
AcDbPolyline
 90
    4
 70
    1
 43
0
 10
174.5778804580084
 20
-68.62427369469741
 10
160.8886916099034
 20
-71.03833211301924
 10
158.4749877941745
 20
-57.34914326491422
 10
172.1638267497779
 20
-54.93543743057473
  0
LWPOLYLINE
  5
BF
100
AcDbEntity
  8
0
  6
ByLayer
 62
  256
370
   -1
100
AcDbPolyline
 90
    4
 70
    1
 43
0
 10
189.4227696217305
 20
-43.1099752153606
 10
175.7339360490886
 20
-45.5236803768299
 10
173.3202322333597
 20
-31.83484276696683
 10
187.0090658060016
 20
-29.42113625975714
  0
LWPOLYLINE
  5
C0
100
AcDbEntity
  8
0
  6
ByLayer
 62
  256
370
   -1
100
AcDbPolyline
 90
    4
 70
    1
 43
0
 10
203.0689190006627
 20
-10.79835278893215
 10
205.4826255078724
 20
-24.48718905305483
 10
191.793786552269
 20
-26.90089556026452
 10
189.3804326290416
 20
-13.21205660466106
  0
SPLINE
  5
C1
100
AcDbEntity
  8
0
  6
ByLayer
 62
  256
370
   -1
100
AcDbSpline
210
0
220
0
230
0
 70
    8
 71
    3
 72
    8
 73
    4
 74
    0
 42
1e-007
 43
1e-007
 40
0
 40
0
 40
0
 40
0
 40
1
 40
1
 40
1
 40
1
 10
193.1339744180359
 20
-43.13890190505695
 30
0
 10
193.1339744180359
 20
-43.74638526626689
 30
0
 10
192.6414953391275
 20
-44.23886299943496
 30
0
 10
192.0340119779175
 20
-44.23886299943496
 30
0
  0
SPLINE
  5
C2
100
AcDbEntity
  8
0
  6
ByLayer
 62
  256
370
   -1
100
AcDbSpline
210
0
220
0
230
0
 70
    8
 71
    3
 72
    8
 73
    4
 74
    0
 42
1e-007
 43
1e-007
 40
0
 40
0
 40
0
 40
0
 40
1
 40
1
 40
1
 40
1
 10
192.0340119779175
 20
-44.23886299943496
 30
0
 10
191.4261733412445
 20
-44.23886299943496
 30
0
 10
190.9340522292799
 20
-43.74638526626689
 30
0
 10
190.9340522292799
 20
-43.13890190505695
 30
0
  0
SPLINE
  5
C3
100
AcDbEntity
  8
0
  6
ByLayer
 62
  256
370
   -1
100
AcDbSpline
210
0
220
0
230
0
 70
    8
 71
    3
 72
    8
 73
    4
 74
    0
 42
1e-007
 43
1e-007
 40
0
 40
0
 40
0
 40
0
 40
1
 40
1
 40
1
 40
1
 10
190.9340522292799
 20
-43.13890190505695
 30
0
 10
190.9340522292799
 20
-42.531418543847
 30
0
 10
191.426178724206
 20
-42.03894081067894
 30
0
 10
192.0340119779175
 20
-42.03894081067894
 30
0
  0
SPLINE
  5
C4
100
AcDbEntity
  8
0
  6
ByLayer
 62
  256
370
   -1
100
AcDbSpline
210
0
220
0
230
0
 70
    8
 71
    3
 72
    8
 73
    4
 74
    0
 42
1e-007
 43
1e-007
 40
0
 40
0
 40
0
 40
0
 40
1
 40
1
 40
1
 40
1
 10
192.0340119779175
 20
-42.03894081067894
 30
0
 10
192.6414953391275
 20
-42.03894081067894
 30
0
 10
193.1339717265551
 20
-42.531418543847
 30
0
 10
193.1339744180359
 20
-43.13890190505695
 30
0
  0
LWPOLYLINE
  5
C5
100
AcDbEntity
  8
0
  6
ByLayer
 62
  256
370
   -1
100
AcDbPolyline
 90
    4
 70
    1
 43
0
 10
208.7906061109368
 20
-43.24790956817783
 10
195.1017698468141
 20
-45.66161472964715
 10
192.6884159235868
 20
-31.97242588154213
 10
206.3768969122463
 20
-29.55907195831477
  0
LWPOLYLINE
  5
C6
100
AcDbEntity
  8
0
  6
ByLayer
 62
  256
370
   -1
100
AcDbPolyline
 90
    4
 70
    1
 43
0
 10
222.4374606578337
 20
-10.93734623943681
 10
224.8508132353207
 20
-24.62618250355948
 10
211.1623309009207
 20
-27.03988901076917
 10
208.7486243937111
 20
-13.35105543812728
  0
SPLINE
  5
C7
100
AcDbEntity
  8
0
  6
ByLayer
 62
  256
370
   -1
100
AcDbSpline
210
0
220
0
230
0
 70
    8
 71
    3
 72
    8
 73
    4
 74
    0
 42
1e-007
 43
1e-007
 40
0
 40
0
 40
0
 40
0
 40
1
 40
1
 40
1
 40
1
 10
227.4525492813884
 20
-23.52339939158235
 30
0
 10
228.0600326425983
 20
-23.52339939158235
 30
0
 10
228.5528629597488
 20
-24.0158784704908
 30
0
 10
228.5528629597488
 20
-24.62335914021997
 30
0
  0
SPLINE
  5
C8
100
AcDbEntity
  8
0
  6
ByLayer
 62
  256
370
   -1
100
AcDbSpline
210
0
220
0
230
0
 70
    8
 71
    3
 72
    8
 73
    4
 74
    0
 42
1e-007
 43
1e-007
 40
0
 40
0
 40
0
 40
0
 40
1
 40
1
 40
1
 40
1
 10
228.5528629597488
 20
-24.62335914021997
 30
0
 10
228.5528629597488
 20
-25.23119508541225
 30
0
 10
228.0600326425983
 20
-25.72367416432071
 30
0
 10
227.4525492813884
 20
-25.72367416432071
 30
0
  0
SPLINE
  5
C9
100
AcDbEntity
  8
0
  6
ByLayer
 62
  256
370
   -1
100
AcDbSpline
210
0
220
0
230
0
 70
    8
 71
    3
 72
    8
 73
    4
 74
    0
 42
1e-007
 43
1e-007
 40
0
 40
0
 40
0
 40
0
 40
1
 40
1
 40
1
 40
1
 10
227.4525492813884
 20
-25.72367416432071
 30
0
 10
226.8454185041608
 20
-25.72367416432071
 30
0
 10
226.3525881870104
 20
-25.23119508541225
 30
0
 10
226.3525881870104
 20
-24.62335914021997
 30
0
  0
SPLINE
  5
CA
100
AcDbEntity
  8
0
  6
ByLayer
 62
  256
370
   -1
100
AcDbSpline
210
0
220
0
230
0
 70
    8
 71
    3
 72
    8
 73
    4
 74
    0
 42
1e-007
 43
1e-007
 40
0
 40
0
 40
0
 40
0
 40
1
 40
1
 40
1
 40
1
 10
226.3525881870104
 20
-24.62335914021997
 30
0
 10
226.3525881870104
 20
-24.01587577901002
 30
0
 10
226.8454185041608
 20
-23.52339939158235
 30
0
 10
227.4525492813884
 20
-23.52339939158235
 30
0
  0
LWPOLYLINE
  5
CB
100
AcDbEntity
  8
0
  6
ByLayer
 62
  256
370
   -1
100
AcDbPolyline
 90
    4
 70
    1
 43
0
 10
241.8056658799071
 20
-11.07598979743991
 10
244.2197242982289
 20
-24.76482606156257
 10
230.5305354501239
 20
-27.17853256877227
 10
228.1168296157844
 20
-13.48969899613038
  0
LWPOLYLINE
  5
CC
100
AcDbEntity
  8
0
  6
ByLayer
 62
  256
370
   -1
100
AcDbPolyline
 90
    4
 70
    1
 43
0
 10
247.5277210501779
 20
-43.52554792242597
 10
233.8385322020729
 20
-45.93925308389528
 10
231.4248263677335
 20
-32.250418165513
 10
245.1136626318561
 20
-29.8367116583033
  0
LINE
  5
CD
100
AcDbEntity
  8
0
  6
ByLayer
 62
  256
370
   -1
100
AcDbLine
 10
256.3383459644864
 20
-63.54815439868779
 11
246.5572296015602
 21
-8.079494265188121
  0
SPLINE
  5
CE
100
AcDbEntity
  8
0
  6
ByLayer
 62
  256
370
   -1
100
AcDbSpline
210
0
220
0
230
0
 70
    8
 71
    3
 72
    8
 73
    4
 74
    0
 42
1e-007
 43
1e-007
 40
0
 40
0
 40
0
 40
0
 40
1
 40
1
 40
1
 40
1
 10
246.5572296015602
 20
-8.079494265188119
 30
0
 10
246.3042876020905
 20
-6.645807048561771
 30
0
 10
245.0586299243222
 20
-5.600527423475773
 30
0
 10
243.6027157865342
 20
-5.600527423475773
 30
0
  0
LINE
  5
CF
100
AcDbEntity
  8
0
  6
ByLayer
 62
  256
370
   -1
100
AcDbLine
 10
243.6027157865342
 20
-5.600527423475771
 11
164.3434278940455
 21
-5.600527423475773
  0
LINE
  5
D0
100
AcDbEntity
  8
0
  6
ByLayer
 62
  256
370
   -1
100
AcDbLine
 10
164.3434278940455
 20
-5.600527423475773
 11
149.8315610303475
 21
-3.059118227638717
  0
SPLINE
  5
D1
100
AcDbEntity
  8
0
  6
ByLayer
 62
  256
370
   -1
100
AcDbSpline
210
0
220
0
230
0
 70
    8
 71
    3
 72
    8
 73
    4
 74
    0
 42
1e-007
 43
1e-007
 40
0
 40
0
 40
0
 40
0
 40
1
 40
1
 40
1
 40
1
 10
149.8315610303475
 20
-3.059118227638717
 30
0
 10
149.2889908026194
 20
-2.964221998253848
 30
0
 10
148.77146211208
 20
-3.325817058251514
 30
0
 10
148.6748002713027
 20
-3.868392668941139
 30
0
  0
LINE
  5
D2
100
AcDbEntity
  8
0
  6
ByLayer
 62
  256
370
   -1
100
AcDbLine
 10
148.6748002713027
 20
-3.868392668941139
 11
145.7601526696083
 21
-20.18224897937001
  0
SPLINE
  5
D3
100
AcDbEntity
  8
0
  6
ByLayer
 62
  256
370
   -1
100
AcDbSpline
210
0
220
0
230
0
 70
    8
 71
    3
 72
    8
 73
    4
 74
    0
 42
1e-007
 43
1e-007
 40
0
 40
0
 40
0
 40
0
 40
1
 40
1
 40
1
 40
1
 10
145.7601526696083
 20
-20.18224897937001
 30
0
 10
145.6144574319584
 20
-20.99645959642523
 30
0
 10
144.8369316979514
 20
-21.53938509961641
 30
0
 10
144.0220159129315
 20
-21.39545278187818
 30
0
  0
LINE
  5
D4
100
AcDbEntity
  8
0
  6
ByLayer
 62
  256
370
   -1
100
AcDbLine
 10
144.0220159129315
 20
-21.39545278187818
 11
111.4154690969374
 21
-15.62894713363496
  0
SPLINE
  5
D5
100
AcDbEntity
  8
0
  6
ByLayer
 62
  256
370
   -1
100
AcDbSpline
210
0
220
0
230
0
 70
    8
 71
    3
 72
    8
 73
    4
 74
    0
 42
1e-007
 43
1e-007
 40
0
 40
0
 40
0
 40
0
 40
1
 40
1
 40
1
 40
1
 10
111.4154690969374
 20
-15.62894713363496
 30
0
 10
111.1618239481136
 20
-15.58414474455048
 30
0
 10
110.9356964987972
 20
-15.44338568265333
 30
0
 10
110.7836493665035
 20
-15.23630315134494
 30
0
  0
LINE
  5
D6
100
AcDbEntity
  8
0
  6
ByLayer
 62
  256
370
   -1
100
AcDbLine
 10
110.7836493665035
 20
-15.23630315134494
 11
110.2114405524125
 21
-14.45737246437018
  0
SPLINE
  5
D7
100
AcDbEntity
  8
0
  6
ByLayer
 62
  256
370
   -1
100
AcDbSpline
210
0
220
0
230
0
 70
    8
 71
    3
 72
    8
 73
    4
 74
    0
 42
1e-007
 43
1e-007
 40
0
 40
0
 40
0
 40
0
 40
1
 40
1
 40
1
 40
1
 10
110.2114405524125
 20
-14.45737246437018
 30
0
 10
110.0590381446557
 20
-14.24994004056022
 30
0
 10
109.8325554198762
 20
-14.10918097866308
 30
0
 10
109.5792655465155
 20
-14.0643785895786
 30
0
  0
LINE
  5
D8
100
AcDbEntity
  8
0
  6
ByLayer
 62
  256
370
   -1
100
AcDbLine
 10
109.5792655465155
 20
-14.0643785895786
 11
97.26273727980306
 21
-11.88985590495512
  0
SPLINE
  5
D9
100
AcDbEntity
  8
0
  6
ByLayer
 62
  256
370
   -1
100
AcDbSpline
210
0
220
0
230
0
 70
    8
 71
    3
 72
    8
 73
    4
 74
    0
 42
1e-007
 43
1e-007
 40
0
 40
0
 40
0
 40
0
 40
1
 40
1
 40
1
 40
1
 10
97.26273727980305
 20
-11.88985590495512
 30
0
 10
96.93183586663459
 20
-11.83164994158008
 30
0
 10
96.6524278637728
 20
-11.610808560518
 30
0
 10
96.51872586448407
 20
-11.30212801267946
 30
0
  0
LINE
  5
DA
100
AcDbEntity
  8
0
  6
ByLayer
 62
  256
370
   -1
100
AcDbLine
 10
96.51872586448407
 20
-11.30212801267946
 11
95.69287190156921
 21
-9.391483486810051
  0
SPLINE
  5
DB
100
AcDbEntity
  8
0
  6
ByLayer
 62
  256
370
   -1
100
AcDbSpline
210
0
220
0
230
0
 70
    8
 71
    3
 72
    8
 73
    4
 74
    0
 42
1e-007
 43
1e-007
 40
0
 40
0
 40
0
 40
0
 40
1
 40
1
 40
1
 40
1
 10
95.69287190156921
 20
-9.391483486810051
 30
0
 10
95.55952517774358
 20
-9.08350810693619
 30
0
 10
95.28047245034492
 20
-8.862672108835669
 30
0
 10
94.95027082217958
 20
-8.804110869997512
 30
0
  0
LINE
  5
DC
100
AcDbEntity
  8
0
  6
ByLayer
 62
  256
370
   -1
100
AcDbLine
 10
94.95027082217959
 20
-8.804110869997514
 11
76.96354616401895
 21
-5.600538189398893
  0
LINE
  5
DD
100
AcDbEntity
  8
0
  6
ByLayer
 62
  256
370
   -1
100
AcDbLine
 10
76.96354616401895
 20
-5.600538189398893
 11
15.85362574895014
 21
-5.600538189398893
  0
SPLINE
  5
DE
100
AcDbEntity
  8
0
  6
ByLayer
 62
  256
370
   -1
100
AcDbSpline
210
0
220
0
230
0
 70
    8
 71
    3
 72
    8
 73
    4
 74
    0
 42
1e-007
 43
1e-007
 40
0
 40
0
 40
0
 40
0
 40
1
 40
1
 40
1
 40
1
 10
15.85362574895015
 20
-5.600538189398893
 30
0
 10
14.39841745199703
 20
-5.600538189398893
 30
0
 10
13.1531015922879
 20
-6.645112646520208
 30
0
 10
12.8994564434641
 20
-8.078094695181878
 30
0
  0
LINE
  5
DF
100
AcDbEntity
  8
0
  6
ByLayer
 62
  256
370
   -1
100
AcDbLine
 10
12.89945644346411
 20
-8.078094695181878
 11
3.090473161399182
 21
-63.54639046947079
  0
SPLINE
  5
E0
100
AcDbEntity
  8
0
  6
ByLayer
 62
  256
370
   -1
100
AcDbSpline
210
0
220
0
230
0
 70
    8
 71
    3
 72
    8
 73
    4
 74
    0
 42
1e-007
 43
1e-007
 40
0
 40
0
 40
0
 40
0
 40
1
 40
1
 40
1
 40
1
 10
3.090473161399181
 20
-63.54639046947079
 30
0
 10
2.801558848418042
 20
-65.17904590750275
 30
0
 10
3.891974606205408
 20
-66.73620699179651
 30
0
 10
5.524648379950178
 20
-67.0237210619012
 30
0
  0
LINE
  5
E1
100
AcDbEntity
  8
0
  6
ByLayer
 62
  256
370
   -1
100
AcDbLine
 10
5.524648379950179
 20
-67.0237210619012
 11
24.33265148369758
 21
-70.33418758390215
  0
SPLINE
  5
E2
100
AcDbEntity
  8
0
  6
ByLayer
 62
  256
370
   -1
100
AcDbSpline
210
0
220
0
230
0
 70
    8
 71
    3
 72
    8
 73
    4
 74
    0
 42
1e-007
 43
1e-007
 40
0
 40
0
 40
0
 40
0
 40
1
 40
1
 40
1
 40
1
 10
24.33265148369759
 20
-70.33418758390215
 30
0
 10
24.58418651158888
 20
-70.37863738900428
 30
0
 10
24.84205190227766
 20
-70.37405177862324
 30
0
 10
25.0918213187765
 20
-70.32148749540079
 30
0
  0
LINE
  5
E3
100
AcDbEntity
  8
0
  6
ByLayer
 62
  256
370
   -1
100
AcDbLine
 10
25.0918213187765
 20
-70.32148749540079
 11
33.55319093959903
 21
-68.53713767727504
  0
SPLINE
  5
E4
100
AcDbEntity
  8
0
  6
ByLayer
 62
  256
370
   -1
100
AcDbSpline
210
0
220
0
230
0
 70
    8
 71
    3
 72
    8
 73
    4
 74
    0
 42
1e-007
 43
1e-007
 40
0
 40
0
 40
0
 40
0
 40
1
 40
1
 40
1
 40
1
 10
33.55319093959903
 20
-68.53713767727504
 30
0
 10
33.80507047703032
 20
-68.48422114650533
 30
0
 10
34.06472301095787
 20
-68.47998778367155
 30
0
 10
34.31836815978167
 20
-68.5254960135909
 30
0
  0
LINE
  5
E5
100
AcDbEntity
  8
0
  6
ByLayer
 62
  256
370
   -1
100
AcDbLine
 10
34.31836815978167
 20
-68.5254960135909
 11
56.62310003082003
 21
-72.51788216215787
  0
SPLINE
  5
E6
100
AcDbEntity
  8
0
  6
ByLayer
 62
  256
370
   -1
100
AcDbSpline
210
0
220
0
230
0
 70
    8
 71
    3
 72
    8
 73
    4
 74
    0
 42
1e-007
 43
1e-007
 40
0
 40
0
 40
0
 40
0
 40
1
 40
1
 40
1
 40
1
 10
56.62310003082003
 20
-72.51788216215787
 30
0
 10
57.09970744756155
 20
-72.60325458679833
 30
0
 10
57.44683310687927
 20
-73.01812078015864
 30
0
 10
57.44683310687927
 20
-73.50248504451167
 30
0
  0
LINE
  5
E7
100
AcDbEntity
  8
0
  6
ByLayer
 62
  256
370
   -1
100
AcDbLine
 10
57.44683310687927
 20
-73.50248504451167
 11
57.44683310687927
 21
-88.75377233018608
  0
SPLINE
  5
E8
100
AcDbEntity
  8
0
  6
ByLayer
 62
  256
370
   -1
100
AcDbSpline
210
0
220
0
230
0
 70
    8
 71
    3
 72
    8
 73
    4
 74
    0
 42
1e-007
 43
1e-007
 40
0
 40
0
 40
0
 40
0
 40
1
 40
1
 40
1
 40
1
 10
57.44683310687927
 20
-88.75377233018608
 30
0
 10
57.44683310687927
 20
-89.30587039987971
 30
0
 10
57.89451248818402
 20
-89.75389698220525
 30
0
 10
58.44661055787768
 20
-89.75389698220525
 30
0
  0
LINE
  5
E9
100
AcDbEntity
  8
0
  6
ByLayer
 62
  256
370
   -1
100
AcDbLine
 10
58.44661055787768
 20
-89.75389698220523
 11
75.8487886540461
 21
-89.75389698220525
  0
SPLINE
  5
EA
100
AcDbEntity
  8
0
  6
ByLayer
 62
  256
370
   -1
100
AcDbSpline
210
0
220
0
230
0
 70
    8
 71
    3
 72
    8
 73
    4
 74
    0
 42
1e-007
 43
1e-007
 40
0
 40
0
 40
0
 40
0
 40
1
 40
1
 40
1
 40
1
 10
75.8487886540461
 20
-89.75389698220525
 30
0
 10
76.26154338073351
 20
-89.75389698220525
 30
0
 10
76.63195573177052
 20
-90.00683965454513
 30
0
 10
76.78118219220543
 20
-90.39171871478129
 30
0
  0
LINE
  5
EB
100
AcDbEntity
  8
0
  6
ByLayer
 62
  256
370
   -1
100
AcDbLine
 10
76.78118219220542
 20
-90.39171871478129
 11
79.29436852057043
 21
-96.86589540483523
  0
SPLINE
  5
EC
100
AcDbEntity
  8
0
  6
ByLayer
 62
  256
370
   -1
100
AcDbSpline
210
0
220
0
230
0
 70
    8
 71
    3
 72
    8
 73
    4
 74
    0
 42
1e-007
 43
1e-007
 40
0
 40
0
 40
0
 40
0
 40
1
 40
1
 40
1
 40
1
 10
79.29436852057043
 20
-96.86589540483523
 30
0
 10
79.41008066231737
 20
-97.16293529829493
 30
0
 10
79.66054986381934
 20
-97.38765241168198
 30
0
 10
79.96853062665474
 20
-97.47020281872332
 30
0
  0
LINE
  5
ED
100
AcDbEntity
  8
0
  6
ByLayer
 62
  256
370
   -1
100
AcDbLine
 10
79.96853062665475
 20
-97.47020281872332
 11
105.1547402902395
 21
-104.2015558803861
  0
LINE
  5
EE
100
AcDbEntity
  8
0
  6
ByLayer
 62
  256
370
   -1
100
AcDbLine
 10
105.1547402902395
 20
-104.2015558803861
 11
154.3414869718121
 21
-104.2015558803861
  0
LINE
  5
EF
100
AcDbEntity
  8
0
  6
ByLayer
 62
  256
370
   -1
100
AcDbLine
 10
154.3414869718121
 20
-104.2015558803861
 11
179.4811340178815
 21
-97.47055540270566
  0
SPLINE
  5
F0
100
AcDbEntity
  8
0
  6
ByLayer
 62
  256
370
   -1
100
AcDbSpline
210
0
220
0
230
0
 70
    8
 71
    3
 72
    8
 73
    4
 74
    0
 42
1e-007
 43
1e-007
 40
0
 40
0
 40
0
 40
0
 40
1
 40
1
 40
1
 40
1
 10
179.4811340178815
 20
-97.47055540270566
 30
0
 10
179.7894592902569
 20
-97.38765241168198
 30
0
 10
180.0399338747204
 20
-97.16293260681414
 30
0
 10
180.1549408485027
 20
-96.86554282085289
 30
0
  0
LINE
  5
F1
100
AcDbEntity
  8
0
  6
ByLayer
 62
  256
370
   -1
100
AcDbLine
 10
180.1549408485027
 20
-96.86554282085289
 11
182.6621305576871
 21
-90.39242388274599
  0
SPLINE
  5
F2
100
AcDbEntity
  8
0
  6
ByLayer
 62
  256
370
   -1
100
AcDbSpline
210
0
220
0
230
0
 70
    8
 71
    3
 72
    8
 73
    4
 74
    0
 42
1e-007
 43
1e-007
 40
0
 40
0
 40
0
 40
0
 40
1
 40
1
 40
1
 40
1
 10
182.6621305576871
 20
-90.39242388274599
 30
0
 10
182.811357018122
 20
-90.00718954704669
 30
0
 10
183.1817747521206
 20
-89.75389698220525
 30
0
 10
183.5945240958465
 20
-89.75389698220525
 30
0
  0
LINE
  5
F3
100
AcDbEntity
  8
0
  6
ByLayer
 62
  256
370
   -1
100
AcDbLine
 10
183.5945240958465
 20
-89.75389698220525
 11
201.0146920495567
 21
-89.75389698220525
  0
SPLINE
  5
F4
100
AcDbEntity
  8
0
  6
ByLayer
 62
  256
370
   -1
100
AcDbSpline
210
0
220
0
230
0
 70
    8
 71
    3
 72
    8
 73
    4
 74
    0
 42
1e-007
 43
1e-007
 40
0
 40
0
 40
0
 40
0
 40
1
 40
1
 40
1
 40
1
 10
201.0146920495567
 20
-89.75389698220525
 30
0
 10
201.5671427032326
 20
-89.75389698220525
 30
0
 10
202.0144641175935
 20
-89.30587039987971
 30
0
 10
202.0144641175935
 20
-88.75377233018608
 30
0
  0
LINE
  5
F5
100
AcDbEntity
  8
0
  6
ByLayer
 62
  256
370
   -1
100
AcDbLine
 10
202.0144641175935
 20
-88.75377233018608
 11
202.0144641175935
 21
-73.49331180513902
  0
SPLINE
  5
F6
100
AcDbEntity
  8
0
  6
ByLayer
 62
  256
370
   -1
100
AcDbSpline
210
0
220
0
230
0
 70
    8
 71
    3
 72
    8
 73
    4
 74
    0
 42
1e-007
 43
1e-007
 40
0
 40
0
 40
0
 40
0
 40
1
 40
1
 40
1
 40
1
 10
202.0144641175935
 20
-73.49331180513902
 30
0
 10
202.0144641175935
 20
-73.00894821365618
 30
0
 10
202.3615978513536
 20
-72.59408134742569
 30
0
 10
202.8389050530982
 20
-72.50906150676757
 30
0
  0
LINE
  5
F7
100
AcDbEntity
  8
0
  6
ByLayer
 62
  256
370
   -1
100
AcDbLine
 10
202.8389050530982
 20
-72.50906150676757
 11
225.1697375590126
 21
-68.52302557066882
  0
SPLINE
  5
F8
100
AcDbEntity
  8
0
  6
ByLayer
 62
  256
370
   -1
100
AcDbSpline
210
0
220
0
230
0
 70
    8
 71
    3
 72
    8
 73
    4
 74
    0
 42
1e-007
 43
1e-007
 40
0
 40
0
 40
0
 40
0
 40
1
 40
1
 40
1
 40
1
 10
225.1697375590126
 20
-68.52302557066882
 30
0
 10
225.4237379832995
 20
-68.47786992473182
 30
0
 10
225.6840876107494
 20
-68.48210328756559
 30
0
 10
225.9363237693842
 20
-68.53537273875274
 30
0
  0
LINE
  5
F9
100
AcDbEntity
  8
0
  6
ByLayer
 62
  256
370
   -1
100
AcDbLine
 10
225.9363237693842
 20
-68.53537273875274
 11
234.353248295196
 21
-70.32078098169569
  0
SPLINE
  5
FA
100
AcDbEntity
  8
0
  6
ByLayer
 62
  256
370
   -1
100
AcDbSpline
210
0
220
0
230
0
 70
    8
 71
    3
 72
    8
 73
    4
 74
    0
 42
1e-007
 43
1e-007
 40
0
 40
0
 40
0
 40
0
 40
1
 40
1
 40
1
 40
1
 10
234.353248295196
 20
-70.32078098169571
 30
0
 10
234.6040732768137
 20
-70.37405043288285
 30
0
 10
234.8626594796992
 20
-70.37863671613407
 30
0
 10
235.1152482223164
 20
-70.3338336541794
 30
0
  0
LINE
  5
FB
100
AcDbEntity
  8
0
  6
ByLayer
 62
  256
370
   -1
100
AcDbLine
 10
235.1152482223164
 20
-70.33383365417941
 11
253.904544861764
 21
-67.0237197161608
  0
SPLINE
  5
FC
100
AcDbEntity
  8
0
  6
ByLayer
 62
  256
370
   -1
100
AcDbSpline
210
0
220
0
230
0
 70
    8
 71
    3
 72
    8
 73
    4
 74
    0
 42
1e-007
 43
1e-007
 40
0
 40
0
 40
0
 40
0
 40
1
 40
1
 40
1
 40
1
 10
253.904544861764
 20
-67.0237197161608
 30
0
 10
255.5364946271786
 20
-66.73620581427366
 30
0
 10
256.6262254031071
 20
-65.18010315479714
 30
0
 10
256.3383459644864
 20
-63.54815439868779
 30
0
  0
LINE
  5
FD
100
AcDbEntity
  8
0
  6
ByLayer
 62
  256
370
   -1
100
AcDbLine
 10
245.9097153919604
 20
-74.01041537696317
 11
208.8712255986572
 21
-74.01746974809079
  0
SPLINE
  5
FE
100
AcDbEntity
  8
0
  6
ByLayer
 62
  256
370
   -1
100
AcDbSpline
210
0
220
0
230
0
 70
    8
 71
    3
 72
    8
 73
    4
 74
    0
 42
1e-007
 43
1e-007
 40
0
 40
0
 40
0
 40
0
 40
1
 40
1
 40
1
 40
1
 10
208.8712255986572
 20
-74.01746974809079
 30
0
 10
208.817955811035
 20
-74.01852750003782
 30
0
 10
208.7664502890648
 20
-74.02381895125373
 30
0
 10
208.7121227494955
 20
-74.03334410173852
 30
0
  0
LINE
  5
FF
100
AcDbEntity
  8
0
  6
ByLayer
 62
  256
370
   -1
100
AcDbLine
 10
207.9578837072079
 20
-97.803157966976
 11
227.00964749661
 21
-97.80033578115932
  0
LINE
  5
100
100
AcDbEntity
  8
0
  6
ByLayer
 62
  256
370
   -1
100
AcDbLine
 10
227.00964749661
 20
-97.80033578115932
 11
242.8737116133208
 21
-92.14460290277682
  0
LINE
  5
101
100
AcDbEntity
  8
0
  6
ByLayer
 62
  256
370
   -1
100
AcDbLine
 10
242.8737116133208
 20
-92.14460290277682
 11
242.8864113653871
 21
-79.97129976722735
  0
LINE
  5
102
100
AcDbEntity
  8
0
  6
ByLayer
 62
  256
370
   -1
100
AcDbLine
 10
242.8864113653871
 20
-79.97129976722735
 11
246.4113670373713
 21
-79.97306403287945
  0
SPLINE
  5
103
100
AcDbEntity
  8
0
  6
ByLayer
 62
  256
370
   -1
100
AcDbSpline
210
0
220
0
230
0
 70
    8
 71
    3
 72
    8
 73
    4
 74
    0
 42
1e-007
 43
1e-007
 40
0
 40
0
 40
0
 40
0
 40
1
 40
1
 40
1
 40
1
 10
246.4113670373713
 20
-79.97306403287945
 30
0
 10
248.0429642188035
 20
-79.68555063564494
 30
0
 10
249.1326936489917
 20
-78.12944679864557
 30
0
 10
248.8451815974976
 20
-76.49784961721329
 30
0
  0
SPLINE
  5
104
100
AcDbEntity
  8
0
  6
ByLayer
 62
  256
370
   -1
100
AcDbSpline
210
0
220
0
230
0
 70
    8
 71
    3
 72
    8
 73
    4
 74
    0
 42
1e-007
 43
1e-007
 40
0
 40
0
 40
0
 40
0
 40
1
 40
1
 40
1
 40
1
 10
248.8451815974976
 20
-76.49784961721329
 30
0
 10
248.5890656693166
 20
-75.04758018749374
 30
0
 10
247.3314120617063
 20
-74.02840523450494
 30
0
 10
245.9097180834412
 20
-74.02064300393187
 30
0
  0
LINE
  5
105
100
AcDbEntity
  8
0
  6
ByLayer
 62
  256
370
   -1
100
AcDbLine
 10
245.9097180834412
 20
-74.02064300393187
 11
245.9097153919604
 21
-74.01041537696317
  0
SPLINE
  5
106
100
AcDbEntity
  8
0
  6
ByLayer
 62
  256
370
   -1
100
AcDbSpline
210
0
220
0
230
0
 70
    8
 71
    3
 72
    8
 73
    4
 74
    0
 42
1e-007
 43
1e-007
 40
0
 40
0
 40
0
 40
0
 40
1
 40
1
 40
1
 40
1
 10
222.4972696161536
 20
-97.05491701577246
 30
0
 10
222.5699418366431
 20
-97.05491701577246
 30
0
 10
222.6433196141004
 20
-97.04821424034908
 30
0
 10
222.7156390613629
 20
-97.03551423595648
 30
0
  0
SPLINE
  5
107
100
AcDbEntity
  8
0
  6
ByLayer
 62
  256
370
   -1
100
AcDbSpline
210
0
220
0
230
0
 70
    8
 71
    3
 72
    8
 73
    4
 74
    0
 42
1e-007
 43
1e-007
 40
0
 40
0
 40
0
 40
0
 40
1
 40
1
 40
1
 40
1
 10
222.7156390613629
 20
-97.03551423595648
 30
0
 10
223.3940307243589
 20
-96.9159225769897
 30
0
 10
223.8491140328578
 20
-96.26645869710406
 30
0
 10
223.729522373891
 20
-95.58771426088092
 30
0
  0
SPLINE
  5
108
100
AcDbEntity
  8
0
  6
ByLayer
 62
  256
370
   -1
100
AcDbSpline
210
0
220
0
230
0
 70
    8
 71
    3
 72
    8
 73
    4
 74
    0
 42
1e-007
 43
1e-007
 40
0
 40
0
 40
0
 40
0
 40
1
 40
1
 40
1
 40
1
 10
223.729522373891
 20
-95.58771426088092
 30
0
 10
223.6236890600253
 20
-94.98905046164721
 30
0
 10
223.1068696167261
 20
-94.55442812648242
 30
0
 10
222.4997390606126
 20
-94.55442812648242
 30
0
  0
SPLINE
  5
109
100
AcDbEntity
  8
0
  6
ByLayer
 62
  256
370
   -1
100
AcDbSpline
210
0
220
0
230
0
 70
    8
 71
    3
 72
    8
 73
    4
 74
    0
 42
1e-007
 43
1e-007
 40
0
 40
0
 40
0
 40
0
 40
1
 40
1
 40
1
 40
1
 10
222.4997390606126
 20
-94.55442812648242
 30
0
 10
222.4267140613106
 20
-94.55442812648242
 30
0
 10
222.3533362891101
 20
-94.56113092293299
 30
0
 10
222.2813696255883
 20
-94.57383101143436
 30
0
  0
SPLINE
  5
10A
100
AcDbEntity
  8
0
  6
ByLayer
 62
  256
370
   -1
100
AcDbSpline
210
0
220
0
230
0
 70
    8
 71
    3
 72
    8
 73
    4
 74
    0
 42
1e-007
 43
1e-007
 40
0
 40
0
 40
0
 40
0
 40
1
 40
1
 40
1
 40
1
 10
222.2813696255883
 20
-94.57383101143436
 30
0
 10
221.9525807304525
 20
-94.6316865776552
 30
0
 10
221.6661252113282
 20
-94.81407258596761
 30
0
 10
221.4745668888396
 20
-95.08782814275372
 30
0
  0
SPLINE
  5
10B
100
AcDbEntity
  8
0
  6
ByLayer
 62
  256
370
   -1
100
AcDbSpline
210
0
220
0
230
0
 70
    8
 71
    3
 72
    8
 73
    4
 74
    0
 42
1e-007
 43
1e-007
 40
0
 40
0
 40
0
 40
0
 40
1
 40
1
 40
1
 40
1
 10
221.4745668888396
 20
-95.08782814275372
 30
0
 10
221.2830085663511
 20
-95.36123094733993
 30
0
 10
221.2096307258122
 20
-95.69319482254676
 30
0
 10
221.267486292033
 20
-96.02163092342836
 30
0
  0
SPLINE
  5
10C
100
AcDbEntity
  8
0
  6
ByLayer
 62
  256
370
   -1
100
AcDbSpline
210
0
220
0
230
0
 70
    8
 71
    3
 72
    8
 73
    4
 74
    0
 42
1e-007
 43
1e-007
 40
0
 40
0
 40
0
 40
0
 40
1
 40
1
 40
1
 40
1
 10
221.267486292033
 20
-96.02163092342836
 30
0
 10
221.3729668536989
 20
-96.62064757999792
 30
0
 10
221.8901390912523
 20
-97.05491701577246
 30
0
 10
222.4972696161536
 20
-97.05491701577246
 30
0
  0
SPLINE
  5
10D
100
AcDbEntity
  8
0
  6
ByLayer
 62
  256
370
   -1
100
AcDbSpline
210
0
220
0
230
0
 70
    8
 71
    3
 72
    8
 73
    4
 74
    0
 42
1e-007
 43
1e-007
 40
0
 40
0
 40
0
 40
0
 40
1
 40
1
 40
1
 40
1
 10
211.0750315941806
 20
-97.03798369060047
 30
0
 10
211.1477042667547
 20
-97.03798369060047
 30
0
 10
211.2210814344234
 20
-97.03198646163125
 30
0
 10
211.2930482661627
 20
-97.01893368401159
 30
0
  0
SPLINE
  5
10E
100
AcDbEntity
  8
0
  6
ByLayer
 62
  256
370
   -1
100
AcDbSpline
210
0
220
0
230
0
 70
    8
 71
    3
 72
    8
 73
    4
 74
    0
 42
1e-007
 43
1e-007
 40
0
 40
0
 40
0
 40
0
 40
1
 40
1
 40
1
 40
1
 10
211.2930482661627
 20
-97.01893368401159
 30
0
 10
211.9717926182771
 20
-96.8993420250448
 30
0
 10
212.426876263211
 20
-96.24987812413195
 30
0
 10
212.3069317679356
 20
-95.57078089365453
 30
0
  0
SPLINE
  5
10F
100
AcDbEntity
  8
0
  6
ByLayer
 62
  256
370
   -1
100
AcDbSpline
210
0
220
0
230
0
 70
    8
 71
    3
 72
    8
 73
    4
 74
    0
 42
1e-007
 43
1e-007
 40
0
 40
0
 40
0
 40
0
 40
1
 40
1
 40
1
 40
1
 10
212.3069317679356
 20
-95.57078089365453
 30
0
 10
212.2014512903785
 20
-94.97246976251195
 30
0
 10
211.6842792210426
 20
-94.53784759556471
 30
0
 10
211.077148443815
 20
-94.53784759556471
 30
0
  0
SPLINE
  5
110
100
AcDbEntity
  8
0
  6
ByLayer
 62
  256
370
   -1
100
AcDbSpline
210
0
220
0
230
0
 70
    8
 71
    3
 72
    8
 73
    4
 74
    0
 42
1e-007
 43
1e-007
 40
0
 40
0
 40
0
 40
0
 40
1
 40
1
 40
1
 40
1
 10
211.077148443815
 20
-94.53784759556471
 30
0
 10
211.0044757712408
 20
-94.53784759556471
 30
0
 10
210.9310979307019
 20
-94.54419763981539
 30
0
 10
210.8591317718328
 20
-94.55689756009922
 30
0
  0
SPLINE
  5
111
100
AcDbEntity
  8
0
  6
ByLayer
 62
  256
370
   -1
100
AcDbSpline
210
0
220
0
230
0
 70
    8
 71
    3
 72
    8
 73
    4
 74
    0
 42
1e-007
 43
1e-007
 40
0
 40
0
 40
0
 40
0
 40
1
 40
1
 40
1
 40
1
 10
210.8591317718328
 20
-94.55689756009922
 30
0
 10
210.1800348357361
 20
-94.67684205537466
 30
0
 10
209.7253037747845
 20
-95.32630595628751
 30
0
 10
209.8448956860776
 20
-96.00469755620199
 30
0
  0
SPLINE
  5
112
100
AcDbEntity
  8
0
  6
ByLayer
 62
  256
370
   -1
100
AcDbSpline
210
0
220
0
230
0
 70
    8
 71
    3
 72
    8
 73
    4
 74
    0
 42
1e-007
 43
1e-007
 40
0
 40
0
 40
0
 40
0
 40
1
 40
1
 40
1
 40
1
 10
209.8448956860776
 20
-96.00469755620199
 30
0
 10
209.950728747617
 20
-96.60371419174436
 30
0
 10
210.4679008169529
 20
-97.03798360649169
 30
0
 10
211.0750315941806
 20
-97.03798369060047
 30
0
  0
SPLINE
  5
113
100
AcDbEntity
  8
0
  6
ByLayer
 62
  256
370
   -1
100
AcDbSpline
210
0
220
0
230
0
 70
    8
 71
    3
 72
    8
 73
    4
 74
    0
 42
1e-007
 43
1e-007
 40
0
 40
0
 40
0
 40
0
 40
1
 40
1
 40
1
 40
1
 10
245.8881996945952
 20
-78.26244497571003
 30
0
 10
245.9612249511517
 20
-78.26244497571003
 30
0
 10
246.0346027916906
 20
-78.25644835652943
 30
0
 10
246.1065702963
 20
-78.24374725872278
 30
0
  0
SPLINE
  5
114
100
AcDbEntity
  8
0
  6
ByLayer
 62
  256
370
   -1
100
AcDbSpline
210
0
220
0
230
0
 70
    8
 71
    3
 72
    8
 73
    4
 74
    0
 42
1e-007
 43
1e-007
 40
0
 40
0
 40
0
 40
0
 40
1
 40
1
 40
1
 40
1
 10
246.1065702963
 20
-78.24374725872278
 30
0
 10
246.7853159941548
 20
-78.12415534742966
 30
0
 10
247.240396947608
 20
-77.47433903075203
 30
0
 10
247.1204537980729
 20
-76.79559467863766
 30
0
  0
SPLINE
  5
115
100
AcDbEntity
  8
0
  6
ByLayer
 62
  256
370
   -1
100
AcDbSpline
210
0
220
0
230
0
 70
    8
 71
    3
 72
    8
 73
    4
 74
    0
 42
1e-007
 43
1e-007
 40
0
 40
0
 40
0
 40
0
 40
1
 40
1
 40
1
 40
1
 10
247.1204537980729
 20
-76.79559467863766
 30
0
 10
247.0149719747754
 20
-76.19693129994783
 30
0
 10
246.4974486671976
 20
-75.76266087589519
 30
0
 10
245.8906704739523
 20
-75.76266087589519
 30
0
  0
SPLINE
  5
116
100
AcDbEntity
  8
0
  6
ByLayer
 62
  256
370
   -1
100
AcDbSpline
210
0
220
0
230
0
 70
    8
 71
    3
 72
    8
 73
    4
 74
    0
 42
1e-007
 43
1e-007
 40
0
 40
0
 40
0
 40
0
 40
1
 40
1
 40
1
 40
1
 10
245.8906704739523
 20
-75.76266087589519
 30
0
 10
245.8176452173958
 20
-75.76266087589519
 30
0
 10
245.7442673768569
 20
-75.76901142479852
 30
0
 10
245.6722998722474
 20
-75.78135859288244
 30
0
  0
SPLINE
  5
117
100
AcDbEntity
  8
0
  6
ByLayer
 62
  256
370
   -1
100
AcDbSpline
210
0
220
0
230
0
 70
    8
 71
    3
 72
    8
 73
    4
 74
    0
 42
1e-007
 43
1e-007
 40
0
 40
0
 40
0
 40
0
 40
1
 40
1
 40
1
 40
1
 10
245.6722998722474
 20
-75.78135859288244
 30
0
 10
245.3435112714922
 20
-75.83956724773827
 30
0
 10
245.0570556262048
 20
-76.02230533538038
 30
0
 10
244.8654975560426
 20
-76.29570864461924
 30
0
  0
SPLINE
  5
118
100
AcDbEntity
  8
0
  6
ByLayer
 62
  256
370
   -1
100
AcDbSpline
210
0
220
0
230
0
 70
    8
 71
    3
 72
    8
 73
    4
 74
    0
 42
1e-007
 43
1e-007
 40
0
 40
0
 40
0
 40
0
 40
1
 40
1
 40
1
 40
1
 10
244.8654975560426
 20
-76.29570864461924
 30
0
 10
244.6739394858803
 20
-76.56911195385811
 30
0
 10
244.6002090613591
 20
-76.9007225722124
 30
0
 10
244.6584163704746
 20
-77.22986375694991
 30
0
  0
SPLINE
  5
119
100
AcDbEntity
  8
0
  6
ByLayer
 62
  256
370
   -1
100
AcDbSpline
210
0
220
0
230
0
 70
    8
 71
    3
 72
    8
 73
    4
 74
    0
 42
1e-007
 43
1e-007
 40
0
 40
0
 40
0
 40
0
 40
1
 40
1
 40
1
 40
1
 10
244.6584163704746
 20
-77.22986375694991
 30
0
 10
244.7638968480316
 20
-77.8281745516574
 30
0
 10
245.2810689173675
 20
-78.26244362996964
 30
0
 10
245.8881996945952
 20
-78.26244497571003
 30
0
  0
LINE
  5
11A
100
AcDbEntity
  8
0
  6
ByLayer
 62
  256
370
   -1
100
AcDbLine
 10
207.9578837072079
 20
-97.803157966976
 11
207.9573652433869
 21
-94.30315800537667
  0
LINE
  5
11B
100
AcDbEntity
  8
0
  6
ByLayer
 62
  256
370
   -1
100
AcDbLine
 10
207.9573652433869
 20
-94.30315800537667
 11
204.2073832583057
 21
-94.31478175547383
  0
LINE
  5
11C
100
AcDbEntity
  8
0
  6
ByLayer
 62
  256
370
   -1
100
AcDbLine
 10
204.2073832583057
 20
-94.31478175547383
 11
204.2043296779921
 21
-74.01835860765343
  0
LINE
  5
11D
100
AcDbEntity
  8
0
  6
ByLayer
 62
  256
370
   -1
100
AcDbLine
 10
208.8712255986572
 20
-74.01746974809079
 11
208.8711624558434
 21
-74.01746975759056
  0
LINE
  5
11E
100
AcDbEntity
  8
0
  6
ByLayer
 62
  256
370
   -1
100
AcDbLine
 10
204.2043296779921
 20
-74.01835860765343
 11
208.8711624558434
 21
-74.01746975759056
  0
SPLINE
  5
11F
100
AcDbEntity
  8
0
  6
ByLayer
 62
  256
370
   -1
100
AcDbSpline
210
0
220
0
230
0
 70
    8
 71
    3
 72
    8
 73
    4
 74
    0
 42
1e-007
 43
1e-007
 40
0
 40
0
 40
0
 40
0
 40
1
 40
1
 40
1
 40
1
 10
28.79523779879182
 20
-80.85872039978344
 30
0
 10
28.18775447963626
 20
-80.85872039978344
 30
0
 10
27.69527670441381
 20
-80.366242624561
 30
0
 10
27.69527670441381
 20
-79.75875930540543
 30
0
  0
SPLINE
  5
120
100
AcDbEntity
  8
0
  6
ByLayer
 62
  256
370
   -1
100
AcDbSpline
210
0
220
0
230
0
 70
    8
 71
    3
 72
    8
 73
    4
 74
    0
 42
1e-007
 43
1e-007
 40
0
 40
0
 40
0
 40
0
 40
1
 40
1
 40
1
 40
1
 10
27.69527670441381
 20
-79.75875930540543
 30
0
 10
27.69527670441381
 20
-79.1512759441955
 30
0
 10
28.18775447963626
 20
-78.65879821102743
 30
0
 10
28.79523779879182
 20
-78.65879821102743
 30
0
  0
SPLINE
  5
121
100
AcDbEntity
  8
0
  6
ByLayer
 62
  256
370
   -1
100
AcDbSpline
210
0
220
0
230
0
 70
    8
 71
    3
 72
    8
 73
    4
 74
    0
 42
1e-007
 43
1e-007
 40
0
 40
0
 40
0
 40
0
 40
1
 40
1
 40
1
 40
1
 10
28.79523779879182
 20
-78.65879821102743
 30
0
 10
29.40272111794739
 20
-78.65879821102743
 30
0
 10
29.89519889316983
 20
-79.1512759441955
 30
0
 10
29.89519889316983
 20
-79.75875930540543
 30
0
  0
SPLINE
  5
122
100
AcDbEntity
  8
0
  6
ByLayer
 62
  256
370
   -1
100
AcDbSpline
210
0
220
0
230
0
 70
    8
 71
    3
 72
    8
 73
    4
 74
    0
 42
1e-007
 43
1e-007
 40
0
 40
0
 40
0
 40
0
 40
1
 40
1
 40
1
 40
1
 10
29.89519889316983
 20
-79.75875930540543
 30
0
 10
29.89519889316983
 20
-80.366242624561
 30
0
 10
29.40272111794739
 20
-80.85872039978344
 30
0
 10
28.79523779879182
 20
-80.85872039978344
 30
0
  0
SPLINE
  5
123
100
AcDbEntity
  8
0
  6
ByLayer
 62
  256
370
   -1
100
AcDbSpline
210
0
220
0
230
0
 70
    8
 71
    3
 72
    8
 73
    4
 74
    0
 42
1e-007
 43
1e-007
 40
0
 40
0
 40
0
 40
0
 40
1
 40
1
 40
1
 40
1
 10
28.79523779879182
 20
-77.25862329447845
 30
0
 10
30.17389331718952
 20
-77.25862329447845
 30
0
 10
31.2953738097188
 20
-78.38010378700776
 30
0
 10
31.2953738097188
 20
-79.75875930540543
 30
0
  0
SPLINE
  5
124
100
AcDbEntity
  8
0
  6
ByLayer
 62
  256
370
   -1
100
AcDbSpline
210
0
220
0
230
0
 70
    8
 71
    3
 72
    8
 73
    4
 74
    0
 42
1e-007
 43
1e-007
 40
0
 40
0
 40
0
 40
0
 40
1
 40
1
 40
1
 40
1
 10
31.2953738097188
 20
-79.75875930540543
 30
0
 10
31.2953738097188
 20
-81.13741482380313
 30
0
 10
30.17389331718952
 20
-82.25854256413253
 30
0
 10
28.79523779879182
 20
-82.25854256413253
 30
0
  0
SPLINE
  5
125
100
AcDbEntity
  8
0
  6
ByLayer
 62
  256
370
   -1
100
AcDbSpline
210
0
220
0
230
0
 70
    8
 71
    3
 72
    8
 73
    4
 74
    0
 42
1e-007
 43
1e-007
 40
0
 40
0
 40
0
 40
0
 40
1
 40
1
 40
1
 40
1
 10
28.79523779879182
 20
-82.25854256413253
 30
0
 10
27.41658228039413
 20
-82.25854256413253
 30
0
 10
26.29545454006473
 20
-81.13741482380313
 30
0
 10
26.29545454006473
 20
-79.75875930540543
 30
0
  0
SPLINE
  5
126
100
AcDbEntity
  8
0
  6
ByLayer
 62
  256
370
   -1
100
AcDbSpline
210
0
220
0
230
0
 70
    8
 71
    3
 72
    8
 73
    4
 74
    0
 42
1e-007
 43
1e-007
 40
0
 40
0
 40
0
 40
0
 40
1
 40
1
 40
1
 40
1
 10
26.29545454006473
 20
-79.75875930540543
 30
0
 10
26.29545454006473
 20
-78.38010378700776
 30
0
 10
27.41658228039413
 20
-77.25862329447845
 30
0
 10
28.79523779879182
 20
-77.25862329447845
 30
0
  0
SPLINE
  5
127
100
AcDbEntity
  8
0
  6
ByLayer
 62
  256
370
   -1
100
AcDbSpline
210
0
220
0
230
0
 70
    8
 71
    3
 72
    8
 73
    4
 74
    0
 42
1e-007
 43
1e-007
 40
0
 40
0
 40
0
 40
0
 40
1
 40
1
 40
1
 40
1
 10
15.90816006541321
 20
-80.85872039978344
 30
0
 10
15.30067674625767
 20
-80.85872039978344
 30
0
 10
14.80819897103522
 20
-80.366242624561
 30
0
 10
14.80819897103522
 20
-79.75875930540543
 30
0
  0
SPLINE
  5
128
100
AcDbEntity
  8
0
  6
ByLayer
 62
  256
370
   -1
100
AcDbSpline
210
0
220
0
230
0
 70
    8
 71
    3
 72
    8
 73
    4
 74
    0
 42
1e-007
 43
1e-007
 40
0
 40
0
 40
0
 40
0
 40
1
 40
1
 40
1
 40
1
 10
14.80819897103522
 20
-79.75875930540543
 30
0
 10
14.80819897103522
 20
-79.1512759441955
 30
0
 10
15.30067674625767
 20
-78.65879821102743
 30
0
 10
15.90816006541321
 20
-78.65879821102743
 30
0
  0
SPLINE
  5
129
100
AcDbEntity
  8
0
  6
ByLayer
 62
  256
370
   -1
100
AcDbSpline
210
0
220
0
230
0
 70
    8
 71
    3
 72
    8
 73
    4
 74
    0
 42
1e-007
 43
1e-007
 40
0
 40
0
 40
0
 40
0
 40
1
 40
1
 40
1
 40
1
 10
15.90816006541321
 20
-78.65879821102743
 30
0
 10
16.51564338456878
 20
-78.65879821102743
 30
0
 10
17.00812115979122
 20
-79.1512759441955
 30
0
 10
17.00812115979122
 20
-79.75875930540543
 30
0
  0
SPLINE
  5
12A
100
AcDbEntity
  8
0
  6
ByLayer
 62
  256
370
   -1
100
AcDbSpline
210
0
220
0
230
0
 70
    8
 71
    3
 72
    8
 73
    4
 74
    0
 42
1e-007
 43
1e-007
 40
0
 40
0
 40
0
 40
0
 40
1
 40
1
 40
1
 40
1
 10
17.00812115979122
 20
-79.75875930540543
 30
0
 10
17.00812115979122
 20
-80.366242624561
 30
0
 10
16.51564338456878
 20
-80.85872039978344
 30
0
 10
15.90816006541321
 20
-80.85872039978344
 30
0
  0
SPLINE
  5
12B
100
AcDbEntity
  8
0
  6
ByLayer
 62
  256
370
   -1
100
AcDbSpline
210
0
220
0
230
0
 70
    8
 71
    3
 72
    8
 73
    4
 74
    0
 42
1e-007
 43
1e-007
 40
0
 40
0
 40
0
 40
0
 40
1
 40
1
 40
1
 40
1
 10
15.90816006541321
 20
-77.25862329447845
 30
0
 10
17.2868155838109
 20
-77.25862329447845
 30
0
 10
18.4079433241403
 20
-78.38010378700776
 30
0
 10
18.4079433241403
 20
-79.75875930540543
 30
0
  0
SPLINE
  5
12C
100
AcDbEntity
  8
0
  6
ByLayer
 62
  256
370
   -1
100
AcDbSpline
210
0
220
0
230
0
 70
    8
 71
    3
 72
    8
 73
    4
 74
    0
 42
1e-007
 43
1e-007
 40
0
 40
0
 40
0
 40
0
 40
1
 40
1
 40
1
 40
1
 10
18.4079433241403
 20
-79.75875930540543
 30
0
 10
18.4079433241403
 20
-81.13741482380313
 30
0
 10
17.2868155838109
 20
-82.25854256413253
 30
0
 10
15.90816006541321
 20
-82.25854256413253
 30
0
  0
SPLINE
  5
12D
100
AcDbEntity
  8
0
  6
ByLayer
 62
  256
370
   -1
100
AcDbSpline
210
0
220
0
230
0
 70
    8
 71
    3
 72
    8
 73
    4
 74
    0
 42
1e-007
 43
1e-007
 40
0
 40
0
 40
0
 40
0
 40
1
 40
1
 40
1
 40
1
 10
15.90816006541321
 20
-82.25854256413253
 30
0
 10
14.52950454701553
 20
-82.25854256413253
 30
0
 10
13.40802405448626
 20
-81.13741482380313
 30
0
 10
13.40802405448626
 20
-79.75875930540543
 30
0
  0
SPLINE
  5
12E
100
AcDbEntity
  8
0
  6
ByLayer
 62
  256
370
   -1
100
AcDbSpline
210
0
220
0
230
0
 70
    8
 71
    3
 72
    8
 73
    4
 74
    0
 42
1e-007
 43
1e-007
 40
0
 40
0
 40
0
 40
0
 40
1
 40
1
 40
1
 40
1
 10
13.40802405448626
 20
-79.75875930540543
 30
0
 10
13.40802405448626
 20
-78.38010378700776
 30
0
 10
14.52950454701553
 20
-77.25862329447845
 30
0
 10
15.90816006541321
 20
-77.25862329447845
 30
0
  0
SPLINE
  5
12F
100
AcDbEntity
  8
0
  6
ByLayer
 62
  256
370
   -1
100
AcDbSpline
210
0
220
0
230
0
 70
    8
 71
    3
 72
    8
 73
    4
 74
    0
 42
1e-007
 43
1e-007
 40
0
 40
0
 40
0
 40
0
 40
1
 40
1
 40
1
 40
1
 10
40.98656721623079
 20
-80.85872039978344
 30
0
 10
40.37908389707525
 20
-80.85872039978344
 30
0
 10
39.8866061218528
 20
-80.366242624561
 30
0
 10
39.8866061218528
 20
-79.75875930540543
 30
0
  0
SPLINE
  5
130
100
AcDbEntity
  8
0
  6
ByLayer
 62
  256
370
   -1
100
AcDbSpline
210
0
220
0
230
0
 70
    8
 71
    3
 72
    8
 73
    4
 74
    0
 42
1e-007
 43
1e-007
 40
0
 40
0
 40
0
 40
0
 40
1
 40
1
 40
1
 40
1
 10
39.8866061218528
 20
-79.75875930540543
 30
0
 10
39.8866061218528
 20
-79.1512759441955
 30
0
 10
40.37908389707525
 20
-78.65879821102743
 30
0
 10
40.98656721623079
 20
-78.65879821102743
 30
0
  0
SPLINE
  5
131
100
AcDbEntity
  8
0
  6
ByLayer
 62
  256
370
   -1
100
AcDbSpline
210
0
220
0
230
0
 70
    8
 71
    3
 72
    8
 73
    4
 74
    0
 42
1e-007
 43
1e-007
 40
0
 40
0
 40
0
 40
0
 40
1
 40
1
 40
1
 40
1
 10
40.98656721623079
 20
-78.65879821102743
 30
0
 10
41.59405053538635
 20
-78.65879821102743
 30
0
 10
42.08652831060883
 20
-79.1512759441955
 30
0
 10
42.08652831060883
 20
-79.75875930540543
 30
0
  0
SPLINE
  5
132
100
AcDbEntity
  8
0
  6
ByLayer
 62
  256
370
   -1
100
AcDbSpline
210
0
220
0
230
0
 70
    8
 71
    3
 72
    8
 73
    4
 74
    0
 42
1e-007
 43
1e-007
 40
0
 40
0
 40
0
 40
0
 40
1
 40
1
 40
1
 40
1
 10
42.08652831060883
 20
-79.75875930540543
 30
0
 10
42.08652831060883
 20
-80.366242624561
 30
0
 10
41.59405053538635
 20
-80.85872039978344
 30
0
 10
40.98656721623079
 20
-80.85872039978344
 30
0
  0
SPLINE
  5
133
100
AcDbEntity
  8
0
  6
ByLayer
 62
  256
370
   -1
100
AcDbSpline
210
0
220
0
230
0
 70
    8
 71
    3
 72
    8
 73
    4
 74
    0
 42
1e-007
 43
1e-007
 40
0
 40
0
 40
0
 40
0
 40
1
 40
1
 40
1
 40
1
 10
40.98656721623079
 20
-77.25862329447845
 30
0
 10
42.36486998242859
 20
-77.25862329447845
 30
0
 10
43.4867032271578
 20
-78.38010378700776
 30
0
 10
43.4867032271578
 20
-79.75875930540543
 30
0
  0
SPLINE
  5
134
100
AcDbEntity
  8
0
  6
ByLayer
 62
  256
370
   -1
100
AcDbSpline
210
0
220
0
230
0
 70
    8
 71
    3
 72
    8
 73
    4
 74
    0
 42
1e-007
 43
1e-007
 40
0
 40
0
 40
0
 40
0
 40
1
 40
1
 40
1
 40
1
 10
43.4867032271578
 20
-79.75875930540543
 30
0
 10
43.4867032271578
 20
-81.13741482380313
 30
0
 10
42.36486989831983
 20
-82.25854256413253
 30
0
 10
40.98656721623079
 20
-82.25854256413253
 30
0
  0
SPLINE
  5
135
100
AcDbEntity
  8
0
  6
ByLayer
 62
  256
370
   -1
100
AcDbSpline
210
0
220
0
230
0
 70
    8
 71
    3
 72
    8
 73
    4
 74
    0
 42
1e-007
 43
1e-007
 40
0
 40
0
 40
0
 40
0
 40
1
 40
1
 40
1
 40
1
 10
40.98656721623079
 20
-82.25854256413253
 30
0
 10
39.60791169783312
 20
-82.25854256413253
 30
0
 10
38.48643120530384
 20
-81.13741482380313
 30
0
 10
38.48643120530384
 20
-79.75875930540543
 30
0
  0
SPLINE
  5
136
100
AcDbEntity
  8
0
  6
ByLayer
 62
  256
370
   -1
100
AcDbSpline
210
0
220
0
230
0
 70
    8
 71
    3
 72
    8
 73
    4
 74
    0
 42
1e-007
 43
1e-007
 40
0
 40
0
 40
0
 40
0
 40
1
 40
1
 40
1
 40
1
 10
38.48643120530384
 20
-79.75875930540543
 30
0
 10
38.48643120530384
 20
-78.38010378700776
 30
0
 10
39.60791169783312
 20
-77.25862329447845
 30
0
 10
40.98656721623079
 20
-77.25862329447845
 30
0
  0
ENDSEC
  0
SECTION
  2
OBJECTS
  0
DICTIONARY
  5
C
330
0
100
AcDbDictionary
281
    1
  3
ACAD_GROUP
350
D
  0
DICTIONARY
  5
D
330
C
100
AcDbDictionary
281
    1
  0
ENDSEC
  0
EOF
