0
SECTION
2
HEADER
9
$INSUNITS
70
4
9
$ACADVER
1
AC1014
9
$HANDSEED
5
FFFF
0
ENDSEC
0
SECTION
2
TABLES
0
TABLE
2
VPORT
5
8
100
AcDbSymbolTable
0
ENDTAB
0
TABLE
2
LTYPE
5
5
100
AcDbSymbolTable
0
LTYPE
5
14
100
AcDbSymbolTableRecord
100
AcDbLinetypeTableRecord
2
BYBLOCK
70
0
0
LTYPE
5
15
100
AcDbSymbolTableRecord
100
AcDbLinetypeTableRecord
2
BYLAYER
70
0
0
ENDTAB
0
TABLE
2
LAYER
5
2
100
AcDbSymbolTable
70
2
0
LAYER
5
50
100
AcDbSymbolTableRecord
100
AcDbLayerTableRecord
2
0
70
0
6
CONTINUOUS
0
ENDTAB
0
TABLE
2
STYLE
5
3
100
AcDbSymbolTable
70
1
0
STYLE
5
11
100
AcDbSymbolTableRecord
100
AcDbTextStyleTableRecord
2
STANDARD
70
0
0
ENDTAB
0
TABLE
2
VIEW
5
6
100
AcDbSymbolTable
70
0
0
ENDTAB
0
TABLE
2
UCS
5
7
100
AcDbSymbolTable
70
0
0
ENDTAB
0
TABLE
2
APPID
5
9
100
AcDbSymbolTable
70
2
0
APPID
5
12
100
AcDbSymbolTableRecord
100
AcDbRegAppTableRecord
2
ACAD
70
0
0
ENDTAB
0
TABLE
2
DIMSTYLE
5
A
100
AcDbSymbolTable
70
1
0
ENDTAB
0
TABLE
2
BLOCK_RECORD
5
1
100
AcDbSymbolTable
70
1
0
BLOCK_RECORD
5
1F
100
AcDbSymbolTableRecord
100
AcDbBlockTableRecord
2
*MODEL_SPACE
0
BLOCK_RECORD
5
1B
100
AcDbSymbolTableRecord
100
AcDbBlockTableRecord
2
*PAPER_SPACE
0
ENDTAB
0
ENDSEC
0
SECTION
2
BLOCKS
0
BLOCK
5
20
100
AcDbEntity
100
AcDbBlockBegin
2
*MODEL_SPACE
0
ENDBLK
5
21
100
AcDbEntity
100
AcDbBlockEnd
0
BLOCK
5
1C
100
AcDbEntity
100
AcDbBlockBegin
2
*PAPER_SPACE
0
ENDBLK
5
1D
100
AcDbEntity
100
AcDbBlockEnd
0
ENDSEC
0
SECTION
2
ENTITIES
0
LINE
5
100
100
AcDbEntity
8
0
100
AcDbLine
10
237.3128643449561
20
-65.228912997733929
30
0
11
237.30545601190784
21
-65.186932442260627
31
0
0
SPLINE
5
101
100
AcDbEntity
8
0
100
AcDbSpline
70
4
71
3
72
8
73
4
74
0
42
0.000000001
43
0.0000000001
44
0.0000000001
40
0
40
0
40
0
40
0
40
1
40
1
40
1
40
1
41
1
41
1
41
1
41
1
10
237.30545601190784
20
-65.186932442260641
30
0
10
237.21232268206461
20
-64.659176897501865
30
0
10
236.6009588468975
20
-64.435163017577693
30
0
10
236.16845327725841
20
-64.751957454775138
30
0
0
SPLINE
5
102
100
AcDbEntity
8
0
100
AcDbSpline
70
4
71
3
72
8
73
4
74
0
42
0.000000001
43
0.0000000001
44
0.0000000001
40
0
40
0
40
0
40
0
40
1
40
1
40
1
40
1
41
1
41
1
41
1
41
1
10
236.16845327725841
20
-64.751957454775138
30
0
10
235.67315335827368
20
-65.114965794509288
30
0
10
235.06178938642984
20
-65.32910189791194
30
0
10
234.39997831743307
20
-65.32910189791194
30
0
0
SPLINE
5
103
100
AcDbEntity
8
0
100
AcDbSpline
70
4
71
3
72
8
73
4
74
0
42
0.000000001
43
0.0000000001
44
0.0000000001
40
0
40
0
40
0
40
0
40
1
40
1
40
1
40
1
41
1
41
1
41
1
41
1
10
234.39997831743307
20
-65.32910189791194
30
0
10
232.87350902957547
20
-65.32910189791194
30
0
10
231.61620935168793
20
-64.18786589439398
30
0
10
231.42712004227229
20
-62.712549208089136
30
0
0
LINE
5
104
100
AcDbEntity
8
0
100
AcDbLine
10
231.42712004227229
20
-62.712549208089136
30
0
11
217.94465912288274
21
-65.089918537923978
31
0
0
LINE
5
105
100
AcDbEntity
8
0
100
AcDbLine
10
217.94465912288274
20
-65.089918537923978
30
0
11
215.35738709453341
21
-50.416479055012431
31
0
0
LINE
5
106
100
AcDbEntity
8
0
100
AcDbLine
10
215.35738709453341
20
-50.416479055012431
30
0
11
229.04586942893334
21
-48.002773893543129
31
0
0
LINE
5
107
100
AcDbEntity
8
0
100
AcDbLine
10
229.04586942893334
20
-48.002773893543129
30
0
11
231.03624167137471
21
-59.290251491410245
31
0
0
SPLINE
5
108
100
AcDbEntity
8
0
100
AcDbSpline
70
4
71
3
72
8
73
4
74
0
42
0.000000001
43
0.0000000001
44
0.0000000001
40
0
40
0
40
0
40
0
40
1
40
1
40
1
40
1
41
1
41
1
41
1
41
1
10
231.03624167137474
20
-59.290251491410231
30
0
10
231.16606390111735
20
-60.025793153145763
30
0
10
232.02084455372855
20
-60.355993099135588
30
0
10
232.62197770247025
20
-59.912904374738325
30
0
0
SPLINE
5
109
100
AcDbEntity
8
0
100
AcDbSpline
70
4
71
3
72
8
73
4
74
0
42
0.000000001
43
0.0000000001
44
0.0000000001
40
0
40
0
40
0
40
0
40
1
40
1
40
1
40
1
41
1
41
1
41
1
41
1
10
232.62197770247025
20
-59.912904374738325
30
0
10
233.11939430287191
20
-59.546015508479059
30
0
10
233.73428596493216
20
-59.329057261314119
30
0
10
234.39997764456285
20
-59.329057261314119
30
0
0
SPLINE
5
110
100
AcDbEntity
8
0
100
AcDbSpline
70
4
71
3
72
8
73
4
74
0
42
0.000000001
43
0.0000000001
44
0.0000000001
40
0
40
0
40
0
40
0
40
1
40
1
40
1
40
1
41
1
41
1
41
1
41
1
10
234.39997764456285
20
-59.329057261314119
30
0
10
234.5721331662082
20
-59.329057261314119
30
0
10
234.74076099763718
20
-59.343873863014821
30
0
10
234.90480254581485
20
-59.371743473634339
30
0
0
SPLINE
5
111
100
AcDbEntity
8
0
100
AcDbSpline
70
4
71
3
72
8
73
4
74
0
42
0.000000001
43
0.0000000001
44
0.0000000001
40
0
40
0
40
0
40
0
40
1
40
1
40
1
40
1
41
1
41
1
41
1
41
1
10
234.90480254581485
20
-59.371743473634339
30
0
10
235.593072048414
20
-59.489218535293006
30
0
10
236.20161366622364
20
-58.926184979185194
30
0
10
236.08025807803983
20
-58.238268733438559
30
0
0
LINE
5
112
100
AcDbEntity
8
0
100
AcDbLine
10
236.0802580780398
20
-58.238268733438559
30
0
11
234.72559147551897
21
-50.55512126727514
31
0
0
LINE
5
113
100
AcDbEntity
8
0
100
AcDbLine
10
234.72559147551897
20
-50.55512126727514
30
0
11
248.41442790785919
21
-48.141416105805838
31
0
0
LINE
5
114
100
AcDbEntity
8
0
100
AcDbLine
10
248.41442790785919
20
-48.141416105805838
30
0
11
250.03332466435506
21
-57.323163249207298
31
0
0
LINE
5
115
100
AcDbEntity
8
0
100
AcDbLine
10
250.03332466435506
20
-57.323163249207298
30
0
11
251.00169926333837
21
-62.815207499829533
31
0
0
LINE
5
116
100
AcDbEntity
8
0
100
AcDbLine
10
251.00169926333837
20
-62.815207499829533
30
0
11
237.3128643449561
21
-65.228912997733929
31
0
0
LWPOLYLINE
5
117
100
AcDbEntity
8
0
100
AcDbPolyline
90
4
70
1
43
0.0
10
212.04939034258433
20
-31.655758539889412
10
225.7378726769843
20
-29.24205203267973
10
228.32514470533363
20
-43.915491179156191
10
214.63666237093366
20
-46.329548924607835
0
LWPOLYLINE
5
118
100
AcDbEntity
8
0
100
AcDbPolyline
90
4
70
1
43
0.0
10
198.57610131682705
20
-64.95127598922619
10
195.98882928847772
20
-50.277484258767387
10
209.67766555260042
20
-47.863779097298078
10
212.26493758094972
20
-62.537570827756888
0
LWPOLYLINE
5
119
100
AcDbEntity
8
0
100
AcDbPolyline
90
4
70
1
43
0.0
10
196.89335254314733
20
-85.071955987935127
10
182.99285015594586
20
-85.071955987935127
10
182.99320543140897
20
-70.1720341166791
10
196.89335523462816
20
-70.1720341166791
0
LWPOLYLINE
5
120
100
AcDbEntity
8
0
100
AcDbPolyline
90
4
70
1
43
0.0
10
179.20825137021683
20
-64.813340290668563
10
176.62097934186755
20
-50.139901144192095
10
190.30981291450939
20
-47.726195982722793
10
192.89708494285873
20
-62.399635129199247
0
SPLINE
5
121
100
AcDbEntity
8
0
100
AcDbSpline
70
4
71
3
72
8
73
4
74
0
42
0.000000001
43
0.0000000001
44
0.0000000001
40
0
40
0
40
0
40
0
40
1
40
1
40
1
40
1
41
1
41
1
41
1
41
1
10
175.69423253038718
20
-76.201358825988962
30
0
10
174.25842442690524
20
-76.201358825988962
30
0
10
173.09461198821353
20
-75.037545041556896
30
0
10
173.09461198821353
20
-73.601387045573375
30
0
0
SPLINE
5
122
100
AcDbEntity
8
0
100
AcDbSpline
70
4
71
3
72
8
73
4
74
0
42
0.000000001
43
0.0000000001
44
0.0000000001
40
0
40
0
40
0
40
0
40
1
40
1
40
1
40
1
41
1
41
1
41
1
41
1
10
173.09461198821353
20
-73.601387045573375
30
0
10
173.09461198821353
20
-72.165581633572188
30
0
10
174.25842442690524
20
-71.00141526515776
30
0
10
175.69423253038718
20
-71.00141526515776
30
0
0
SPLINE
5
123
100
AcDbEntity
8
0
100
AcDbSpline
70
4
71
3
72
8
73
4
74
0
42
0.000000001
43
0.0000000001
44
0.0000000001
40
0
40
0
40
0
40
0
40
1
40
1
40
1
40
1
41
1
41
1
41
1
41
1
10
175.69423253038718
20
-71.00141526515776
30
0
10
177.13039052637072
20
-71.00141526515776
30
0
10
178.2942029650624
20
-72.165581633572188
30
0
10
178.2942029650624
20
-73.601387045573375
30
0
0
SPLINE
5
124
100
AcDbEntity
8
0
100
AcDbSpline
70
4
71
3
72
8
73
4
74
0
42
0.000000001
43
0.0000000001
44
0.0000000001
40
0
40
0
40
0
40
0
40
1
40
1
40
1
40
1
41
1
41
1
41
1
41
1
10
178.2942029650624
20
-73.601387045573375
30
0
10
178.2942029650624
20
-75.037545041556896
30
0
10
177.13039052637072
20
-76.201358825988962
30
0
10
175.69423253038718
20
-76.201358825988962
30
0
0
LWPOLYLINE
5
125
100
AcDbEntity
8
0
100
AcDbPolyline
90
4
70
1
43
0.0
10
160.37873795206579
20
-97.773367352104856
10
156.5221689702465
20
-83.38109239969998
10
169.94888999552677
20
-79.783464055141579
10
173.80545897734612
20
-94.175740353286869
0
LWPOLYLINE
5
126
100
AcDbEntity
8
0
100
AcDbPolyline
90
4
70
1
43
0.0
10
142.90212426341151
20
-78.321906555025521
10
140.3148468521006
20
-63.648467408549067
10
154.00368580770402
20
-61.234761910644657
10
156.59131311151651
20
-75.908201393556212
0
LINE
5
127
100
AcDbEntity
8
0
100
AcDbLine
10
146.10041087575576
20
-92.583654109723142
30
0
11
146.09441425657513
21
-92.583654109723142
31
0
0
LINE
5
128
100
AcDbEntity
8
0
100
AcDbLine
10
146.09441425657513
20
-92.583654109723142
30
0
11
146.09476953203827
21
-99.788080673861614
31
0
0
LINE
5
129
100
AcDbEntity
8
0
100
AcDbLine
10
146.09476953203827
20
-99.788080673861614
30
0
11
143.03901297594518
21
-99.789138425808645
31
0
0
SPLINE
5
130
100
AcDbEntity
8
0
100
AcDbSpline
70
4
71
3
72
8
73
4
74
0
42
0.000000001
43
0.0000000001
44
0.0000000001
40
0
40
0
40
0
40
0
40
1
40
1
40
1
40
1
41
1
41
1
41
1
41
1
10
143.03901297594518
20
-99.789138425808645
30
0
10
142.78536782712141
20
-100.25903867244327
30
0
10
142.29500156062622
20
-100.58183065401785
30
0
10
141.72385857292451
20
-100.58183065401785
30
0
0
SPLINE
5
131
100
AcDbEntity
8
0
100
AcDbSpline
70
4
71
3
72
8
73
4
74
0
42
0.000000001
43
0.0000000001
44
0.0000000001
40
0
40
0
40
0
40
0
40
1
40
1
40
1
40
1
41
1
41
1
41
1
41
1
10
141.72385857292451
20
-100.58183065401785
30
0
10
141.15236030975976
20
-100.58183065401785
30
0
10
140.66199404326457
20
-100.25903867244327
30
0
10
140.40870416990387
20
-99.789138425808645
30
0
0
LINE
5
132
100
AcDbEntity
8
0
100
AcDbLine
10
140.40870416990384
20
-99.789138425808645
30
0
11
138.26664074350214
21
-99.788080673861614
31
0
0
LINE
5
133
100
AcDbEntity
8
0
100
AcDbLine
10
138.26664074350214
20
-99.788080673861614
30
0
11
138.26664074350214
21
-99.305482020901081
31
0
0
LINE
5
134
100
AcDbEntity
8
0
100
AcDbLine
10
138.26664074350214
20
-99.305482020901081
30
0
11
121.33048716164338
21
-99.305482020901067
31
0
0
LINE
5
135
100
AcDbEntity
8
0
100
AcDbLine
10
121.33048716164338
20
-99.305482020901067
30
0
11
121.33048716164338
21
-99.789493701271752
31
0
0
LINE
5
136
100
AcDbEntity
8
0
100
AcDbLine
10
121.33048716164338
20
-99.789493701271752
30
0
11
119.16267164712676
21
-99.789493701271766
31
0
0
SPLINE
5
137
100
AcDbEntity
8
0
100
AcDbSpline
70
4
71
3
72
8
73
4
74
0
42
0.000000001
43
0.0000000001
44
0.0000000001
40
0
40
0
40
0
40
0
40
1
40
1
40
1
40
1
41
1
41
1
41
1
41
1
10
119.16267164712676
20
-99.789493701271766
30
0
10
118.90938177376609
20
-100.25904136392406
30
0
10
118.41901550727088
20
-100.58183334549864
30
0
10
117.84787251956921
20
-100.58183334549864
30
0
0
SPLINE
5
138
100
AcDbEntity
8
0
100
AcDbSpline
70
4
71
3
72
8
73
4
74
0
42
0.000000001
43
0.0000000001
44
0.0000000001
40
0
40
0
40
0
40
0
40
1
40
1
40
1
40
1
41
1
41
1
41
1
41
1
10
117.84787251956921
20
-100.58183334549864
30
0
10
117.27672953186753
20
-100.58183334549864
30
0
10
116.78636326537233
20
-100.25904136392406
30
0
10
116.53271811654854
20
-99.789493701271766
30
0
0
LINE
5
139
100
AcDbEntity
8
0
100
AcDbLine
10
116.53271811654852
20
-99.789493701271752
30
0
11
113.51153093960968
21
-99.789493701271766
31
0
0
LINE
5
140
100
AcDbEntity
8
0
100
AcDbLine
10
113.51153093960968
20
-99.789493701271766
30
0
11
113.51435161146841
21
-81.53959470658134
31
0
0
LINE
5
141
100
AcDbEntity
8
0
100
AcDbLine
10
113.51435161146841
20
-81.53959470658134
30
0
11
146.09443578842141
21
-81.535713591294794
31
0
0
LINE
5
142
100
AcDbEntity
8
0
100
AcDbLine
10
146.09443578842141
20
-81.535713591294794
30
0
11
146.09443578842141
21
-89.801298171388169
31
0
0
LINE
5
143
100
AcDbEntity
8
0
100
AcDbLine
10
146.09443578842141
20
-89.801298171388169
30
0
11
146.100432407602
21
-89.801298171388154
31
0
0
LINE
5
144
100
AcDbEntity
8
0
100
AcDbLine
10
146.100432407602
20
-89.801298171388154
30
0
11
146.10041087575576
21
-92.583654109723142
31
0
0
LWPOLYLINE
5
145
100
AcDbEntity
8
0
100
AcDbPolyline
90
4
70
1
43
0.0
10
103.01460516986054
20
-75.908201393556212
10
105.60188258117144
20
-61.234762247079772
10
119.2907215367749
20
-63.64846774498416
10
116.703099615924
20
-78.321906555025521
0
LWPOLYLINE
5
146
100
AcDbEntity
8
0
100
AcDbPolyline
90
4
70
1
43
0.0
10
99.224709549954056
20
-97.773367352104856
10
85.798343800136877
20
-94.175740353286855
10
89.654557506493006
20
-79.78346540088198
10
103.08092325631023
20
-83.381093745440353
0
SPLINE
5
147
100
AcDbEntity
8
0
100
AcDbSpline
70
4
71
3
72
8
73
4
74
0
42
0.000000001
43
0.0000000001
44
0.0000000001
40
0
40
0
40
0
40
0
40
1
40
1
40
1
40
1
41
1
41
1
41
1
41
1
10
83.914856315350121
20
-76.196067374773051
30
0
10
82.479048211868189
20
-76.196067374773051
30
0
10
81.314885880674922
20
-75.032253590340986
30
0
10
81.314885880674922
20
-73.59609559435745
30
0
0
SPLINE
5
148
100
AcDbEntity
8
0
100
AcDbSpline
70
4
71
3
72
8
73
4
74
0
42
0.000000001
43
0.0000000001
44
0.0000000001
40
0
40
0
40
0
40
0
40
1
40
1
40
1
40
1
41
1
41
1
41
1
41
1
10
81.314885880674922
20
-73.59609559435745
30
0
10
81.314885880674922
20
-72.159937598373929
30
0
10
82.479048211868189
20
-70.99612381394185
30
0
10
83.914856315350121
20
-70.99612381394185
30
0
0
SPLINE
5
149
100
AcDbEntity
8
0
100
AcDbSpline
70
4
71
3
72
8
73
4
74
0
42
0.000000001
43
0.0000000001
44
0.0000000001
40
0
40
0
40
0
40
0
40
1
40
1
40
1
40
1
41
1
41
1
41
1
41
1
10
83.914856315350121
20
-70.99612381394185
30
0
10
85.351019694295246
20
-70.99612381394185
30
0
10
86.515182025488485
20
-72.159937598373929
30
0
10
86.515182025488485
20
-73.59609559435745
30
0
0
SPLINE
5
150
100
AcDbEntity
8
0
100
AcDbSpline
70
4
71
3
72
8
73
4
74
0
42
0.000000001
43
0.0000000001
44
0.0000000001
40
0
40
0
40
0
40
0
40
1
40
1
40
1
40
1
41
1
41
1
41
1
41
1
10
86.515182025488485
20
-73.59609559435745
30
0
10
86.515182025488485
20
-75.032253590340986
30
0
10
85.351019694295246
20
-76.196067374773051
30
0
10
83.914856315350121
20
-76.196067374773051
30
0
0
LWPOLYLINE
5
151
100
AcDbEntity
8
0
100
AcDbPolyline
90
4
70
1
43
0.0
10
66.706357176199575
20
-62.397518279564814
10
69.293634587510468
20
-47.724079133088352
10
82.982473543113926
20
-50.137784294557655
10
80.395196131803019
20
-64.811223441034116
0
LWPOLYLINE
5
152
100
AcDbEntity
8
0
100
AcDbPolyline
90
4
70
1
43
0.0
10
76.61059734607403
20
-85.071957333675513
10
62.710800126837199
20
-85.071957333675513
10
62.710800126837199
20
-70.172035462419487
10
76.61059734607403
20
-70.172035462419487
0
LWPOLYLINE
5
153
100
AcDbEntity
8
0
100
AcDbPolyline
90
7
70
1
43
0.0
10
47.340270149501045
20
-62.537572173497281
10
47.427043489888135
20
-62.045094440329223
10
49.840741922655489
20
-48.356258176206538
10
49.927881304428823
20
-47.863780443038479
10
63.616364984569159
20
-50.277485604507774
10
63.52958087825894
20
-50.769963337675826
10
61.029087573258252
20
-64.951277334966576
0
LWPOLYLINE
5
154
100
AcDbEntity
8
0
100
AcDbPolyline
90
4
70
1
43
0.0
10
31.28005360493443
20
-43.915845108878919
10
33.867320250322216
20
-29.242054724160511
10
47.556148440002531
20
-31.655761231370203
10
44.968881794614745
20
-46.329552961829002
0
LINE
5
155
100
AcDbEntity
8
0
100
AcDbLine
10
41.660901191550394
20
-65.089919547229272
30
0
11
28.180199827721559
21
-62.712902969594317
31
0
0
SPLINE
5
156
100
AcDbEntity
8
0
100
AcDbSpline
70
4
71
3
72
8
73
4
74
0
42
0.000000001
43
0.0000000001
44
0.0000000001
40
0
40
0
40
0
40
0
40
1
40
1
40
1
40
1
41
1
41
1
41
1
41
1
10
28.180199827721559
20
-62.712902969594317
30
0
10
27.991107153954967
20
-64.188219655899161
30
0
10
26.733819587730892
20
-65.329102865162852
30
0
10
25.207340879690609
20
-65.329102865162852
30
0
0
SPLINE
5
157
100
AcDbEntity
8
0
100
AcDbSpline
70
4
71
3
72
8
73
4
74
0
42
0.000000001
43
0.0000000001
44
0.0000000001
40
0
40
0
40
0
40
0
40
1
40
1
40
1
40
1
41
1
41
1
41
1
41
1
10
25.207340879690609
20
-65.329102865162852
30
0
10
24.545172011967505
20
-65.329102865162852
30
0
10
23.933452260007869
20
-65.114261194278825
30
0
10
23.437444649795218
20
-64.750900081317596
30
0
0
SPLINE
5
158
100
AcDbEntity
8
0
100
AcDbSpline
70
4
71
3
72
8
73
4
74
0
42
0.000000001
43
0.0000000001
44
0.0000000001
40
0
40
0
40
0
40
0
40
1
40
1
40
1
40
1
41
1
41
1
41
1
41
1
10
23.437444649795218
20
-64.750900081317596
30
0
10
23.004934454173522
20
-64.433752849865854
30
0
10
22.393214702213918
20
-64.657413977590167
30
0
10
22.300089467183092
20
-65.185522290319227
30
0
0
LINE
5
159
100
AcDbEntity
8
0
100
AcDbLine
10
22.300089467183088
20
-65.185522290319227
30
0
11
22.292338002533146
21
-65.228912997733929
31
0
0
LINE
5
160
100
AcDbEntity
8
0
100
AcDbLine
10
22.292338002533146
20
-65.228912997733929
30
0
11
8.6035098128528009
21
-62.815207499829533
31
0
0
LINE
5
161
100
AcDbEntity
8
0
100
AcDbLine
10
8.6035098128528009
20
-62.815207499829533
30
0
11
11.19114249962683
21
-48.141416105805845
31
0
0
LINE
5
162
100
AcDbEntity
8
0
100
AcDbLine
10
11.19114249962683
20
-48.141416105805845
30
0
11
24.87997068930715
21
-50.555121267275133
31
0
0
LINE
5
163
100
AcDbEntity
8
0
100
AcDbLine
10
24.87997068930715
20
-50.555121267275133
30
0
11
23.525294582494816
21
-58.237562892603677
31
0
0
SPLINE
5
164
100
AcDbEntity
8
0
100
AcDbSpline
70
4
71
3
72
8
73
4
74
0
42
0.000000001
43
0.0000000001
44
0.0000000001
40
0
40
0
40
0
40
0
40
1
40
1
40
1
40
1
41
1
41
1
41
1
41
1
10
23.525294582494816
20
-58.237562892603677
30
0
10
23.403941097030394
20
-58.926184979185194
30
0
10
24.01284017713126
20
-59.489571119275347
30
0
10
24.702160702975512
20
-59.371743473634339
30
0
0
SPLINE
5
165
100
AcDbEntity
8
0
100
AcDbSpline
70
4
71
3
72
8
73
4
74
0
42
0.000000001
43
0.0000000001
44
0.0000000001
40
0
40
0
40
0
40
0
40
1
40
1
40
1
40
1
41
1
41
1
41
1
41
1
10
24.702160702975512
20
-59.371743473634339
30
0
10
24.866211839553483
20
-59.343873863014821
30
0
10
25.035172237076438
20
-59.329057261314119
30
0
10
25.207340879690609
20
-59.329057261314119
30
0
0
SPLINE
5
166
100
AcDbEntity
8
0
100
AcDbSpline
70
4
71
3
72
8
73
4
74
0
42
0.000000001
43
0.0000000001
44
0.0000000001
40
0
40
0
40
0
40
0
40
1
40
1
40
1
40
1
41
1
41
1
41
1
41
1
10
25.207340879690609
20
-59.329057261314119
30
0
10
25.87233041927248
20
-59.329057261314119
30
0
10
26.486870843090816
20
-59.545662924496725
30
0
10
26.98393351376972
20
-59.911846286356209
30
0
0
SPLINE
5
167
100
AcDbEntity
8
0
100
AcDbSpline
70
4
71
3
72
8
73
4
74
0
42
0.000000001
43
0.0000000001
44
0.0000000001
40
0
40
0
40
0
40
0
40
1
40
1
40
1
40
1
41
1
41
1
41
1
41
1
10
26.98393351376972
20
-59.911846286356209
30
0
10
27.585425638760629
20
-60.354935347188565
30
0
10
28.439486320262862
20
-60.024382480781291
30
0
10
28.56932335314972
20
-59.289193739463208
30
0
0
LINE
5
168
100
AcDbEntity
8
0
100
AcDbLine
10
28.56932335314972
20
-59.289193739463208
30
0
11
30.559339647257829
21
-48.002773893543129
31
0
0
LINE
5
169
100
AcDbEntity
8
0
100
AcDbLine
10
30.559339647257829
20
-48.002773893543129
30
0
11
44.248167836938151
21
-50.416479055012431
31
0
0
LINE
5
170
100
AcDbEntity
8
0
100
AcDbLine
10
44.248167836938151
20
-50.416479055012431
30
0
11
41.660901191550394
21
-65.089919547229272
31
0
0
LWPOLYLINE
5
171
100
AcDbEntity
8
0
100
AcDbPolyline
90
4
70
1
43
0.0
10
14.499123102691215
20
-29.381048174665164
10
28.18795129237153
20
-31.794754681874853
10
25.600684646983748
20
-46.468193828351325
10
11.911490415917182
20
-44.054841250864371
0
LINE
5
172
100
AcDbEntity
8
0
100
AcDbLine
10
17.807125237601824
20
-10.620329005282549
30
0
11
31.495953427282146
21
-13.034032821011456
31
0
0
LINE
5
173
100
AcDbEntity
8
0
100
AcDbLine
10
31.495953427282146
20
-13.034032821011456
30
0
11
30.162443125333461
21
-20.595118269394803
31
0
0
SPLINE
5
174
100
AcDbEntity
8
0
100
AcDbSpline
70
4
71
3
72
8
73
4
74
0
42
0.000000001
43
0.0000000001
44
0.0000000001
40
0
40
0
40
0
40
0
40
1
40
1
40
1
40
1
41
1
41
1
41
1
41
1
10
30.162443125333461
20
-20.595118269394803
30
0
10
30.038613477550292
20
-21.298910887399757
30
0
10
30.672209585299782
20
-21.908157168521406
30
0
10
31.366826945321517
20
-21.741646018509382
30
0
0
SPLINE
5
175
100
AcDbEntity
8
0
100
AcDbSpline
70
4
71
3
72
8
73
4
74
0
42
0.000000001
43
0.0000000001
44
0.0000000001
40
0
40
0
40
0
40
0
40
1
40
1
40
1
40
1
41
1
41
1
41
1
41
1
10
31.366826945321517
20
-21.741646018509382
30
0
10
31.590844273705457
20
-21.68837623088713
30
0
10
31.824378678131854
20
-21.659800779432739
30
0
10
32.064975528128222
20
-21.659800779432739
30
0
0
SPLINE
5
176
100
AcDbEntity
8
0
100
AcDbSpline
70
4
71
3
72
8
73
4
74
0
42
0.000000001
43
0.0000000001
44
0.0000000001
40
0
40
0
40
0
40
0
40
1
40
1
40
1
40
1
41
1
41
1
41
1
41
1
10
32.064975528128222
20
-21.659800779432739
30
0
10
32.673874608229092
20
-21.659800779432739
30
0
10
33.239731527676412
20
-21.841481115127817
30
0
10
33.712097170706691
20
-22.153690194270563
30
0
0
SPLINE
5
177
100
AcDbEntity
8
0
100
AcDbSpline
70
4
71
3
72
8
73
4
74
0
42
0.000000001
43
0.0000000001
44
0.0000000001
40
0
40
0
40
0
40
0
40
1
40
1
40
1
40
1
41
1
41
1
41
1
41
1
10
33.712097170706691
20
-22.153690194270563
30
0
10
34.307581910593882
20
-22.547036653044479
30
0
10
35.110870498638825
20
-22.190025184817266
30
0
10
35.234678614575735
20
-21.487293010240109
30
0
0
LINE
5
178
100
AcDbEntity
8
0
100
AcDbLine
10
35.234678614575735
20
-21.487293010240109
30
0
11
37.175300853386567
21
-10.481685447279451
31
0
0
LINE
5
179
100
AcDbEntity
8
0
100
AcDbLine
10
37.175300853386567
20
-10.481685447279451
30
0
11
50.864129043066917
21
-12.895389263008362
31
0
0
LINE
5
180
100
AcDbEntity
8
0
100
AcDbLine
10
50.864129043066917
20
-12.895389263008362
30
0
11
48.276862397679132
21
-27.568828409484823
31
0
0
LINE
5
181
100
AcDbEntity
8
0
100
AcDbLine
10
48.276862397679132
20
-27.568828409484823
30
0
11
35.009240184339305
21
-25.229560186241812
31
0
0
SPLINE
5
182
100
AcDbEntity
8
0
100
AcDbSpline
70
4
71
3
72
8
73
4
74
0
42
0.000000001
43
0.0000000001
44
0.0000000001
40
0
40
0
40
0
40
0
40
1
40
1
40
1
40
1
41
1
41
1
41
1
41
1
10
35.009240184339305
20
-25.229560186241805
30
0
10
34.742891246228055
20
-26.613861422013233
30
0
10
33.52685869741881
20
-27.659846215063926
30
0
10
32.064953996281965
20
-27.659846215063926
30
0
0
SPLINE
5
183
100
AcDbEntity
8
0
100
AcDbSpline
70
4
71
3
72
8
73
4
74
0
42
0.000000001
43
0.0000000001
44
0.0000000001
40
0
40
0
40
0
40
0
40
1
40
1
40
1
40
1
41
1
41
1
41
1
41
1
10
32.064953996281965
20
-27.659846215063926
30
0
10
31.420785752023761
20
-27.659846215063926
30
0
10
30.824934970750331
20
-27.456647490522851
30
0
10
30.337044866573898
20
-27.110571508709796
30
0
0
SPLINE
5
184
100
AcDbEntity
8
0
100
AcDbSpline
70
4
71
3
72
8
73
4
74
0
42
0.000000001
43
0.0000000001
44
0.0000000001
40
0
40
0
40
0
40
0
40
1
40
1
40
1
40
1
41
1
41
1
41
1
41
1
10
30.337044866573898
20
-27.110571508709796
30
0
10
29.790954181983956
20
-26.723926837081152
30
0
10
29.032817875525033
20
-27.001563845588908
30
0
10
28.916761224238098
20
-27.660551383028608
30
0
0
LINE
5
185
100
AcDbEntity
8
0
100
AcDbLine
10
28.916761224238101
20
-27.660551383028608
30
0
11
28.908643718201876
21
-27.707824551470253
31
0
0
LINE
5
186
100
AcDbEntity
8
0
100
AcDbLine
10
28.908643718201876
20
-27.707824551470253
30
0
11
15.219449487135313
21
-25.294118044260561
31
0
0
LINE
5
187
100
AcDbEntity
8
0
100
AcDbLine
10
15.219449487135313
20
-25.294118044260561
30
0
11
17.807125237601824
21
-10.620329005282549
31
0
0
LINE
5
188
100
AcDbEntity
8
0
100
AcDbLine
10
66.942367742944697
20
-31.51676778086555
30
0
11
65.604281923667912
21
-39.104665760791576
31
0
0
SPLINE
5
189
100
AcDbEntity
8
0
100
AcDbSpline
70
4
71
3
72
8
73
4
74
0
42
0.000000001
43
0.0000000001
44
0.0000000001
40
0
40
0
40
0
40
0
40
1
40
1
40
1
40
1
41
1
41
1
41
1
41
1
10
65.604281923667898
20
-39.104665760791576
30
0
10
65.48045227588473
20
-39.806692767404037
30
0
10
66.110517160849255
20
-40.41276579268461
30
0
10
66.805134520870993
20
-40.251898677870834
30
0
0
SPLINE
5
190
100
AcDbEntity
8
0
100
AcDbSpline
70
4
71
3
72
8
73
4
74
0
42
0.000000001
43
0.0000000001
44
0.0000000001
40
0
40
0
40
0
40
0
40
1
40
1
40
1
40
1
41
1
41
1
41
1
41
1
10
66.805134520870993
20
-40.251898677870834
30
0
10
67.022089403684959
20
-40.20180483757045
30
0
10
67.247872343461367
20
-40.174992306027768
30
0
10
67.480351687421518
20
-40.174992306027768
30
0
0
SPLINE
5
191
100
AcDbEntity
8
0
100
AcDbSpline
70
4
71
3
72
8
73
4
74
0
42
0.000000001
43
0.0000000001
44
0.0000000001
40
0
40
0
40
0
40
0
40
1
40
1
40
1
40
1
41
1
41
1
41
1
41
1
10
67.480351687421518
20
-40.174992306027768
30
0
10
68.090661103451765
20
-40.174992306027768
30
0
10
68.657573083365349
20
-40.357730393669868
30
0
10
69.130649277321865
20
-40.670997224759645
30
0
0
SPLINE
5
192
100
AcDbEntity
8
0
100
AcDbSpline
70
4
71
3
72
8
73
4
74
0
42
0.000000001
43
0.0000000001
44
0.0000000001
40
0
40
0
40
0
40
0
40
1
40
1
40
1
40
1
41
1
41
1
41
1
41
1
10
69.130649277321865
20
-40.670997224759645
30
0
10
69.726134017209048
20
-41.065756710943703
30
0
10
70.530466899797119
20
-40.70909782669883
30
0
10
70.654651823043395
20
-40.005305208693883
30
0
0
LINE
5
193
100
AcDbEntity
8
0
100
AcDbLine
10
70.654651823043395
20
-40.005305208693883
30
0
11
72.601636722421091
21
-28.963362655186522
31
0
0
LINE
5
194
100
AcDbEntity
8
0
100
AcDbLine
10
72.601636722421091
20
-28.963362655186522
30
0
11
86.290475678024563
21
-31.377069162396207
31
0
0
LINE
5
195
100
AcDbEntity
8
0
100
AcDbLine
10
86.290475678024563
20
-31.377069162396207
30
0
11
83.703198266713642
21
-46.050860892855006
31
0
0
LINE
5
196
100
AcDbEntity
8
0
100
AcDbLine
10
83.703198266713642
20
-46.050860892855006
30
0
11
70.429934709656337
21
-43.710179642201851
31
0
0
SPLINE
5
197
100
AcDbEntity
8
0
100
AcDbSpline
70
4
71
3
72
8
73
4
74
0
42
0.000000001
43
0.0000000001
44
0.0000000001
40
0
40
0
40
0
40
0
40
1
40
1
40
1
40
1
41
1
41
1
41
1
41
1
10
70.429934709656351
20
-43.710179642201851
30
0
10
70.177344621298786
20
-45.111412983568037
30
0
10
68.954260392842684
20
-46.175037741658954
30
0
10
67.480362453344668
20
-46.175037741658954
30
0
0
SPLINE
5
198
100
AcDbEntity
8
0
100
AcDbSpline
70
4
71
3
72
8
73
4
74
0
42
0.000000001
43
0.0000000001
44
0.0000000001
40
0
40
0
40
0
40
0
40
1
40
1
40
1
40
1
41
1
41
1
41
1
41
1
10
67.480362453344668
20
-46.175037741658954
30
0
10
66.837604545015822
20
-46.175037741658954
30
0
10
66.242464314668638
20
-45.972895423324516
30
0
10
65.754929485955316
20
-45.628232468921617
30
0
0
SPLINE
5
199
100
AcDbEntity
8
0
100
AcDbSpline
70
4
71
3
72
8
73
4
74
0
42
0.000000001
43
0.0000000001
44
0.0000000001
40
0
40
0
40
0
40
0
40
1
40
1
40
1
40
1
41
1
41
1
41
1
41
1
10
65.754929485955316
20
-45.628232468921617
30
0
10
65.217300816941616
20
-45.248290930178641
30
0
10
64.471879065693244
20
-45.527690858598106
30
0
10
64.357221984412561
20
-46.176096839346371
30
0
0
LINE
5
200
100
AcDbEntity
8
0
100
AcDbLine
10
64.357221984412561
20
-46.176096839346371
30
0
11
64.354756588016912
21
-46.190560857064746
31
0
0
LINE
5
201
100
AcDbEntity
8
0
100
AcDbLine
10
64.354756588016912
20
-46.190560857064746
30
0
11
50.665928398336597
21
-43.77685569559543
31
0
0
LINE
5
202
100
AcDbEntity
8
0
100
AcDbLine
10
50.665928398336597
20
-43.77685569559543
30
0
11
53.253195043724382
21
-29.103416549118975
31
0
0
LINE
5
203
100
AcDbEntity
8
0
100
AcDbLine
10
53.253195043724382
20
-29.103416549118975
30
0
11
66.942367742944697
21
-31.51676778086555
31
0
0
LWPOLYLINE
5
204
100
AcDbEntity
8
0
100
AcDbPolyline
90
4
70
1
43
0.0
10
56.543541064710084
20
-10.342691996774793
10
70.232735295776649
20
-12.756395812503706
10
67.645113374925756
20
-27.430187542962511
10
53.956274419322298
20
-25.016481035752811
0
LWPOLYLINE
5
205
100
AcDbEntity
8
0
100
AcDbPolyline
90
4
70
1
43
0.0
10
75.909628091408592
20
-10.202993378305454
10
89.598467047012051
20
-12.616347301532809
10
87.011189635701157
20
-27.290139031991608
10
73.322350680097671
20
-24.876432524781915
0
LWPOLYLINE
5
206
100
AcDbEntity
8
0
100
AcDbPolyline
90
4
70
1
43
0.0
10
101.13782485518064
20
-56.893838421090194
10
98.550547443869746
20
-71.567277567566649
10
84.861363978726288
20
-69.153572069662246
10
87.44898589957721
20
-54.479780675638551
0
LWPOLYLINE
5
207
100
AcDbEntity
8
0
100
AcDbPolyline
90
4
70
1
43
0.0
10
104.44582699009126
20
-38.133116560226782
10
101.85854957878037
20
-52.80655570670325
10
88.16936611363694
20
-50.392850545233955
10
90.756988034487819
20
-35.7194100530171
0
LWPOLYLINE
5
208
100
AcDbEntity
8
0
100
AcDbPolyline
90
4
70
1
43
0.0
10
122.5987129057624
20
-44.887752276387609
10
120.01109098491149
20
-59.561544006846404
10
106.32225202930803
20
-57.147838845377109
10
108.90952944061893
20
-42.474047114918314
0
LINE
5
209
100
AcDbEntity
8
0
100
AcDbLine
10
94.064990169398442
20
-16.958690883634478
30
0
11
107.7538291250019
21
-19.372394699363387
31
0
0
LINE
5
210
100
AcDbEntity
8
0
100
AcDbLine
10
107.7538291250019
20
-19.372394699363387
30
0
11
105.79238559086741
21
-30.496537767410523
31
0
0
SPLINE
5
211
100
AcDbEntity
8
0
100
AcDbSpline
70
4
71
3
72
8
73
4
74
0
42
0.000000001
43
0.0000000001
44
0.0000000001
40
0
40
0
40
0
40
0
40
1
40
1
40
1
40
1
41
1
41
1
41
1
41
1
10
105.79238559086741
20
-30.496537767410523
30
0
10
105.66821143354424
20
-31.198917358005328
30
0
10
106.29826555258563
20
-31.804637799303563
30
0
10
106.99289367853049
20
-31.644123268472129
30
0
0
SPLINE
5
212
100
AcDbEntity
8
0
100
AcDbSpline
70
4
71
3
72
8
73
4
74
0
42
0.000000001
43
0.0000000001
44
0.0000000001
40
0
40
0
40
0
40
0
40
1
40
1
40
1
40
1
41
1
41
1
41
1
41
1
10
106.99289367853049
20
-31.644123268472129
30
0
10
107.20950405180447
20
-31.594029428171744
30
0
10
107.43492095019465
20
-31.5675694806114
30
0
10
107.6670557846148
20
-31.5675694806114
30
0
0
SPLINE
5
213
100
AcDbEntity
8
0
100
AcDbSpline
70
4
71
3
72
8
73
4
74
0
42
0.000000001
43
0.0000000001
44
0.0000000001
40
0
40
0
40
0
40
0
40
1
40
1
40
1
40
1
41
1
41
1
41
1
41
1
10
107.6670557846148
20
-31.5675694806114
30
0
10
108.28124093297004
20
-31.5675694806114
30
0
10
108.85168413566859
20
-31.752425763628342
30
0
10
109.32652594101759
20
-32.069571018523867
30
0
0
SPLINE
5
214
100
AcDbEntity
8
0
100
AcDbSpline
70
4
71
3
72
8
73
4
74
0
42
0.000000001
43
0.0000000001
44
0.0000000001
40
0
40
0
40
0
40
0
40
1
40
1
40
1
40
1
41
1
41
1
41
1
41
1
10
109.32652594101759
20
-32.069571018523867
30
0
10
109.92448684322352
20
-32.469269371941508
30
0
10
110.7355161299953
20
-32.118959690859576
30
0
10
110.86075611370785
20
-31.410228205621046
30
0
0
LINE
5
215
100
AcDbEntity
8
0
100
AcDbLine
10
110.86075611370785
20
-31.410228205621046
30
0
11
112.21754234145267
21
-23.713675146556472
31
0
0
LINE
5
216
100
AcDbEntity
8
0
100
AcDbLine
10
112.21754234145267
20
-23.713675146556472
30
0
11
125.90672580659614
21
-26.127381653766165
31
0
0
LINE
5
217
100
AcDbEntity
8
0
100
AcDbLine
10
125.90672580659614
20
-26.127381653766165
30
0
11
123.31910388574525
21
-40.800820800242626
31
0
0
LINE
5
218
100
AcDbEntity
8
0
100
AcDbLine
10
123.31910388574525
20
-40.800820800242626
30
0
11
109.63026493014181
21
-38.38711429303293
31
0
0
LINE
5
219
100
AcDbEntity
8
0
100
AcDbLine
10
109.63026493014181
20
-38.38711429303293
30
0
11
109.63131999060801
21
-38.381117673852337
31
0
0
SPLINE
5
220
100
AcDbEntity
8
0
100
AcDbSpline
70
4
71
3
72
8
73
4
74
0
42
0.000000001
43
0.0000000001
44
0.0000000001
40
0
40
0
40
0
40
0
40
1
40
1
40
1
40
1
41
1
41
1
41
1
41
1
10
109.63131999060803
20
-38.381117673852344
30
0
10
109.74280112456688
20
-37.749997728421569
30
0
10
109.14342988643158
20
-37.256816173029208
30
0
10
108.52994452307948
20
-37.441317180583027
30
0
0
SPLINE
5
221
100
AcDbEntity
8
0
100
AcDbSpline
70
4
71
3
72
8
73
4
74
0
42
0.000000001
43
0.0000000001
44
0.0000000001
40
0
40
0
40
0
40
0
40
1
40
1
40
1
40
1
41
1
41
1
41
1
41
1
10
108.52994452307948
20
-37.441317180583027
30
0
10
108.07274806573227
20
-37.578900295158313
30
0
10
107.56968877587278
20
-37.609591250506753
30
0
10
107.04862886254836
20
-37.505875038601779
30
0
0
SPLINE
5
222
100
AcDbEntity
8
0
100
AcDbSpline
70
4
71
3
72
8
73
4
74
0
42
0.000000001
43
0.0000000001
44
0.0000000001
40
0
40
0
40
0
40
0
40
1
40
1
40
1
40
1
41
1
41
1
41
1
41
1
10
107.04862886254836
20
-37.505875038601779
30
0
10
105.94937428187542
20
-37.28609410096751
30
0
10
105.04908472647469
20
-36.434488049937784
30
0
10
104.76792187814351
20
-35.349344903000876
30
0
0
SPLINE
5
223
100
AcDbEntity
8
0
100
AcDbSpline
70
4
71
3
72
8
73
4
74
0
42
0.000000001
43
0.0000000001
44
0.0000000001
40
0
40
0
40
0
40
0
40
1
40
1
40
1
40
1
41
1
41
1
41
1
41
1
10
104.76792187814351
20
-35.349344903000876
30
0
10
104.64339244535722
20
-34.869214337916731
30
0
10
104.63916143756911
20
-34.402137454621602
30
0
10
104.72700060434556
20
-33.96857219853365
30
0
0
LINE
5
224
100
AcDbEntity
8
0
100
AcDbLine
10
104.72700060434556
20
-33.96857219853365
30
0
11
91.477368248547535
21
-31.632477231131716
31
0
0
LINE
5
225
100
AcDbEntity
8
0
100
AcDbLine
10
91.477368248547535
20
-31.632477231131716
30
0
11
94.064990169398442
21
-16.958690883634478
31
0
0
SPLINE
5
226
100
AcDbEntity
8
0
100
AcDbSpline
70
4
71
3
72
8
73
4
74
0
42
0.000000001
43
0.0000000001
44
0.0000000001
40
0
40
0
40
0
40
0
40
1
40
1
40
1
40
1
41
1
41
1
41
1
41
1
10
132.40770695375045
20
-76.587306404095287
30
0
10
132.40770695375045
20
-78.023111816096474
30
0
10
131.24354462255718
20
-79.186925600528539
30
0
10
129.80773651907521
20
-79.186925600528539
30
0
0
SPLINE
5
227
100
AcDbEntity
8
0
100
AcDbSpline
70
4
71
3
72
8
73
4
74
0
42
0.000000001
43
0.0000000001
44
0.0000000001
40
0
40
0
40
0
40
0
40
1
40
1
40
1
40
1
41
1
41
1
41
1
41
1
10
129.80773651907521
20
-79.186925600528539
30
0
10
128.37157314013012
20
-79.186925600528539
30
0
10
127.20776608439999
20
-78.023111816096474
30
0
10
127.20776608439999
20
-76.587306404095287
30
0
0
SPLINE
5
228
100
AcDbEntity
8
0
100
AcDbSpline
70
4
71
3
72
8
73
4
74
0
42
0.000000001
43
0.0000000001
44
0.0000000001
40
0
40
0
40
0
40
0
40
1
40
1
40
1
40
1
41
1
41
1
41
1
41
1
10
127.20776608439999
20
-76.587306404095287
30
0
10
127.20776608439999
20
-75.151148408111766
30
0
10
128.37158390605325
20
-73.987334623679658
30
0
10
129.80773651907521
20
-73.987334623679658
30
0
0
SPLINE
5
229
100
AcDbEntity
8
0
100
AcDbSpline
70
4
71
3
72
8
73
4
74
0
42
0.000000001
43
0.0000000001
44
0.0000000001
40
0
40
0
40
0
40
0
40
1
40
1
40
1
40
1
41
1
41
1
41
1
41
1
10
129.80773651907521
20
-73.987334623679658
30
0
10
131.24354462255718
20
-73.987334623679658
30
0
10
132.40770695375045
20
-75.151148408111766
30
0
10
132.40770695375045
20
-76.587306404095287
30
0
0
LINE
5
230
100
AcDbEntity
8
0
100
AcDbLine
10
127.20317980114876
20
-56.893839766830581
30
0
11
132.40312067049919
21
-56.893839766830581
31
0
0
SPLINE
5
231
100
AcDbEntity
8
0
100
AcDbSpline
70
4
71
3
72
8
73
4
74
0
42
0.000000001
43
0.0000000001
44
0.0000000001
40
0
40
0
40
0
40
0
40
1
40
1
40
1
40
1
41
1
41
1
41
1
41
1
10
132.40312067049919
20
-56.893839766830581
30
0
10
133.23144002980965
20
-56.893839766830581
30
0
10
133.90313673949836
20
-57.565175818094588
30
0
10
133.90313673949836
20
-58.393850452868179
30
0
0
LINE
5
232
100
AcDbEntity
8
0
100
AcDbLine
10
133.90313673949836
20
-58.393850452868179
30
0
11
133.90313673949836
21
-60.096708625204897
31
0
0
SPLINE
5
233
100
AcDbEntity
8
0
100
AcDbSpline
70
4
71
3
72
8
73
4
74
0
42
0.000000001
43
0.0000000001
44
0.0000000001
40
0
40
0
40
0
40
0
40
1
40
1
40
1
40
1
41
1
41
1
41
1
41
1
10
133.90313673949836
20
-60.096708625204904
30
0
10
133.72251684723108
20
-60.344358500588491
30
0
10
133.61280132466473
20
-60.647041756376254
30
0
10
133.61280132466473
20
-60.976889118383724
30
0
0
SPLINE
5
234
100
AcDbEntity
8
0
100
AcDbSpline
70
4
71
3
72
8
73
4
74
0
42
0.000000001
43
0.0000000001
44
0.0000000001
40
0
40
0
40
0
40
0
40
1
40
1
40
1
40
1
41
1
41
1
41
1
41
1
10
133.61280132466473
20
-60.976889118383724
30
0
10
133.61280132466473
20
-61.307089064373557
30
0
10
133.72251684723108
20
-61.609419736178957
30
0
10
133.90313673949836
20
-61.857069611562565
30
0
0
LINE
5
235
100
AcDbEntity
8
0
100
AcDbLine
10
133.90313673949836
20
-61.857069611562565
30
0
11
133.90313673949836
21
-63.59378795786764
31
0
0
SPLINE
5
236
100
AcDbEntity
8
0
100
AcDbSpline
70
4
71
3
72
8
73
4
74
0
42
0.000000001
43
0.0000000001
44
0.0000000001
40
0
40
0
40
0
40
0
40
1
40
1
40
1
40
1
41
1
41
1
41
1
41
1
10
133.90313673949836
20
-63.59378795786764
30
0
10
133.90313673949836
20
-64.42211017687643
30
0
10
133.2314507957328
20
-65.093798980340324
30
0
10
132.40312067049919
20
-65.093798980340324
30
0
0
LINE
5
237
100
AcDbEntity
8
0
100
AcDbLine
10
132.40312067049919
20
-65.093798980340324
30
0
11
127.20317980114876
21
-65.093798980340324
31
0
0
SPLINE
5
238
100
AcDbEntity
8
0
100
AcDbSpline
70
4
71
3
72
8
73
4
74
0
42
0.000000001
43
0.0000000001
44
0.0000000001
40
0
40
0
40
0
40
0
40
1
40
1
40
1
40
1
41
1
41
1
41
1
41
1
10
127.20317980114876
20
-65.093798980340324
30
0
10
126.37486044183831
20
-65.093798980340324
30
0
10
125.70316373214962
20
-64.422110092767653
30
0
10
125.70316373214962
20
-63.59378795786764
30
0
0
LINE
5
239
100
AcDbEntity
8
0
100
AcDbLine
10
125.70316373214962
20
-63.593787957867647
30
0
11
125.70316373214962
21
-61.846479643993689
31
0
0
SPLINE
5
240
100
AcDbEntity
8
0
100
AcDbSpline
70
4
71
3
72
8
73
4
74
0
42
0.000000001
43
0.0000000001
44
0.0000000001
40
0
40
0
40
0
40
0
40
1
40
1
40
1
40
1
41
1
41
1
41
1
41
1
10
125.70316373214962
20
-61.846479643993682
30
0
10
125.87884206570251
20
-61.600593697827087
30
0
10
125.9846818559439
20
-61.302143468438032
30
0
10
125.9846818559439
20
-60.976882389681776
30
0
0
SPLINE
5
241
100
AcDbEntity
8
0
100
AcDbSpline
70
4
71
3
72
8
73
4
74
0
42
0.000000001
43
0.0000000001
44
0.0000000001
40
0
40
0
40
0
40
0
40
1
40
1
40
1
40
1
41
1
41
1
41
1
41
1
10
125.9846818559439
20
-60.976882389681776
30
0
10
125.9846818559439
20
-60.651973894907854
30
0
10
125.87885283162564
20
-60.353171417971566
30
0
10
125.70316373214962
20
-60.107285135369864
30
0
0
LINE
5
242
100
AcDbEntity
8
0
100
AcDbLine
10
125.70316373214962
20
-60.107285135369864
30
0
11
125.70316373214962
21
-58.393843724166231
31
0
0
SPLINE
5
243
100
AcDbEntity
8
0
100
AcDbSpline
70
4
71
3
72
8
73
4
74
0
42
0.000000001
43
0.0000000001
44
0.0000000001
40
0
40
0
40
0
40
0
40
1
40
1
40
1
40
1
41
1
41
1
41
1
41
1
10
125.70316373214962
20
-58.393843724166231
30
0
10
125.70316373214962
20
-57.565169089392647
30
0
10
126.37484967591517
20
-56.893833038128619
30
0
10
127.20317980114876
20
-56.893839766830581
30
0
0
LWPOLYLINE
5
244
100
AcDbEntity
8
0
100
AcDbPolyline
90
4
70
1
43
0.0
10
153.28333789141371
20
-57.147839518247309
10
139.59415442627022
20
-59.561545352586805
10
137.00687701495931
20
-44.887753622127995
10
150.69571597056279
20
-42.474047114918314
0
LINE
5
245
100
AcDbEntity
8
0
100
AcDbLine
10
147.38771383565214
20
-23.713325254054908
30
0
11
148.74308434450606
21
-31.400353162634683
31
0
0
SPLINE
5
246
100
AcDbEntity
8
0
100
AcDbSpline
70
4
71
3
72
8
73
4
74
0
42
0.000000001
43
0.0000000001
44
0.0000000001
40
0
40
0
40
0
40
0
40
1
40
1
40
1
40
1
41
1
41
1
41
1
41
1
10
148.74308434450606
20
-31.400353162634683
30
0
10
148.86726388479082
20
-32.103793196657307
30
0
10
149.6715967673789
20
-32.460449389421406
30
0
10
150.26708689022763
20
-32.066045178700456
30
0
0
SPLINE
5
247
100
AcDbEntity
8
0
100
AcDbSpline
70
4
71
3
72
8
73
4
74
0
42
0.000000001
43
0.0000000001
44
0.0000000001
40
0
40
0
40
0
40
0
40
1
40
1
40
1
40
1
41
1
41
1
41
1
41
1
10
150.26708689022763
20
-32.066045178700456
30
0
10
150.7401630841841
20
-31.752425763628342
30
0
10
151.30707506409772
20
-31.570040259968579
30
0
10
151.9177343726295
20
-31.570040259968579
30
0
0
SPLINE
5
248
100
AcDbEntity
8
0
100
AcDbSpline
70
4
71
3
72
8
73
4
74
0
42
0.000000001
43
0.0000000001
44
0.0000000001
40
0
40
0
40
0
40
0
40
1
40
1
40
1
40
1
41
1
41
1
41
1
41
1
10
151.9177343726295
20
-31.570040259968579
30
0
10
152.15621033577028
20
-31.570040259968579
30
0
10
152.38869506269197
20
-31.597910543458283
30
0
10
152.61059150422031
20
-31.650825055617414
30
0
0
SPLINE
5
249
100
AcDbEntity
8
0
100
AcDbSpline
70
4
71
3
72
8
73
4
74
0
42
0.000000001
43
0.0000000001
44
0.0000000001
40
0
40
0
40
0
40
0
40
1
40
1
40
1
40
1
41
1
41
1
41
1
41
1
10
152.61059150422031
20
-31.650825055617414
30
0
10
153.30556413970515
20
-31.815925869700067
30
0
10
153.93844431356683
20
-31.207384756543096
30
0
10
153.81462004874521
20
-30.503944722520483
30
0
0
LINE
5
250
100
AcDbEntity
8
0
100
AcDbLine
10
153.81462004874518
20
-30.503944722520483
30
0
11
151.85176617868134
21
-19.372394699363383
31
0
0
LINE
5
251
100
AcDbEntity
8
0
100
AcDbLine
10
151.85176617868134
20
-19.372394699363383
30
0
11
165.54059975132327
21
-16.958690883634482
31
0
0
LINE
5
252
100
AcDbEntity
8
0
100
AcDbLine
10
165.54059975132327
20
-16.958690883634482
30
0
11
168.1278717796726
21
-31.632482614093274
31
0
0
LINE
5
253
100
AcDbEntity
8
0
100
AcDbLine
10
168.1278717796726
20
-31.632482614093274
30
0
11
154.85778416993719
21
-33.972106112799409
31
0
0
SPLINE
5
254
100
AcDbEntity
8
0
100
AcDbSpline
70
4
71
3
72
8
73
4
74
0
42
0.000000001
43
0.0000000001
44
0.0000000001
40
0
40
0
40
0
40
0
40
1
40
1
40
1
40
1
41
1
41
1
41
1
41
1
10
154.85778416993719
20
-33.972106112799409
30
0
10
154.94527344421206
20
-34.404963509441892
30
0
10
154.94103705346242
20
-34.870630056807677
30
0
10
154.81650762067613
20
-35.35040803790946
30
0
0
SPLINE
5
255
100
AcDbEntity
8
0
100
AcDbSpline
70
4
71
3
72
8
73
4
74
0
42
0.000000001
43
0.0000000001
44
0.0000000001
40
0
40
0
40
0
40
0
40
1
40
1
40
1
40
1
41
1
41
1
41
1
41
1
10
154.81650762067613
20
-35.35040803790946
30
0
10
154.53604994030962
20
-36.432730512987632
30
0
10
153.639991392697
20
-37.283983980035018
30
0
10
152.54426803480902
20
-37.506233005545688
30
0
0
SPLINE
5
256
100
AcDbEntity
8
0
100
AcDbSpline
70
4
71
3
72
8
73
4
74
0
42
0.000000001
43
0.0000000001
44
0.0000000001
40
0
40
0
40
0
40
0
40
1
40
1
40
1
40
1
41
1
41
1
41
1
41
1
10
152.54426803480902
20
-37.506233005545688
30
0
10
152.02039283258745
20
-37.612772580790185
30
0
10
151.51415759540609
20
-37.581726349978616
30
0
10
151.05448497574014
20
-37.443438067438642
30
0
0
SPLINE
5
257
100
AcDbEntity
8
0
100
AcDbSpline
70
4
71
3
72
8
73
4
74
0
42
0.000000001
43
0.0000000001
44
0.0000000001
40
0
40
0
40
0
40
0
40
1
40
1
40
1
40
1
41
1
41
1
41
1
41
1
10
151.05448497574014
20
-37.443438067438642
30
0
10
150.45123262231832
20
-37.261757731743558
30
0
10
149.86315483754109
20
-37.752471199259517
30
0
10
149.97251508464433
20
-38.373008242258464
30
0
0
LINE
5
258
100
AcDbEntity
8
0
100
AcDbLine
10
149.97251508464433
20
-38.373008242258464
30
0
11
149.97533575650306
21
-38.387119675994498
31
0
0
LINE
5
259
100
AcDbEntity
8
0
100
AcDbLine
10
149.97533575650306
20
-38.387119675994498
30
0
11
136.2861522913596
21
-40.80082618320418
31
0
0
LINE
5
260
100
AcDbEntity
8
0
100
AcDbLine
10
136.2861522913596
20
-40.80082618320418
30
0
11
133.69887488004872
21
-26.127387036727722
31
0
0
LINE
5
261
100
AcDbEntity
8
0
100
AcDbLine
10
133.69887488004872
20
-26.127387036727722
30
0
11
147.38771383565214
21
-23.713325254054908
31
0
0
LINE
5
262
100
AcDbEntity
8
0
100
AcDbLine
10
155.58309517678811
20
-9.0670539145842568
30
0
11
156.01736560084075
21
-6.6050164869858889
31
0
0
SPLINE
5
263
100
AcDbEntity
8
0
100
AcDbSpline
70
4
71
3
72
8
73
4
74
0
42
0.000000001
43
0.0000000001
44
0.0000000001
40
0
40
0
40
0
40
0
40
1
40
1
40
1
40
1
41
1
41
1
41
1
41
1
10
156.01736560084075
20
-6.6050164869858889
30
0
10
156.08933041396949
20
-6.1972033190128206
30
0
10
156.47809328097298
20
-5.9248631446825417
30
0
10
156.88625634144762
20
-5.9968279578112638
30
0
0
LINE
5
264
100
AcDbEntity
8
0
100
AcDbLine
10
156.88625634144762
20
-5.9968279578112629
30
0
11
163.88889720845515
21
-7.228729477306695
31
0
0
SPLINE
5
265
100
AcDbEntity
8
0
100
AcDbSpline
70
4
71
3
72
8
73
4
74
0
42
0.000000001
43
0.0000000001
44
0.0000000001
40
0
40
0
40
0
40
0
40
1
40
1
40
1
40
1
41
1
41
1
41
1
41
1
10
163.88889720845512
20
-7.228729477306695
30
0
10
164.29671037642819
20
-7.3006942904354162
30
0
10
164.56940582622161
20
-7.6898124329020145
30
0
10
164.4974410130929
20
-8.0976202179135264
30
0
0
LINE
5
266
100
AcDbEntity
8
0
100
AcDbLine
10
164.4974410130929
20
-8.0976202179135264
30
0
11
164.06317058904023
21
-10.559657645511894
31
0
0
SPLINE
5
267
100
AcDbEntity
8
0
100
AcDbSpline
70
4
71
3
72
8
73
4
74
0
42
0.000000001
43
0.0000000001
44
0.0000000001
40
0
40
0
40
0
40
0
40
1
40
1
40
1
40
1
41
1
41
1
41
1
41
1
10
164.06317058904025
20
-10.559657645511894
30
0
10
163.99120577591157
20
-10.967470813484972
30
0
10
163.60244290890807
20
-11.239810987815241
30
0
10
163.19427984843344
20
-11.168201450149644
30
0
0
LINE
5
268
100
AcDbEntity
8
0
100
AcDbLine
10
163.19427984843344
20
-11.168201450149644
30
0
11
156.19163898142588
21
-9.9359500381526527
31
0
0
SPLINE
5
269
100
AcDbEntity
8
0
100
AcDbSpline
70
4
71
3
72
8
73
4
74
0
42
0.000000001
43
0.0000000001
44
0.0000000001
40
0
40
0
40
0
40
0
40
1
40
1
40
1
40
1
41
1
41
1
41
1
41
1
10
156.19163898142588
20
-9.9359500381526544
30
0
10
155.78382581345281
20
-9.8639852250239315
30
0
10
155.51113036365939
20
-9.4752223580204582
30
0
10
155.58309517678811
20
-9.0670539145842568
30
0
0
LWPOLYLINE
5
270
100
AcDbEntity
8
0
100
AcDbPolyline
90
4
70
1
43
0.0
10
171.43586853162165
20
-50.392851890974342
10
157.74702957601821
20
-52.806557052443644
10
155.15975754766885
20
-38.132763976244448
10
168.84859112031077
20
-35.719410053017093
0
LWPOLYLINE
5
271
100
AcDbEntity
8
0
100
AcDbPolyline
90
4
70
1
43
0.0
10
183.69384094245748
20
-10.208640104984493
10
186.28111297080682
20
-24.882079251460958
10
172.59227939816498
20
-27.296138342652981
10
170.00500736981564
20
-12.622349303674959
0
LWPOLYLINE
5
272
100
AcDbEntity
8
0
100
AcDbPolyline
90
4
70
1
43
0.0
10
174.74387066653233
20
-69.153571060356967
10
161.05503171092886
20
-71.567276221826262
10
158.4677596825795
20
-56.893484491367452
10
172.1565932552214
20
-54.479779329898157
0
SPLINE
5
273
100
AcDbEntity
8
0
100
AcDbSpline
70
4
71
3
72
8
73
4
74
0
42
0.000000001
43
0.0000000001
44
0.0000000001
40
0
40
0
40
0
40
0
40
1
40
1
40
1
40
1
41
1
41
1
41
1
41
1
10
188.94846731832115
20
-40.005660484157005
30
0
10
189.07264685860585
20
-40.709453102161966
30
0
10
189.87697974119391
20
-41.066109294926051
30
0
10
190.4728197565442
20
-40.67135250022276
30
0
0
SPLINE
5
274
100
AcDbEntity
8
0
100
AcDbSpline
70
4
71
3
72
8
73
4
74
0
42
0.000000001
43
0.0000000001
44
0.0000000001
40
0
40
0
40
0
40
0
40
1
40
1
40
1
40
1
41
1
41
1
41
1
41
1
10
190.4728197565442
20
-40.67135250022276
30
0
10
190.94554067503765
20
-40.358085669132997
30
0
10
191.51316320587745
20
-40.174994997508549
30
0
10
192.12346723894612
20
-40.174994997508549
30
0
0
SPLINE
5
275
100
AcDbEntity
8
0
100
AcDbSpline
70
4
71
3
72
8
73
4
74
0
42
0.000000001
43
0.0000000001
44
0.0000000001
40
0
40
0
40
0
40
0
40
1
40
1
40
1
40
1
41
1
41
1
41
1
41
1
10
192.12346723894612
20
-40.174994997508549
30
0
10
192.36194589356768
20
-40.174994997508549
30
0
10
192.59372006956312
20
-40.203217864980594
30
0
10
192.81596909507383
20
-40.25577979315738
30
0
0
SPLINE
5
276
100
AcDbEntity
8
0
100
AcDbSpline
70
4
71
3
72
8
73
4
74
0
42
0.000000001
43
0.0000000001
44
0.0000000001
40
0
40
0
40
0
40
0
40
1
40
1
40
1
40
1
41
1
41
1
41
1
41
1
10
192.81596909507383
20
-40.25577979315738
30
0
10
193.51094173055867
20
-40.420880607240044
30
0
10
194.14347201191876
20
-39.812339494083069
30
0
10
194.01964774709714
20
-39.109252044042798
30
0
0
LINE
5
277
100
AcDbEntity
8
0
100
AcDbLine
10
194.01964774709717
20
-39.109252044042798
30
0
11
192.68085675985566
21
-31.516770472346323
31
0
0
LINE
5
278
100
AcDbEntity
8
0
100
AcDbLine
10
192.68085675985566
20
-31.516770472346323
30
0
11
206.36969302397836
21
-29.103416549118979
31
0
0
LINE
5
279
100
AcDbEntity
8
0
100
AcDbLine
10
206.36969302397836
20
-29.103416549118979
30
0
11
208.95696505232766
21
-43.776855695595444
31
0
0
LINE
5
280
100
AcDbEntity
8
0
100
AcDbLine
10
208.95696505232766
20
-43.776855695595444
30
0
11
195.26812878820505
21
-46.190560857064739
31
0
0
LINE
5
281
100
AcDbEntity
8
0
100
AcDbLine
10
195.26812878820505
20
-46.190560857064739
30
0
11
195.26601328431099
21
-46.179625370650569
31
0
0
SPLINE
5
282
100
AcDbEntity
8
0
100
AcDbSpline
70
4
71
3
72
8
73
4
74
0
42
0.000000001
43
0.0000000001
44
0.0000000001
40
0
40
0
40
0
40
0
40
1
40
1
40
1
40
1
41
1
41
1
41
1
41
1
10
195.26601328431099
20
-46.179625370650577
30
0
10
195.14994855858166
20
-45.521694239417499
30
0
10
194.39359401239994
20
-45.243353408685465
30
0
10
193.84749525336764
20
-45.628586398644345
30
0
0
SPLINE
5
283
100
AcDbEntity
8
0
100
AcDbSpline
70
4
71
3
72
8
73
4
74
0
42
0.000000001
43
0.0000000001
44
0.0000000001
40
0
40
0
40
0
40
0
40
1
40
1
40
1
40
1
41
1
41
1
41
1
41
1
10
193.84749525336764
20
-45.628586398644345
30
0
10
193.36031031715592
20
-45.972898114805297
30
0
10
192.76587794625419
20
-46.175039087399341
30
0
10
192.12347262190769
20
-46.175039087399341
30
0
0
SPLINE
5
284
100
AcDbEntity
8
0
100
AcDbSpline
70
4
71
3
72
8
73
4
74
0
42
0.000000001
43
0.0000000001
44
0.0000000001
40
0
40
0
40
0
40
0
40
1
40
1
40
1
40
1
41
1
41
1
41
1
41
1
10
192.12347262190769
20
-46.175039087399341
30
0
10
190.65027446741277
20
-46.175039087399341
30
0
10
189.42754551441982
20
-45.112472081255461
30
0
10
189.17425025809757
20
-43.712297837576685
30
0
0
LINE
5
285
100
AcDbEntity
8
0
100
AcDbLine
10
189.17425025809757
20
-43.712297837576685
30
0
11
175.90028153307557
21
-46.05297908822984
31
0
0
LINE
5
286
100
AcDbEntity
8
0
100
AcDbLine
10
175.90028153307557
20
-46.05297908822984
30
0
11
173.31300950472624
21
-31.379187357771031
31
0
0
LINE
5
287
100
AcDbEntity
8
0
100
AcDbLine
10
173.31300950472624
20
-31.379187357771031
30
0
11
187.00184307736816
21
-28.965480850561349
31
0
0
LINE
5
288
100
AcDbEntity
8
0
100
AcDbLine
10
187.00184307736816
20
-28.965480850561349
30
0
11
188.94846731832115
21
-40.005660484157005
31
0
0
LWPOLYLINE
5
289
100
AcDbEntity
8
0
100
AcDbPolyline
90
4
70
1
43
0.0
10
203.06169358054854
20
-10.342697379736357
10
205.64896560889787
20
-25.01648911019516
10
191.96013203625594
20
-27.430195617404848
10
189.37286000790664
20
-12.756406578426827
0
LINE
5
290
100
AcDbEntity
8
0
100
AcDbLine
10
222.42989880262186
20
-10.481690830241011
30
0
11
224.37052911587506
21
-21.488003561166362
31
0
0
SPLINE
5
291
100
AcDbEntity
8
0
100
AcDbSpline
70
4
71
3
72
8
73
4
74
0
42
0.000000001
43
0.0000000001
44
0.0000000001
40
0
40
0
40
0
40
0
40
1
40
1
40
1
40
1
41
1
41
1
41
1
41
1
10
224.37052911587503
20
-21.488003561166359
30
0
10
224.49470731041936
20
-22.19109101120663
30
0
10
225.29833502504275
20
-22.54809978795307
30
0
10
225.89417638613344
20
-22.154400745196803
30
0
0
SPLINE
5
292
100
AcDbEntity
8
0
100
AcDbSpline
70
4
71
3
72
8
73
4
74
0
42
0.000000001
43
0.0000000001
44
0.0000000001
40
0
40
0
40
0
40
0
40
1
40
1
40
1
40
1
41
1
41
1
41
1
41
1
10
225.89417638613344
20
-22.154400745196803
30
0
10
226.3665460663849
20
-21.841839082071722
30
0
10
226.93275422407422
20
-21.659806162394297
30
0
10
227.54235443491854
20
-21.659806162394297
30
0
0
SPLINE
5
293
100
AcDbEntity
8
0
100
AcDbSpline
70
4
71
3
72
8
73
4
74
0
42
0.000000001
43
0.0000000001
44
0.0000000001
40
0
40
0
40
0
40
0
40
1
40
1
40
1
40
1
41
1
41
1
41
1
41
1
10
227.54235443491854
20
-21.659806162394297
30
0
10
227.7818908414871
20
-21.659806162394297
30
0
10
228.01542928313469
20
-21.688381613848694
30
0
10
228.23838482235044
20
-21.741651401470943
30
0
0
SPLINE
5
294
100
AcDbEntity
8
0
100
AcDbSpline
70
4
71
3
72
8
73
4
74
0
42
0.000000001
43
0.0000000001
44
0.0000000001
40
0
40
0
40
0
40
0
40
1
40
1
40
1
40
1
41
1
41
1
41
1
41
1
10
228.23838482235044
20
-21.741651401470943
30
0
10
228.9333567849651
20
-21.907457383518285
30
0
10
229.56694616401265
20
-21.298563686378973
30
0
10
229.44276796946832
20
-20.595123652356357
30
0
0
LINE
5
295
100
AcDbEntity
8
0
100
AcDbLine
10
229.44276796946832
20
-20.595123652356357
30
0
11
228.10962101742507
21
-13.034038203973019
31
0
0
LINE
5
296
100
AcDbEntity
8
0
100
AcDbLine
10
228.10962101742507
20
-13.034038203973019
30
0
11
241.79845728154774
21
-10.620334388244107
31
0
0
LINE
5
297
100
AcDbEntity
8
0
100
AcDbLine
10
241.79845728154774
20
-10.620334388244107
30
0
11
244.38572930989707
21
-25.294126118702916
31
0
0
LINE
5
298
100
AcDbEntity
8
0
100
AcDbLine
10
244.38572930989707
20
-25.294126118702916
30
0
11
230.69689304577437
21
-27.707832625912602
31
0
0
LINE
5
299
100
AcDbEntity
8
0
100
AcDbLine
10
230.69689304577437
20
-27.707832625912602
30
0
11
230.68877890408916
21
-27.661619900898756
31
0
0
SPLINE
5
300
100
AcDbEntity
8
0
100
AcDbSpline
70
4
71
3
72
8
73
4
74
0
42
0.000000001
43
0.0000000001
44
0.0000000001
40
0
40
0
40
0
40
0
40
1
40
1
40
1
40
1
41
1
41
1
41
1
41
1
10
230.68877890408916
20
-27.661619900898756
30
0
10
230.57271485123007
20
-27.002984947441398
30
0
10
229.81494862337857
20
-26.724995354951304
30
0
10
229.26884851860592
20
-27.111640026579948
30
0
0
SPLINE
5
301
100
AcDbEntity
8
0
100
AcDbSpline
70
4
71
3
72
8
73
4
74
0
42
0.000000001
43
0.0000000001
44
0.0000000001
40
0
40
0
40
0
40
0
40
1
40
1
40
1
40
1
41
1
41
1
41
1
41
1
10
229.26884851860592
20
-27.111640026579948
30
0
10
228.78095706868908
20
-27.457008148947533
30
0
10
228.18582087556305
20
-27.659856980987044
30
0
10
227.54235443491854
20
-27.659856980987044
30
0
0
SPLINE
5
302
100
AcDbEntity
8
0
100
AcDbSpline
70
4
71
3
72
8
73
4
74
0
42
0.000000001
43
0.0000000001
44
0.0000000001
40
0
40
0
40
0
40
0
40
1
40
1
40
1
40
1
41
1
41
1
41
1
41
1
10
227.54235443491854
20
-27.659856980987044
30
0
10
226.08009042109742
20
-27.659856980987044
30
0
10
224.86371336274814
20
-26.613516912473241
30
0
10
224.59771835435964
20
-25.22921836818259
30
0
0
LINE
5
303
100
AcDbEntity
8
0
100
AcDbLine
10
224.59771835435964
20
-25.22921836818259
30
0
11
211.32868984231163
21
-27.568841866888725
31
0
0
LINE
5
304
100
AcDbEntity
8
0
100
AcDbLine
10
211.32868984231163
20
-27.568841866888725
30
0
11
208.7414178139623
21
-12.895050136429923
31
0
0
LINE
5
305
100
AcDbEntity
8
0
100
AcDbLine
10
208.7414178139623
20
-12.895050136429923
30
0
11
222.42989880262186
21
-10.481690830241011
31
0
0
LWPOLYLINE
5
306
100
AcDbEntity
8
0
100
AcDbPolyline
90
4
70
1
43
0.0
10
247.69370318425953
20
-44.054485975401228
10
234.00486725657191
20
-46.46819113687053
10
231.4175948917875
20
-31.794751990394076
10
245.1064311559102
20
-29.381045483184387
0
LINE
5
307
100
AcDbEntity
8
0
100
AcDbLine
10
256.42742172672484
20
-63.584615896017823
30
0
11
246.64595277981633
21
-8.115954584995313
31
0
0
SPLINE
5
308
100
AcDbEntity
8
0
100
AcDbSpline
70
4
71
3
72
8
73
4
74
0
42
0.000000001
43
0.0000000001
44
0.0000000001
40
0
40
0
40
0
40
0
40
1
40
1
40
1
40
1
41
1
41
1
41
1
41
1
10
246.64595277981633
20
-8.1159545849953147
30
0
10
246.39301078034663
20
-6.6822673683689686
30
0
10
245.14735310257831
20
-5.6369877432829618
30
0
10
243.69143896479031
20
-5.6369877432829618
30
0
0
LINE
5
309
100
AcDbEntity
8
0
100
AcDbLine
10
243.69143896479031
20
-5.6369877432829618
30
0
11
164.43215107230168
21
-5.6369877432829618
31
0
0
LINE
5
310
100
AcDbEntity
8
0
100
AcDbLine
10
164.43215107230168
20
-5.6369877432829618
30
0
11
155.08918692158485
21
-4.00080427859944
31
0
0
SPLINE
5
311
100
AcDbEntity
8
0
100
AcDbSpline
70
4
71
3
72
8
73
4
74
0
42
0.000000001
43
0.0000000001
44
0.0000000001
40
0
40
0
40
0
40
0
40
1
40
1
40
1
40
1
41
1
41
1
41
1
41
1
10
155.08918692158485
20
-4.00080427859944
30
0
10
154.81754653225772
20
-3.9531812176562338
30
0
10
154.55860993221796
20
-4.1345062778881889
30
0
10
154.51063159581165
20
-4.4061466672153387
30
0
0
LINE
5
312
100
AcDbEntity
8
0
100
AcDbLine
10
154.51063159581165
20
-4.4061466672153387
30
0
11
153.86469774016095
21
-8.0591589575496485
31
0
0
LINE
5
313
100
AcDbEntity
8
0
100
AcDbLine
10
153.86469774016095
20
-8.0591589575496485
30
0
11
151.58610625965014
21
-8.8885387602879184
31
0
0
LINE
5
314
100
AcDbEntity
8
0
100
AcDbLine
10
151.58610625965014
20
-8.8885387602879184
30
0
11
149.72837624593984
21
-7.3296115599490319
31
0
0
LINE
5
315
100
AcDbEntity
8
0
100
AcDbLine
10
149.72837624593984
20
-7.3296115599490319
30
0
11
150.32562659721953
21
-3.9528205592315451
31
0
0
SPLINE
5
316
100
AcDbEntity
8
0
100
AcDbSpline
70
4
71
3
72
8
73
4
74
0
42
0.000000001
43
0.0000000001
44
0.0000000001
40
0
40
0
40
0
40
0
40
1
40
1
40
1
40
1
41
1
41
1
41
1
41
1
10
150.32562659721953
20
-3.9528205592315451
30
0
10
150.40006218970544
20
-3.5316038169679125
30
0
10
150.11889934137426
20
-3.1304978191016826
30
0
10
149.6980324916122
20
-3.0567673945804681
30
0
0
SPLINE
5
317
100
AcDbEntity
8
0
100
AcDbSpline
70
4
71
3
72
8
73
4
74
0
42
0.000000001
43
0.0000000001
44
0.0000000001
40
0
40
0
40
0
40
0
40
1
40
1
40
1
40
1
41
1
41
1
41
1
41
1
10
149.6980324916122
20
-3.0567673945804681
30
0
10
149.27822608527791
20
-2.9830369700592536
30
0
10
148.87817514787793
20
-3.2627894824610553
30
0
10
148.80338966289045
20
-3.6822406133321945
30
0
0
LINE
5
318
100
AcDbEntity
8
0
100
AcDbLine
10
148.80338966289045
20
-3.6822406133321945
30
0
11
145.84887584786441
21
-20.218698533254074
31
0
0
SPLINE
5
319
100
AcDbEntity
8
0
100
AcDbSpline
70
4
71
3
72
8
73
4
74
0
42
0.000000001
43
0.0000000001
44
0.0000000001
40
0
40
0
40
0
40
0
40
1
40
1
40
1
40
1
41
1
41
1
41
1
41
1
10
145.84887584786443
20
-20.218698533254074
30
0
10
145.70353588567764
20
-21.03290915030929
30
0
10
144.92601015167065
20
-21.575834653500475
30
0
10
144.11109436665078
20
-21.431902335762246
30
0
0
LINE
5
320
100
AcDbEntity
8
0
100
AcDbLine
10
144.11109436665078
20
-21.431902335762246
30
0
11
128.74374033663651
21
-18.714101563965247
31
0
0
SPLINE
5
321
100
AcDbEntity
8
0
100
AcDbSpline
70
4
71
3
72
8
73
4
74
0
42
0.000000001
43
0.0000000001
44
0.0000000001
40
0
40
0
40
0
40
0
40
1
40
1
40
1
40
1
41
1
41
1
41
1
41
1
10
128.74374033663648
20
-18.714101563965247
30
0
10
128.47175005480776
20
-18.665773335057352
30
0
10
128.21210828680339
20
-18.847453670752429
30
0
10
128.16412456743546
20
-19.11944395258114
30
0
0
LINE
5
322
100
AcDbEntity
8
0
100
AcDbLine
10
128.16412456743549
20
-19.11944395258114
30
0
11
127.56722949161892
21
-22.503994492390937
31
0
0
LINE
5
323
100
AcDbEntity
8
0
100
AcDbLine
10
127.56722949161892
20
-22.503994492390937
30
0
11
125.28863262814656
21
-23.333021711146863
31
0
0
LINE
5
324
100
AcDbEntity
8
0
100
AcDbLine
10
125.28863262814656
20
-23.333021711146863
30
0
11
123.43090799739784
21
-21.774449786271099
31
0
0
LINE
5
325
100
AcDbEntity
8
0
100
AcDbLine
10
123.43090799739784
20
-21.774449786271099
30
0
11
124.02815834867751
21
-18.387781051086478
31
0
0
SPLINE
5
326
100
AcDbEntity
8
0
100
AcDbSpline
70
4
71
3
72
8
73
4
74
0
42
0.000000001
43
0.0000000001
44
0.0000000001
40
0
40
0
40
0
40
0
40
1
40
1
40
1
40
1
41
1
41
1
41
1
41
1
10
124.02815834867751
20
-18.387781051086478
30
0
10
124.07648657758541
20
-18.115790769257764
30
0
10
123.8948116248519
20
-17.856498893754921
30
0
10
123.62282134302318
20
-17.80852055734859
30
0
0
LINE
5
327
100
AcDbEntity
8
0
100
AcDbLine
10
123.62282134302318
20
-17.808520557348587
30
0
11
117.49542849422774
21
-16.72478505486027
31
0
0
SPLINE
5
328
100
AcDbEntity
8
0
100
AcDbSpline
70
4
71
3
72
8
73
4
74
0
42
0.000000001
43
0.0000000001
44
0.0000000001
40
0
40
0
40
0
40
0
40
1
40
1
40
1
40
1
41
1
41
1
41
1
41
1
10
117.49542849422775
20
-16.724785054860273
30
0
10
117.22343821239903
20
-16.676806718453935
30
0
10
116.96414095393463
20
-16.858137161647456
30
0
10
116.91581272502674
20
-17.130127443476166
30
0
0
LINE
5
329
100
AcDbEntity
8
0
100
AcDbLine
10
116.91581272502674
20
-17.130127443476162
30
0
11
116.3196174342133
21
-20.503742496871791
31
0
0
LINE
5
330
100
AcDbEntity
8
0
100
AcDbLine
10
116.3196174342133
20
-20.503742496871791
30
0
11
114.04102057074095
21
-21.333122299610054
31
0
0
LINE
5
331
100
AcDbEntity
8
0
100
AcDbLine
10
114.04102057074095
20
-21.333122299610054
30
0
11
112.18329593999222
21
-19.774550374734293
31
0
0
LINE
5
332
100
AcDbEntity
8
0
100
AcDbLine
10
112.18329593999222
20
-19.774550374734293
30
0
11
112.78019101580878
21
-16.398819817444629
31
0
0
SPLINE
5
333
100
AcDbEntity
8
0
100
AcDbSpline
70
4
71
3
72
8
73
4
74
0
42
0.000000001
43
0.0000000001
44
0.0000000001
40
0
40
0
40
0
40
0
40
1
40
1
40
1
40
1
41
1
41
1
41
1
41
1
10
112.78019101580878
20
-16.398819817444629
30
0
10
112.82816396925355
20
-16.126829535615908
30
0
10
112.64684429198314
20
-15.867537660113069
30
0
10
112.37485401015445
20
-15.819204048243613
30
0
0
LINE
5
334
100
AcDbEntity
8
0
100
AcDbLine
10
112.37485401015445
20
-15.819204048243611
30
0
11
111.50420304111668
21
-15.665391304557463
31
0
0
SPLINE
5
335
100
AcDbEntity
8
0
100
AcDbSpline
70
4
71
3
72
8
73
4
74
0
42
0.000000001
43
0.0000000001
44
0.0000000001
40
0
40
0
40
0
40
0
40
1
40
1
40
1
40
1
41
1
41
1
41
1
41
1
10
111.50420304111668
20
-15.665391304557463
30
0
10
111.25091316775601
20
-15.620588915472986
30
0
10
111.02477495251645
20
-15.47982985357584
30
0
10
110.87238331068278
20
-15.272747322267444
30
0
0
LINE
5
336
100
AcDbEntity
8
0
100
AcDbLine
10
110.87238331068278
20
-15.272747322267445
30
0
11
110.30017449659172
21
-14.493461359829558
31
0
0
SPLINE
5
337
100
AcDbEntity
8
0
100
AcDbSpline
70
4
71
3
72
8
73
4
74
0
42
0.000000001
43
0.0000000001
44
0.0000000001
40
0
40
0
40
0
40
0
40
1
40
1
40
1
40
1
41
1
41
1
41
1
41
1
10
110.30017449659175
20
-14.493461359829558
30
0
10
110.14777208883496
20
-14.286378828521162
30
0
10
109.92164463951853
20
-14.14562514958558
30
0
10
109.66799949069474
20
-14.100817377539538
30
0
0
LINE
5
338
100
AcDbEntity
8
0
100
AcDbLine
10
109.66799949069474
20
-14.100817377539538
30
0
11
97.351826499445423
21
-11.926294692916063
31
0
0
SPLINE
5
339
100
AcDbEntity
8
0
100
AcDbSpline
70
4
71
3
72
8
73
4
74
0
42
0.000000001
43
0.0000000001
44
0.0000000001
40
0
40
0
40
0
40
0
40
1
40
1
40
1
40
1
41
1
41
1
41
1
41
1
10
97.351826499445423
20
-11.926294692916063
30
0
10
97.020569810813853
20
-11.868088729541029
30
0
10
96.74117257387519
20
-11.64689207301582
30
0
10
96.607470574586415
20
-11.338566800640406
30
0
0
LINE
5
340
100
AcDbEntity
8
0
100
AcDbLine
10
96.607470574586387
20
-11.338566800640404
30
0
11
95.781616611671581
21
-9.4279222747709905
31
0
0
SPLINE
5
341
100
AcDbEntity
8
0
100
AcDbSpline
70
4
71
3
72
8
73
4
74
0
42
0.000000001
43
0.0000000001
44
0.0000000001
40
0
40
0
40
0
40
0
40
1
40
1
40
1
40
1
41
1
41
1
41
1
41
1
10
95.781616611671581
20
-9.4279222747709905
30
0
10
95.648614397385955
20
-9.1199468948971347
30
0
10
95.369572435910399
20
-8.8991108967966159
30
0
10
95.039015532281951
20
-8.8401943824953335
30
0
0
LINE
5
342
100
AcDbEntity
8
0
100
AcDbLine
10
95.039015532281965
20
-8.8401943824953353
30
0
11
77.052290874121297
21
-5.6369715943982772
31
0
0
LINE
5
343
100
AcDbEntity
8
0
100
AcDbLine
10
77.052290874121297
20
-5.6369715943982772
30
0
11
15.942704202669393
21
-5.6369715943982772
31
0
0
SPLINE
5
344
100
AcDbEntity
8
0
100
AcDbSpline
70
4
71
3
72
8
73
4
74
0
42
0.000000001
43
0.0000000001
44
0.0000000001
40
0
40
0
40
0
40
0
40
1
40
1
40
1
40
1
41
1
41
1
41
1
41
1
10
15.942704202669397
20
-5.6369715943982772
30
0
10
14.487151396176261
20
-5.6369715943982772
30
0
10
13.241835536467137
20
-6.6815460515195912
30
0
10
12.988534897183325
20
-8.1145281001812624
30
0
0
LINE
5
345
100
AcDbEntity
8
0
100
AcDbLine
10
12.988534897183325
20
-8.1145281001812624
30
0
11
3.1792071055784432
21
-63.583204719000719
31
0
0
SPLINE
5
346
100
AcDbEntity
8
0
100
AcDbSpline
70
4
71
3
72
8
73
4
74
0
42
0.000000001
43
0.0000000001
44
0.0000000001
40
0
40
0
40
0
40
0
40
1
40
1
40
1
40
1
41
1
41
1
41
1
41
1
10
3.1792071055784445
20
-63.583204719000712
30
0
10
2.8906373021372938
20
-65.215507404832778
30
0
10
3.9807085503846409
20
-66.772668657344084
30
0
10
5.6133823241294412
20
-67.060182391013669
30
0
0
LINE
5
347
100
AcDbEntity
8
0
100
AcDbLine
10
5.6133823241294412
20
-67.060182391013669
30
0
11
24.421385427876817
21
-70.37064891301462
31
0
0
SPLINE
5
348
100
AcDbEntity
8
0
100
AcDbSpline
70
4
71
3
72
8
73
4
74
0
42
0.000000001
43
0.0000000001
44
0.0000000001
40
0
40
0
40
0
40
0
40
1
40
1
40
1
40
1
41
1
41
1
41
1
41
1
10
24.421385427876817
20
-70.37064891301462
30
0
10
24.673264965308132
20
-70.414746134134404
30
0
10
24.931151887843171
20
-70.410512771300631
30
0
10
25.180921304341982
20
-70.357948824513258
30
0
0
LINE
5
349
100
AcDbEntity
8
0
100
AcDbLine
10
25.180921304341982
20
-70.357948824513258
30
0
11
33.641946415624524
21
-68.573598669952432
31
0
0
SPLINE
5
350
100
AcDbEntity
8
0
100
AcDbSpline
70
4
71
3
72
8
73
4
74
0
42
0.000000001
43
0.0000000001
44
0.0000000001
40
0
40
0
40
0
40
0
40
1
40
1
40
1
40
1
41
1
41
1
41
1
41
1
10
33.641946415624517
20
-68.573598669952432
30
0
10
33.893825953055838
20
-68.520329218765283
30
0
10
34.153822996523346
20
-68.516448776348938
30
0
10
34.40712363580716
20
-68.561957006268287
30
0
0
LINE
5
351
100
AcDbEntity
8
0
100
AcDbLine
10
34.40712363580716
20
-68.561957006268287
30
0
11
56.711855506845517
21
-72.554343154835266
31
0
0
SPLINE
5
352
100
AcDbEntity
8
0
100
AcDbSpline
70
4
71
3
72
8
73
4
74
0
42
0.000000001
43
0.0000000001
44
0.0000000001
40
0
40
0
40
0
40
0
40
1
40
1
40
1
40
1
41
1
41
1
41
1
41
1
10
56.711855506845517
20
-72.554343154835266
30
0
10
57.188807433127025
20
-72.639715579475734
30
0
10
57.535588582904758
20
-73.05458177283603
30
0
10
57.535588582904758
20
-73.538946037189049
30
0
0
LINE
5
353
100
AcDbEntity
8
0
100
AcDbLine
10
57.535588582904758
20
-73.538946037189049
30
0
11
57.535588582904758
21
-88.790232649993257
31
0
0
SPLINE
5
354
100
AcDbEntity
8
0
100
AcDbSpline
70
4
71
3
72
8
73
4
74
0
42
0.000000001
43
0.0000000001
44
0.0000000001
40
0
40
0
40
0
40
0
40
1
40
1
40
1
40
1
41
1
41
1
41
1
41
1
10
57.535588582904758
20
-88.790232649993257
30
0
10
57.535588582904758
20
-89.342330719686899
30
0
10
57.983267964209531
20
-89.790004718030104
30
0
10
58.535710543443152
20
-89.790004718030104
30
0
0
LINE
5
355
100
AcDbEntity
8
0
100
AcDbLine
10
58.535710543443152
20
-89.790004718030076
30
0
11
75.937888639611572
21
-89.790004718030104
31
0
0
SPLINE
5
356
100
AcDbEntity
8
0
100
AcDbSpline
70
4
71
3
72
8
73
4
74
0
42
0.000000001
43
0.0000000001
44
0.0000000001
40
0
40
0
40
0
40
0
40
1
40
1
40
1
40
1
41
1
41
1
41
1
41
1
10
75.937888639611572
20
-89.790004718030104
30
0
10
76.350643366298996
20
-89.790004718030104
30
0
10
76.720700441872864
20
-90.043652558334685
30
0
10
76.86992690230781
20
-90.428179034588481
30
0
0
LINE
5
357
100
AcDbEntity
8
0
100
AcDbLine
10
76.869926902307796
20
-90.428179034588481
30
0
11
79.383468506135941
21
-96.902355724642433
31
0
0
SPLINE
5
358
100
AcDbEntity
8
0
100
AcDbSpline
70
4
71
3
72
8
73
4
74
0
42
0.000000001
43
0.0000000001
44
0.0000000001
40
0
40
0
40
0
40
0
40
1
40
1
40
1
40
1
41
1
41
1
41
1
41
1
10
79.383468506135941
20
-96.902355724642447
30
0
10
79.498825372419745
20
-97.199748202084464
30
0
10
79.749294573921688
20
-97.424112731489188
30
0
10
80.057275336757115
20
-97.506663138530513
30
0
0
LINE
5
359
100
AcDbEntity
8
0
100
AcDbLine
10
80.057275336757115
20
-97.506663138530513
30
0
11
105.243495766265
21
-104.23766361621091
31
0
0
LINE
5
360
100
AcDbEntity
8
0
100
AcDbLine
10
105.243495766265
20
-104.23766361621091
30
0
11
154.43059234033919
21
-104.23766361621091
31
0
0
LINE
5
361
100
AcDbEntity
8
0
100
AcDbLine
10
154.43059234033919
20
-104.23766361621091
30
0
11
179.569889493907
21
-97.506663138530513
31
0
0
SPLINE
5
362
100
AcDbEntity
8
0
100
AcDbSpline
70
4
71
3
72
8
73
4
74
0
42
0.000000001
43
0.0000000001
44
0.0000000001
40
0
40
0
40
0
40
0
40
1
40
1
40
1
40
1
41
1
41
1
41
1
41
1
10
179.569889493907
20
-97.506663138530513
30
0
10
179.87821476628241
20
-97.424112731489188
30
0
10
180.1286893507459
20
-97.199392926621343
30
0
10
180.24369632452817
20
-96.902003140660071
30
0
0
LINE
5
363
100
AcDbEntity
8
0
100
AcDbLine
10
180.24369632452817
20
-96.902003140660071
30
0
11
182.75088603371259
21
-90.428884202553164
31
0
0
SPLINE
5
364
100
AcDbEntity
8
0
100
AcDbSpline
70
4
71
3
72
8
73
4
74
0
42
0.000000001
43
0.0000000001
44
0.0000000001
40
0
40
0
40
0
40
0
40
1
40
1
40
1
40
1
41
1
41
1
41
1
41
1
10
182.75088603371259
20
-90.428884202553164
30
0
10
182.90011249414749
20
-90.044002450836231
30
0
10
183.27088012064763
20
-89.790004718030104
30
0
10
183.68327957187194
20
-89.790004718030104
30
0
0
LINE
5
365
100
AcDbEntity
8
0
100
AcDbLine
10
183.68327957187191
20
-89.790004718030104
30
0
11
201.10344752558217
21
-89.790004718030104
31
0
0
SPLINE
5
366
100
AcDbEntity
8
0
100
AcDbSpline
70
4
71
3
72
8
73
4
74
0
42
0.000000001
43
0.0000000001
44
0.0000000001
40
0
40
0
40
0
40
0
40
1
40
1
40
1
40
1
41
1
41
1
41
1
41
1
10
201.10344752558211
20
-89.790004718030104
30
0
10
201.65589817925814
20
-89.790004718030104
30
0
10
202.10321959361897
20
-89.342330719686899
30
0
10
202.10321959361897
20
-88.790232649993257
30
0
0
LINE
5
367
100
AcDbEntity
8
0
100
AcDbLine
10
202.10321959361897
20
-88.790232649993257
30
0
11
202.10321959361897
21
-73.529772124946206
31
0
0
SPLINE
5
368
100
AcDbEntity
8
0
100
AcDbSpline
70
4
71
3
72
8
73
4
74
0
42
0.000000001
43
0.0000000001
44
0.0000000001
40
0
40
0
40
0
40
0
40
1
40
1
40
1
40
1
41
1
41
1
41
1
41
1
10
202.10321959361897
20
-73.529772124946206
30
0
10
202.10321959361897
20
-73.045055276610839
30
0
10
202.45105849534377
20
-72.630189083250528
30
0
10
202.9276605291237
20
-72.545169242592422
30
0
0
LINE
5
369
100
AcDbEntity
8
0
100
AcDbLine
10
202.9276605291237
20
-72.545169242592422
30
0
11
225.2584930350381
21
-68.559485890476012
31
0
0
SPLINE
5
370
100
AcDbEntity
8
0
100
AcDbSpline
70
4
71
3
72
8
73
4
74
0
42
0.000000001
43
0.0000000001
44
0.0000000001
40
0
40
0
40
0
40
0
40
1
40
1
40
1
40
1
41
1
41
1
41
1
41
1
10
225.25849303503807
20
-68.559485890476012
30
0
10
225.51249345932501
20
-68.514330244538996
30
0
10
225.77284308677488
20
-68.51821102339045
30
0
10
226.0250792454097
20
-68.571833058559946
30
0
0
LINE
5
371
100
AcDbEntity
8
0
100
AcDbLine
10
226.0250792454097
20
-68.571833058559946
30
0
11
234.44200377122147
21
-70.357241301502881
31
0
0
SPLINE
5
372
100
AcDbEntity
8
0
100
AcDbSpline
70
4
71
3
72
8
73
4
74
0
42
0.000000001
43
0.0000000001
44
0.0000000001
40
0
40
0
40
0
40
0
40
1
40
1
40
1
40
1
41
1
41
1
41
1
41
1
10
234.44200377122147
20
-70.357241301502881
30
0
10
234.6928287528392
20
-70.410510752690044
30
0
10
234.95176770792457
20
-70.414744115523831
30
0
10
235.20400369834189
20
-70.370293973986605
30
0
0
LINE
5
373
100
AcDbEntity
8
0
100
AcDbLine
10
235.20400369834186
20
-70.370293973986605
30
0
11
253.99330033778949
21
-67.060180035967988
31
0
0
SPLINE
5
374
100
AcDbEntity
8
0
100
AcDbSpline
70
4
71
3
72
8
73
4
74
0
42
0.000000001
43
0.0000000001
44
0.0000000001
40
0
40
0
40
0
40
0
40
1
40
1
40
1
40
1
41
1
41
1
41
1
41
1
10
253.99330033778949
20
-67.060180035967988
30
0
10
255.62525010320411
20
-66.77266613408085
30
0
10
256.71533346311497
20
-65.216563474604328
30
0
10
256.42746748189813
20
-63.584613372754603
30
0
0
LINE
5
375
100
AcDbEntity
8
0
100
AcDbLine
10
256.42746748189813
20
-63.58461337275461
30
0
11
256.42742172672484
21
-63.584615896017823
31
0
0
ENDSEC
0
SECTION
2
OBJECTS
0
DICTIONARY
5
C
100
AcDbDictionary
3
ACAD_GROUP
350
D
3
ACAD_MLINESTYLE
350
17
0
DICTIONARY
5
D
100
AcDbDictionary
0
DICTIONARY
5
1A
330
C
100
AcDbDictionary
0
DICTIONARY
5
17
100
AcDbDictionary
0
ENDSEC
0
EOF
